<svg xmlns="http://www.w3.org/2000/svg" viewBox="0 0 100 100"><path d="M69.6 63.3c-.3 0-.7-.2-.8-.5l-4.3-7.3-1.6 2.5c-.2.3-.5.4-.8.4H49.2c-.5 0-1-.4-1-1 0-.5.4-1 1-1h12.3l2.2-3.3c.2-.3.5-.4.8-.4.3 0 .6.2.8.5l4 6.8 4.2-11.7c.1-.4.4-.6.8-.6s.7.1.9.5l2.4 4 2.6-3.2c.2-.2.5-.4.8-.4s.6.1.8.4l1.8 2.2H99c.5 0 1 .4 1 1 0 .5-.4 1-1 1H83.2c-.3 0-.6-.1-.8-.4l-1.3-1.6-2.7 3.3c-.2.2-.5.4-.8.4-.3 0-.6-.2-.8-.5L74.7 51l-4.2 11.7c-.1.3-.4.6-.9.6.1 0 .1 0 0 0z" fill="#a0c529"/><path d="M12.7 79.2c-.4 0-.8-.1-1.2-.2-1.8-.7-3.3-2.9-4.7-7.1-.3-.8-.6-1.7-.9-2.6-3.4-9.9-8-23.6-4.8-30.4 3.8-8.1 9.4-15.6 24.6-15.1 5.4.2 9.4.1 12.3 0 5.7-.1 8-.2 10.3 1.7 3.7 3 4.1 7.6 2.5 10.4-.4.7-.9 1.4-1.4 2.1-1.3 1.8-2.6 3.7-2.4 5.2.1.6.1 1.2.1 2 .1 3.4.3 6.5 2.7 7.2 2.1.6 16-5.6 24.5-12.9 4-3.5 6.1-6.5 5.8-8.7-.9-6.5-19.1-6-26.1-5.2-.5.1-1-.3-1.1-.9-.1-.5.3-1 .9-1.1 2.8-.3 27-2.6 28.3 6.9.4 2.9-1.8 6.4-6.5 10.4-8 6.9-22.8 14.3-26.3 13.3-3.9-1.2-4-5.9-4.1-9.1 0-.7 0-1.4-.1-1.8-.3-2.3 1.3-4.4 2.7-6.6.5-.7.9-1.4 1.3-2 1.2-2.1.8-5.6-2-7.9-1.8-1.4-3.7-1.4-9-1.3-2.9.1-7 .1-12.4 0-14.8-.4-19.5 7-22.8 14C.1 45.8 4.6 59 7.8 68.7c.3.9.6 1.8.9 2.6 1.4 4.3 2.7 5.6 3.5 5.9.7.2 1.2-.1 2-.5.3-.2.6-.4 1-.5.8-.3 5.4-4.4 9.2-7.7 2.1-1.8 4.2-3.7 6.2-5.4 6.2-5.3 10.8-6.7 12.4-6.7.5 0 1 .4 1 1 0 .5-.4 1-1 1 0 0-4.2.3-11.1 6.2-2 1.7-4.1 3.6-6.2 5.4-6.5 5.7-9 7.9-10 8.1-.1 0-.3.1-.4.2-.7.4-1.5.9-2.6.9z" fill="#dadbda"/></svg>