<svg version="1.1" id="Слой_1" xmlns="http://www.w3.org/2000/svg" x="0" y="0" viewBox="0 0 61.2 133.2" xml:space="preserve"><style>.st0{fill:#a0c529}</style><path class="st0" d="M30.1 130.7c-.6 0-1-.4-1-1V59.3c0-.6.4-1 1-1s1 .4 1 1v70.5c0 .5-.4.9-1 .9z"/><path class="st0" d="M44.9 114.1H15.3c-.6 0-1-.4-1-1s.4-1 1-1h29.6c.6 0 1 .4 1 1s-.4 1-1 1z"/><path d="M30.1 60.3c-8 0-15.6-3.1-21.3-8.8-11.7-11.8-11.7-30.9 0-42.7C14.5 3.1 22.1 0 30.1 0s15.6 3.1 21.3 8.8C59 16.4 62 27.6 59.2 37.9c-.1.5-.7.8-1.2.7s-.9-.7-.7-1.2c2.6-9.7-.2-20.1-7.3-27.2C44.7 4.9 37.6 2 30.1 2s-14.6 2.9-19.9 8.2c-11 11-11 28.8 0 39.8 5.3 5.3 12.4 8.2 19.9 8.2S44.7 55.3 50 50c.4-.4 1-.4 1.4 0s.4 1 0 1.4c-5.7 5.7-13.2 8.9-21.3 8.9z" fill="#dadbda"/><path class="st0" d="M30.1 53.8c-12.9 0-23.5-10.5-23.5-23.5S17.2 6.8 30.1 6.8s23.5 10.5 23.5 23.5-10.5 23.5-23.5 23.5zm0-45c-11.8 0-21.5 9.6-21.5 21.5s9.6 21.5 21.5 21.5 21.5-9.6 21.5-21.5S42 8.8 30.1 8.8z"/><circle class="st0" cx="30.1" cy="129.7" r="3.5"/><circle class="st0" cx="57.7" cy="38.4" r="3.5"/></svg>