<svg version="1.1" id="Слой_1" xmlns="http://www.w3.org/2000/svg" x="0" y="0" viewBox="0 0 100 100" xml:space="preserve"><style>.st0{fill:#a0c529}.st1{fill:#dadbda}.st2{fill:#fff}</style><circle class="st0" cx="45.6" cy="77.3" r="2.5"/><circle class="st0" cx="54.6" cy="77.3" r="2.5"/><circle class="st0" cx="45.6" cy="85.5" r="2.5"/><circle class="st0" cx="54.6" cy="85.5" r="2.5"/><path class="st1" d="M50 61c-17.9 0-32.5-21-32.5-46.8 0-.5.4-1 1-1s1 .4 1 1C19.5 38.9 33.2 59 50 59s30.5-20.1 30.5-44.9c0-.5.4-1 1-1 .5 0 1 .4 1 1C82.5 40 67.9 61 50 61z"/><path class="st1" d="M6.2 92.4C3 92.4 1 92 .7 92c-.5-.1-.9-.6-.8-1.1s.6-.9 1.1-.8c.1 0 13.1 2.3 24.6-5.1 11.3-7.2 5.5-32.6 5.4-32.9-.1-.5.2-1.1.7-1.2.5-.1 1.1.2 1.2.7.3 1.1 6.2 27-6.2 35-7.5 4.9-15.4 5.8-20.5 5.8zm87.5 0c-5.1 0-13-1-20.5-5.8-12.4-8-6-34.2-5.7-35.3.1-.5.7-.8 1.2-.7s.8.7.7 1.2c-.1.3-6.4 26 4.9 33.2 11.5 7.4 24.4 5.1 24.6 5.1.5-.1 1 .3 1.1.8s-.3 1-.8 1.1c-.3 0-2.4.4-5.5.4z"/><path class="st2" d="M45.2 92.3c-2.9 0-5.3-2.1-5.6-5l-1.3-10.6c-.2-1.9.4-3.6 1.8-4.9 1.4-1.3 3.2-1.7 5.1-1.3l4.9 1.1c.5.1.9.6.7 1.2-.1.5-.7.9-1.2.7l-4.9-1.1c-1.2-.3-2.4 0-3.3.9-.9.8-1.3 2-1.2 3.2l1.3 10.6c.2 1.8 1.8 3.2 3.6 3.3l4.5-.8c.5-.1 1 .3 1.1.8s-.3 1-.8 1.1l-4.7.8c.2 0 .1 0 0 0z"/><path class="st2" d="M54.9 92.3h-.2l-4.6-.9c-.5-.1-.9-.6-.8-1.1.1-.5.6-.9 1.1-.8l4.5.8c1.8 0 3.4-1.4 3.6-3.3l1.3-10.6c.1-1.2-.3-2.4-1.2-3.2-.9-.8-2.1-1.1-3.3-.9l-4.9 1.1c-.5.1-1.1-.2-1.2-.7-.1-.5.2-1.1.7-1.2l4.9-1.1c1.8-.4 3.7.1 5.1 1.3 1.4 1.3 2.1 3 1.8 4.9l-1.3 10.6c-.2 2.9-2.6 5.1-5.5 5.1z"/></svg>