<svg version="1.1" id="Слой_1" xmlns="http://www.w3.org/2000/svg" x="0" y="0" viewBox="0 0 100 100" xml:space="preserve"><style>.st0{fill:#a0c529}.st1{fill:#dadbda}</style><path class="st0" d="M48.7 53.9c-.2 0-.3 0-.5-.1-.8-.3-1.2-1.1-.9-1.9l12-34.7c.3-.8 1.1-1.2 1.9-.9.8.3 1.2 1.1.9 1.9L50 52.9c-.2.6-.7 1-1.3 1z"/><path class="st1" d="M19.5 30.8c-.2 0-.4 0-.5-.1l-8.9-3.5c-.5-.2-.8-.6-.9-1.1l-1.4-9.4c-.1-.5.1-1 .5-1.4l7.5-5.9c.4-.3 1-.4 1.4-.2l8.9 3.5c.5.2.8.6.9 1.1l1.4 9.4c.1.5-.1 1-.5 1.4l-7.5 5.9c-.3.2-.6.3-.9.3zm-7.6-6l7.3 2.9 6.1-4.9-1.1-7.8-7.3-2.9-6.1 4.9 1.1 7.8zM10.3 77h-.2l-6.5-1.1c-.5-.1-.9-.4-1.1-.9L.2 68.8c-.2-.5-.1-1 .2-1.4l4.2-5.1c.3-.4.9-.6 1.4-.5l6.5 1.1c.5.1.9.4 1.1.9l2.3 6.2c.2.5.1 1-.2 1.4l-4.2 5.1c-.4.3-.8.5-1.2.5zm-5.5-3.9l4.8.8 3.1-3.8-1.7-4.6-4.8-.8-3.1 3.8 1.7 4.6zm60.3-52.2c-.2 0-.4 0-.5-.1l-7.9-3.1c-.5-.2-.8-.6-.9-1.1l-1.3-8.4c-.1-.5.1-1 .5-1.4l6.6-5.3c.4-.3 1-.4 1.4-.2l8 3.1c.5.2.8.6.9 1.1l1.3 8.4c.1.5-.1 1-.5 1.4L66 20.5c-.3.2-.6.4-.9.4zm-6.6-5.6l6.3 2.5 5.3-4.2-1-6.7-6.3-2.5-5.3 4.2 1 6.7zm33.4 83.5s-.1 0 0 0l-12.4-.5c-.5 0-1-.3-1.2-.8l-5.7-11c-.2-.5-.2-1 .1-1.5l6.7-10.4c.3-.4.8-.7 1.3-.7l12.4.5c.5 0 1 .3 1.2.8l5.7 11c.2.5.2 1-.1 1.5l-6.7 10.4c-.3.5-.8.7-1.3.7zm-11.5-3.4l10.7.5 5.7-9-4.9-9.5-10.7-.5-5.7 9 4.9 9.5z"/><path class="st0" d="M40.9 49.3c-.4 0-.9-.2-1.2-.6L25.6 29.8c-.5-.6-.4-1.6.3-2 .6-.5 1.6-.4 2 .3L42.1 47c.5.6.4 1.6-.3 2-.3.2-.6.3-.9.3zM16.5 67.8c-.6 0-1.2-.4-1.4-1-.3-.8.2-1.6.9-1.8 1.5-.5 16.7-6.2 16.9-6.2.8-.3 1.6.1 1.9.9.3.8-.1 1.6-.9 1.9-.6.2-15.4 5.7-17 6.3-.1-.2-.2-.1-.4-.1zm56.8 12.9c-.3 0-.7-.1-.9-.3-2.9-2.4-24.3-17.7-24.5-17.9-.7-.5-.8-1.4-.3-2 .5-.7 1.4-.8 2-.3.9.6 21.8 15.5 24.7 18 .6.5.7 1.4.2 2.1-.3.3-.7.4-1.2.4z"/><path class="st1" d="M45.9 66.1h-9.5c-.5 0-1-.3-1.3-.7l-4.8-8.3c-.3-.5-.3-1 0-1.5l4.8-8.3c.3-.5.7-.7 1.3-.7h9.5c.5 0 1 .3 1.3.7l4.8 8.3c.3.5.3 1 0 1.5l-4.8 8.3c-.3.5-.8.7-1.3.7zm-8.7-2.9h7.9l3.9-6.8-3.9-6.8h-7.9l-3.9 6.8 3.9 6.8z"/></svg>