<svg xmlns="http://www.w3.org/2000/svg" viewBox="0 0 100 100"><path d="M48.3 91.6h-.2C39.3 90 15.5 72.1 6.3 51.7 1.4 41 1.4 31.5 6.2 23.5c4.9-8.1 11.1-13 18.5-14.5 11.1-2.4 21.2 3.5 23.6 5 2.5-1.6 12.6-7.4 23.6-5 7.4 1.6 13.6 6.5 18.5 14.5 7.9 13.2 1.2 28.1-5.8 38.2-.3.4-.9.6-1.4.2-.4-.3-.6-.9-.2-1.4 6.7-9.7 13.1-23.8 5.7-36.1-4.6-7.6-10.4-12.2-17.2-13.6-11.6-2.5-22.6 5-22.7 5.1-.3.2-.8.2-1.1 0-.1-.1-11-7.6-22.7-5.1-6.8 1.5-12.6 6-17.2 13.6-4.5 7.4-4.4 16.3.2 26.4C16.8 70.3 39.9 88 48.3 89.7c5-1 14-7 22.2-14.7.4-.4 1-.4 1.4 0s.4 1 0 1.4c-8.6 8.2-18 14.3-23.4 15.3-.1-.1-.1-.1-.2-.1z" fill="#dadbda"/><path d="M41.2 64.4c-.3 0-.7-.2-.8-.5l-9.1-15.6-4.1 6c-.2.3-.5.4-.8.4H1c-.5 0-1-.4-1-1 0-.5.4-1 1-1h24.8l4.7-6.9c.2-.3.5-.4.8-.4s.6.2.8.5L41 61l8.9-24.9c.1-.4.4-.6.8-.6s.7.1.9.5l5.5 9 5.9-7.3c.2-.2.5-.4.8-.4.3 0 .6.1.8.4l3.7 4.7H99c.5 0 1 .4 1 1 0 .5-.4 1-1 1H67.8c-.3 0-.6-.1-.8-.4l-3.2-4-6.1 7.4c-.2.2-.5.4-.8.4s-.6-.2-.8-.5L51 38.9l-8.9 24.9c-.1.3-.5.6-.9.6z" fill="#a0c529"/></svg>