<svg version="1.1" id="Слой_1" xmlns="http://www.w3.org/2000/svg" x="0" y="0" viewBox="0 0 100 100" xml:space="preserve"><style>.st0{fill:#dadbda}</style><path class="st0" d="M99 100c-.3 0-.5-.1-.7-.3L52.4 53.8c-.4-.4-.4-1 0-1.4s1-.4 1.4 0l45.9 45.9c.4.4.4 1 0 1.4-.2.2-.4.3-.7.3zM31.5 59.2c-7.4 0-14.3-2.9-19.6-8.1C1.2 40.3 1.2 22.7 12 12c5.2-5.2 12.2-8.1 19.6-8.1S45.9 6.7 51.1 12c5.2 5.2 8.1 12.2 8.1 19.6s-2.9 14.3-8.1 19.6c-5.2 5.1-12.2 8-19.6 8zm0-53.4c-6.9 0-13.3 2.7-18.2 7.5-10 10-10 26.3 0 36.4 4.9 4.9 11.3 7.5 18.2 7.5s13.3-2.7 18.2-7.5c4.9-4.9 7.5-11.3 7.5-18.2s-2.7-13.3-7.5-18.2c-4.8-4.8-11.3-7.5-18.2-7.5z"/><path class="st0" d="M31.5 63c-8.1 0-16.2-3.1-22.3-9.2-6-6-9.2-13.9-9.2-22.3S3.3 15.2 9.2 9.2c12.3-12.3 32.3-12.3 44.6 0 12.3 12.3 12.3 32.3 0 44.6C47.7 60 39.6 63 31.5 63zm0-61C24 2 16.4 4.8 10.6 10.6 5 16.2 2 23.6 2 31.5s3 15.4 8.6 20.9C22.2 64 40.9 64 52.5 52.4 64 40.9 64 22.1 52.5 10.6 46.7 4.8 39.1 2 31.5 2z"/><path d="M23.3 39H23c-2.3-.8-4.4-2.1-6.2-3.8-5.8-6-5.8-15.6-.1-21.6 2.9-3 6.8-4.6 10.9-4.7 4.2 0 8 1.6 11 4.5l.3.3c5 5.2 4.2 11.9 1.2 16.2-3.1 4.4-9.2 7.4-16 4.4l-.3-.1c-3.4-1.6-5.6-4.8-5.8-8.5-.3-3.8 1.4-7.3 4.6-9.4 3.3-2.2 8.6-1.8 11.6.8 2.5 2.2 2.8 5.6.9 9.3-.2.5-.8.7-1.3.4-.5-.2-.7-.8-.4-1.3 1.5-2.9 1.4-5.3-.5-7-2.3-2-6.6-2.3-9.2-.6-2.6 1.7-4 4.6-3.7 7.6.2 3 2 5.6 4.7 6.9l.3.1c5.7 2.5 10.9-.1 13.6-3.8 2.4-3.4 3.5-9-1-13.7l-.2-.2c-2.5-2.5-5.9-3.9-9.5-3.9h-.1c-3.6 0-7 1.5-9.5 4.1-5 5.2-5 13.6.1 18.7 1.5 1.5 3.3 2.7 5.4 3.3.5.2.8.7.6 1.2-.3.5-.7.8-1.1.8zm11.2 15c-2.7 0-5.5-1.4-6.8-4.7l-.1-.2c-.7-2-.3-4.2 1.1-5.8s3.5-2.4 5.7-1.9c2.3.5 4.3 2.8 4.4 5 .1.9-.2 3.2-3.5 4.3-.5.2-1.1-.1-1.2-.6-.2-.5.1-1.1.6-1.2 1.5-.5 2.2-1.2 2.1-2.3-.1-1.4-1.4-3-2.8-3.2-1.4-.3-2.8.2-3.8 1.3-.9 1.1-1.2 2.5-.7 3.9l.1.1c1.2 3 3.9 3.7 6 3.4 2-.3 4.3-1.9 4.4-5v-.2c0-1.8-.7-3.5-2-4.7-1.3-1.3-2.9-1.9-4.7-1.9-3.6 0-6.5 3-6.5 6.6 0 1.1.2 2.1.7 3 .2.5.1 1.1-.4 1.3s-1.1.1-1.3-.4c-.6-1.2-.9-2.6-.9-3.9 0-4.6 3.8-8.4 8.5-8.5 2.3 0 4.5.8 6.1 2.5 1.6 1.6 2.6 3.8 2.6 6.1v.2c-.1 4.1-3.1 6.4-6 6.9-.7-.2-1.1-.1-1.6-.1zm10.4-17c-1.5 0-2.6-.9-3.1-2-.6-1.3-.5-3.2 1.1-4.4.9-.7 2-.8 2.9-.3 1 .4 1.6 1.3 1.7 2.4.1 1.1-.7 2.4-1.8 2.7-.4.1-1.5.3-2.5-1.1-.1-.2-.1-.5.1-.7.2-.1.5-.1.7.1.4.6.8.8 1.3.7.6-.2 1.2-1 1.1-1.7-.1-.7-.5-1.3-1.1-1.6-.6-.3-1.3-.2-1.9.2-1.3 1-1.3 2.3-.8 3.2.4.9 1.4 1.7 2.9 1.4.9-.3 1.6-.8 2-1.5s.5-1.6.3-2.4c-.5-1.6-2.2-2.6-3.9-2.2-.5.1-.9.4-1.3.7-.2.2-.5.2-.7 0s-.2-.5 0-.7c.5-.5 1.1-.8 1.7-.9 2.2-.6 4.4.7 5.1 2.8.3 1.1.2 2.2-.3 3.2s-1.4 1.7-2.5 2h-.1c-.3.1-.6.1-.9.1z" fill="#a0c529"/></svg>