<svg xmlns="http://www.w3.org/2000/svg" viewBox="0 0 100 100"><path d="M64.4 75.2H34.3c-.4 0-.7-.2-.8-.5L18.3 48.6c-.2-.3-.2-.7 0-1l15.1-26.1c.2-.3.5-.5.8-.5h30.2c.4 0 .7.2.8.5l15.1 26.1c.2.3.2.7 0 1l-15 26.1c-.2.3-.5.5-.9.5zm-29.6-1.9h29l14.5-25.1L63.9 23h-29L20.3 48.1l14.5 25.2z" fill="#a0c529"/><path d="M99.9 48.3L82.2 17.6c.5-.6.8-1.4.8-2.2 0-1.9-1.5-3.4-3.4-3.4s-3.4 1.5-3.4 3.4 1.5 3.4 3.4 3.4c.3 0 .6-.1.9-.1l17.4 30.2-24.2 42c-.3.5-.1 1.1.4 1.3.2.1.3.1.5.1.3 0 .7-.2.9-.5L100 49.3c0-.3 0-.7-.1-1zM61.3 87.7c-1.6 0-2.9 1.1-3.3 2.6H26.1l-24.2-42c-.3-.4-.9-.6-1.4-.3-.5.3-.6.9-.4 1.3l24.5 42.5c.2.3.5.5.8.5H58c.5 1.4 1.7 2.4 3.2 2.4 1.9 0 3.4-1.5 3.4-3.4.1-2-1.4-3.6-3.3-3.6zM6.7 42c1.9 0 3.4-1.5 3.4-3.4 0-.8-.3-1.6-.8-2.2L26 7.4h48.5c.5 0 1-.4 1-1s-.4-1-1-1h-49c-.4 0-.7.2-.8.5l-17 29.4c-.3-.1-.6-.2-1-.2-1.9 0-3.4 1.5-3.4 3.4 0 2 1.5 3.5 3.4 3.5z" fill="#fff"/></svg>