<svg version="1.1" id="Слой_1" xmlns="http://www.w3.org/2000/svg" x="0" y="0" viewBox="0 0 100 100" xml:space="preserve"><style>.st0{fill:#a0c529}</style><path class="st0" d="M50 51.1c-.3 0-.5-.1-.7-.3-.4-.4-.4-1 0-1.4l49-49c.4-.4 1-.4 1.4 0s.4 1 0 1.4l-49 49c-.2.2-.5.3-.7.3z"/><path class="st0" d="M99 31.2c-.5 0-1-.4-1-1V1c0-.5.4-1 1-1s1 .4 1 1v29.1c0 .6-.4 1.1-1 1.1z"/><path class="st0" d="M99 2H69.9c-.5 0-1-.4-1-1s.4-1 1-1H99c.5 0 1 .4 1 1s-.4 1-1 1z"/><path d="M29.6 100c-4.8 0-9.6-1.2-14-3.5-7-3.8-12.1-10-14.4-17.6C-3.5 63.2 5.4 46.7 21.1 42c10.1-3 21.2-.4 28.9 6.8.4.4.4 1 0 1.4s-1 .4-1.4 0c-7.2-6.8-17.5-9.2-27-6.4C7.1 48.2-1.3 63.7 3.1 78.3c2.1 7.1 6.9 12.9 13.4 16.4s14 4.3 21.1 2.1c14.6-4.3 23-19.8 18.6-34.4-.2-.5.1-1.1.7-1.2.5-.2 1.1.1 1.2.7 4.7 15.7-4.2 32.2-19.9 36.9-2.8.8-5.7 1.2-8.6 1.2z" fill="#dadbda"/><path class="st0" d="M29.7 91.2c-11.5 0-20.9-9.4-20.9-20.9s9.4-20.9 20.9-20.9 20.9 9.4 20.9 20.9c-.1 11.5-9.4 20.9-20.9 20.9zm0-39.8c-10.4 0-18.9 8.5-18.9 18.9s8.5 18.9 18.9 18.9 18.9-8.5 18.9-18.9-8.5-18.9-18.9-18.9z"/><circle class="st0" cx="49.2" cy="49.7" r="3.4"/></svg>