<svg version="1.1" id="Слой_1" xmlns="http://www.w3.org/2000/svg" x="0" y="0" viewBox="0 0 100 100" xml:space="preserve"><style>.st0{fill:#a0c529}.st1{fill:#dadbda}</style><path class="st0" d="M50 8.6c-.5 0-1-.4-1-1V1.5c0-.5.4-1 1-1s1 .4 1 1v6.1c0 .6-.5 1-1 1zm-22.2 5.8c-.3 0-.5-.1-.7-.3l-4.3-4.3c-.4-.4-.4-1 0-1.4.4-.4 1-.4 1.4 0l4.3 4.3c.4.4.4 1 0 1.4-.2.2-.4.3-.7.3zM11.9 31.9c-.1 0-.3 0-.4-.1L6 29c-.5-.2-.7-.8-.4-1.3.2-.5.8-.7 1.3-.4l5.5 2.8c.5.2.7.8.4 1.3-.2.3-.5.5-.9.5zm60.6-17.5c-.3 0-.5-.1-.7-.3-.4-.4-.4-1 0-1.4l4.3-4.3c.4-.4 1-.4 1.4 0 .4.4.4 1 0 1.4l-4.3 4.3c-.2.2-.4.3-.7.3zm16 17.5c-.4 0-.7-.2-.9-.5-.2-.5-.1-1.1.4-1.3l5.5-2.8c.5-.2 1.1-.1 1.3.4.2.5.1 1.1-.4 1.3l-5.5 2.8c-.1 0-.3.1-.4.1zm-65 59.5c-.3 0-.5-.1-.7-.3-.4-.4-.4-1 0-1.4l4.3-4.3c.4-.4 1-.4 1.4 0s.4 1 0 1.4l-4.3 4.3c-.2.2-.5.3-.7.3zM6.4 71.9c-.4 0-.7-.2-.9-.5-.2-.6 0-1.1.5-1.4l5.5-2.8c.5-.2 1.1-.1 1.3.4s.1 1.1-.4 1.3l-5.5 2.8c-.2.1-.3.2-.5.2zm70.5 19.5c-.3 0-.5-.1-.7-.3l-4.3-4.3c-.4-.4-.4-1 0-1.4s1-.4 1.4 0l4.3 4.3c.4.4.4 1 0 1.4-.2.2-.5.3-.7.3zm17-19.5c-.1 0-.3 0-.4-.1L88 69c-.5-.2-.7-.8-.4-1.3.2-.5.8-.7 1.3-.4l5.5 2.8c.5.2.7.8.4 1.3-.2.3-.5.5-.9.5zM50 99.6c-.5 0-1-.4-1-1v-6.1c0-.5.4-1 1-1s1 .4 1 1v6.1c0 .6-.5 1-1 1zm0-24.7c-.5 0-1-.4-1-1V50.8c0-.5.4-1 1-1s1 .4 1 1v23.1c0 .5-.5 1-1 1z"/><path class="st0" d="M82.2 50.7H50c-.5 0-1-.4-1-1 0-.5.4-1 1-1h32.2c.5 0 1 .4 1 1s-.4 1-1 1zm16.3.3h-6.1c-.5 0-1-.4-1-1 0-.5.4-1 1-1h6.1c.5 0 1 .4 1 1s-.4 1-1 1zm-91 0H1.4c-.5 0-1-.4-1-1 0-.5.4-1 1-1h6.1c.5 0 1 .4 1 1s-.4 1-1 1z"/><path class="st1" d="M50 100C22.4 100 0 77.6 0 50S22.4 0 50 0c17.8 0 34.4 9.6 43.3 25 .3.5.1 1.1-.4 1.3-.5.3-1.1.1-1.3-.4C83 11.2 67.1 2 50 2 23.5 2 2 23.5 2 50s21.6 48 48 48 48-21.6 48-48c0-.5.4-1 1-1s1 .4 1 1c0 27.6-22.4 50-50 50z"/><circle class="st1" cx="50" cy="49.7" r="3.4"/></svg>