<svg xmlns="http://www.w3.org/2000/svg" viewBox="0 0 100 100"><path d="M50 100.1c-13.4 0-25.9-5.2-35.4-14.7C5.2 76 0 63.4 0 50c0-13.4 5.2-25.9 14.7-35.4S36.6 0 50 0s25.9 5.2 35.4 14.7c9.4 9.4 14.7 22 14.7 35.4 0 13.4-5.2 25.9-14.7 35.4-9.5 9.4-22 14.6-35.4 14.6zm0-97.9C23.7 2.2 2.2 23.7 2.2 50c0 26.3 21.4 47.8 47.8 47.8 26.3 0 47.8-21.4 47.8-47.8C97.8 23.7 76.3 2.2 50 2.2z" fill="#a0a09e"/><path d="M23.9 60.8l25.2-27.3c.5-.5 1.3-.5 1.8 0l25.2 27.3c.5.5.1 1.4-.6 1.4h-51c-.7 0-1.1-.9-.6-1.4z" fill="#8d8f90"/></svg>