<svg version="1.1" id="Слой_1" xmlns="http://www.w3.org/2000/svg" x="0" y="0" viewBox="0 0 100 100" xml:space="preserve"><style>.st0{fill:#8d8e8e}</style><path class="st0" d="M50 32.9c-9.4 0-17.1 7.7-17.1 17.1 0 9.4 7.7 17.1 17.1 17.1 9.4 0 17.1-7.7 17.1-17.1 0-9.4-7.7-17.1-17.1-17.1z"/><path class="st0" d="M65.9 16H34.1c-11 0-20 9-20 20v28c0 11 8.9 19.9 19.9 19.9h31.8c11 0 19.9-8.9 19.9-19.9V36c.2-11-8.8-20-19.8-20zM50 72.8c-12.6 0-22.8-10.2-22.8-22.8 0-12.6 10.2-22.8 22.8-22.8 12.6 0 22.8 10.2 22.8 22.8 0 12.6-10.2 22.8-22.8 22.8zm22.5-40.2c-2.6 0-4.7-2.1-4.7-4.7s2.1-4.7 4.7-4.7 4.7 2.1 4.7 4.7-2.1 4.7-4.7 4.7z"/><path class="st0" d="M82.9 0H17.1C7.6 0 0 7.7 0 17.1v65.8C0 92.3 7.6 100 17.1 100h65.8c9.4 0 17.1-7.7 17.1-17.1V17.1C100 7.7 92.4 0 82.9 0zm8.7 64c0 14.1-11.5 25.6-25.6 25.6H34.1C19.9 89.7 8.4 78.2 8.4 64V36c0-14.1 11.5-25.6 25.6-25.6h31.8c14.1 0 25.6 11.5 25.6 25.6v28z"/></svg>