<svg version="1.1" id="Слой_1" xmlns="http://www.w3.org/2000/svg" x="0" y="0" viewBox="0 0 100 79.6" xml:space="preserve"><style>.st0{fill:#9d9d9c}</style><path class="st0" d="M45.7 61.5c-1.4 0-2.5 1.1-2.5 2.5s1.1 2.5 2.5 2.5 2.5-1.1 2.5-2.5c-.1-1.4-1.2-2.5-2.5-2.5zm8.9 0c-1.4 0-2.5 1.1-2.5 2.5s1.1 2.5 2.5 2.5 2.5-1.1 2.5-2.5-1.1-2.5-2.5-2.5z"/><circle class="st0" cx="45.7" cy="72.1" r="2.5"/><circle class="st0" cx="54.6" cy="72.1" r="2.5"/><path class="st0" d="M100 77.4c-.1-.8-.9-1.3-1.7-1.2-.1 0-12.7 2.3-24-5-10.5-6.8-5.1-30.6-4.7-32.3 7.9-8.6 13.1-22.2 13.1-37.5C82.7.7 82 0 81.2 0s-1.5.7-1.5 1.5c0 24.2-13.3 44-29.7 44s-29.7-19.7-29.7-44c0-.8-.7-1.5-1.5-1.5s-1.5.7-1.5 1.5c0 15.6 5.3 29.4 13.5 37.9.5 2.5 5.1 25.2-5.2 31.8-11.2 7.2-23.9 5-24 5-.7-.2-1.4.4-1.6 1.2-.1.8.4 1.5 1.2 1.7.2 0 2.3.4 5.5.4 5.1 0 13.1-1 20.6-5.8 9.7-6.2 8.4-23.1 7.2-31 4.6 3.6 9.9 5.7 15.6 5.7 5.8 0 11.2-2.2 15.9-6-1.4 8-3 25 6.7 31.3 7.5 4.8 15.5 5.8 20.6 5.8 3.2 0 5.3-.4 5.5-.4.8-.2 1.3-1 1.2-1.7z"/><path class="st0" d="M54.8 56.8l-4.7 1.1-4.7-1.1c-1.9-.4-4 .1-5.4 1.4-1.5 1.3-2.2 3.3-2 5.3L39.3 74c.4 3.1 3 5.4 6.1 5.4h.3l4.5-.8 4.5.8h.3c3.1 0 5.7-2.3 6.1-5.4l1.3-10.5c.2-2-.5-3.9-2-5.3-1.6-1.3-3.6-1.9-5.6-1.4zm4.6 6.3l-1.3 10.5c-.2 1.6-1.5 2.7-3 2.8l-4.4-.8h-1l-4.4.8c-1.6-.1-2.9-1.2-3-2.8L41 63.1c-.1-1 .2-2.1 1-2.8.8-.7 1.8-1 2.8-.7l4.8 1.1h1l4.8-1.1c1-.2 2.1 0 2.8.7.9.8 1.3 1.8 1.2 2.8z"/></svg>