<?xml version="1.0" standalone="no"?>
<!DOCTYPE svg PUBLIC "-//W3C//DTD SVG 1.1//EN" "http://www.w3.org/Graphics/SVG/1.1/DTD/svg11.dtd" >
<svg xmlns="http://www.w3.org/2000/svg" xmlns:xlink="http://www.w3.org/1999/xlink" version="1.1">
<metadata>
Created by FontForge 20170731 at Sun May 18 22:04:08 2014
 By Aleksey,,,
Copyright (c) 2014 by (c) 2009 Designed by Svetoslav Simov (c) Fontfabric, Inc. All rights reserved.
</metadata>
<defs>
<font id="UniSans-Heavy" horiz-adv-x="588" >
  <font-face 
    font-family="Uni Sans"
    font-weight="900"
    font-stretch="normal"
    units-per-em="1000"
    panose-1="0 0 5 0 0 0 0 0 0 0"
    ascent="769"
    descent="-231"
    x-height="518"
    cap-height="708"
    bbox="-57 -254 1049 997"
    underline-thickness="50"
    underline-position="-200"
    unicode-range="U+0020-FB02"
  />
<missing-glyph horiz-adv-x="601" 
d="M540 700v-700h-529v700h529zM206 562l70 -104q44 67 69 104h-139zM229 349l-8 14l-80 121v-262zM335 363l-8 -14l88 -127v262zM205 139h139q-13 18 -69 102z" />
    <glyph glyph-name="fi" unicode="fi" horiz-adv-x="583" 
d="M354 639q0 45 30.5 70t66.5 24.5t66.5 -25.5t30.5 -69t-30.5 -69t-66.5 -25.5t-66.5 24.5t-30.5 70zM307 706v-145q-41 9 -65.5 -4t-24.5 -39v-27h85v-143h-85v-348h-169v518q0 100 73.5 154.5t185.5 33.5zM536 0h-168v518h168v-518z" />
    <glyph glyph-name="fl" unicode="fl" horiz-adv-x="619" 
d="M612 152v-147q-102 -28 -173.5 30t-71.5 159v514h169v-512q0 -25 20 -38.5t56 -5.5zM307 706v-145q-41 9 -65.5 -4t-24.5 -39v-27h85v-143h-85v-348h-169v518q0 100 73.5 154.5t185.5 33.5z" />
    <glyph glyph-name=".notdef" horiz-adv-x="601" 
d="M540 700v-700h-529v700h529zM206 562l70 -104q44 67 69 104h-139zM229 349l-8 14l-80 121v-262zM335 363l-8 -14l88 -127v262zM205 139h139q-13 18 -69 102z" />
    <glyph glyph-name=".null" horiz-adv-x="0" 
 />
    <glyph glyph-name="nonmarkingreturn" horiz-adv-x="333" 
 />
    <glyph glyph-name="space" unicode=" " horiz-adv-x="182" 
 />
    <glyph glyph-name="exclam" unicode="!" horiz-adv-x="291" 
d="M53 220l-10 492h204l-10 -492h-184zM47 89q0 42 28.5 71.5t70.5 29.5t71.5 -29.5t29.5 -71.5t-29.5 -70.5t-71.5 -28.5t-70.5 28.5t-28.5 70.5z" />
    <glyph glyph-name="quotedbl" unicode="&#x22;" horiz-adv-x="462" 
d="M220 709l-21 -290h-152v290h173zM425 709l-20 -290h-153v290h173z" />
    <glyph glyph-name="numbersign" unicode="#" horiz-adv-x="648" 
d="M503 315h66l-43 -146h-67l-50 -170h-158l49 170h-42l-49 -170h-163l50 170h-74l43 146h74l9 33h-74l45 152h74l47 161h158l-47 -161h42l47 161h165l-48 -161h66l-44 -152h-67zM308 361l-17 -59h59l16 59h-58z" />
    <glyph glyph-name="dollar" unicode="$" horiz-adv-x="570" 
d="M225 -65v64q-123 4 -201 139l128 88q31 -43 73 -49v97q-193 47 -189 221q4 79 57 132t132 70v59h129v-58q54 -7 94 -34t79 -85l-120 -76q-17 30 -53 36v-112q44 -11 76 -26t61 -40.5t42.5 -66.5t10.5 -96q-6 -77 -59 -128t-131 -70v-65h-129zM194 494v-1q-2 -46 38 -59
v114q-38 -21 -38 -54zM386 217v1q2 46 -38 59v-114q38 21 38 54z" />
    <glyph glyph-name="percent" unicode="%" horiz-adv-x="740" 
d="M55 7l492 760l129 -86l-492 -757zM325 541q0 -81 -42.5 -129t-108.5 -48q-72 0 -110 46t-38 133q0 80 41 127.5t107 47.5q73 0 112 -46t39 -131zM206 541q0 60 -33 60q-35 0 -35 -59t35 -59q33 0 33 58zM715 171q0 -81 -42.5 -129t-108.5 -48q-72 0 -110 46t-38 133
q0 80 41 127.5t107 47.5q73 0 112 -46t39 -131zM596 171q0 60 -33 60q-35 0 -35 -59t35 -59q33 0 33 58z" />
    <glyph glyph-name="ampersand" unicode="&#x26;" horiz-adv-x="682" 
d="M522 349l100 -128l-66 -54l133 -166h-210l-48 57q-42 -37 -96.5 -53t-107.5 -7t-98 36t-72.5 77t-27.5 114q0 63 26.5 105t79.5 73q-44 46 -50.5 103t18 103t76 76.5t114.5 28.5q79 -2 135.5 -53t56.5 -131q0 -104 -86 -163l59 -73zM290 573q-19 0 -33 -13t-14 -33
q0 -17 37 -62q49 33 49 65q0 18 -11 30.5t-28 12.5zM327 178l-87 102q-31 -16 -38 -48t11 -54q18 -27 54 -27t60 27z" />
    <glyph glyph-name="quotesingle" unicode="'" horiz-adv-x="256" 
d="M217 708l-15 -290h-155v290h170z" />
    <glyph glyph-name="parenleft" unicode="(" horiz-adv-x="322" 
d="M190 795l118 -77q-247 -370 3 -755l-127 -85q-76 106 -115.5 228.5t-39.5 240.5q0 121 41 240.5t120 207.5z" />
    <glyph glyph-name="parenright" unicode=")" horiz-adv-x="316" 
d="M12 707l114 76q79 -90 120 -203t41 -233q0 -118 -39.5 -239.5t-115.5 -227.5l-120 81q118 189 120 379.5t-120 366.5z" />
    <glyph glyph-name="asterisk" unicode="*" horiz-adv-x="477" 
d="M406 649l47 -159l-112 -14l81 -78l-129 -99l-54 101l-52 -101l-134 97l81 84l-110 13l46 158l102 -48l-15 107h164l-19 -106z" />
    <glyph glyph-name="plus" unicode="+" horiz-adv-x="566" 
d="M202 406v170h169v-170h168v-170h-168v-171h-169v171h-175v170h175z" />
    <glyph glyph-name="comma" unicode="," horiz-adv-x="288" 
d="M251 106l-100 -255h-173l85 255h188z" />
    <glyph glyph-name="hyphen" unicode="-" horiz-adv-x="404" 
d="M358 375v-170h-312v170h312z" />
    <glyph glyph-name="period" unicode="." horiz-adv-x="257" 
d="M29 95q0 42 28.5 70.5t70.5 28.5t71 -28.5t29 -70.5t-29.5 -71.5t-70.5 -29.5q-42 0 -70.5 29.5t-28.5 71.5z" />
    <glyph glyph-name="slash" unicode="/" horiz-adv-x="492" 
d="M472 709l-294 -779l-158 57l295 777z" />
    <glyph glyph-name="zero" unicode="0" horiz-adv-x="596" 
d="M298 -10q-63 0 -119.5 22t-96.5 73t-40 122v293q0 105 77.5 161.5t178.5 56.5q102 0 179 -56.5t77 -161.5v-293q0 -104 -77.5 -160.5t-178.5 -56.5zM298 561q-34 0 -60 -18t-26 -48v-290q0 -29 25.5 -46t60.5 -17q34 0 60 17t26 46v290q0 30 -26.5 48t-59.5 18z" />
    <glyph glyph-name="one" unicode="1" horiz-adv-x="373" 
d="M322 0h-161v475l-68 -47l-94 82l188 198h135v-708z" />
    <glyph glyph-name="two" unicode="2" horiz-adv-x="557" 
d="M164 484l-134 73q43 81 109 121t142 40q111 0 174 -64.5t63 -153.5q0 -116 -88 -198l-156 -148l83 17h160v-170h-456l-45 93l288 324q46 52 22 99q-20 37 -64 38q-60 -1 -98 -71z" />
    <glyph glyph-name="three" unicode="3" horiz-adv-x="540" 
d="M16 118l116 107q38 -60 114 -60q38 0 63.5 16.5t25.5 44.5q0 29 -20 48.5t-57 19.5h-110v143h106q33 0 45.5 32.5t-3.5 54.5q-24 36 -77 31t-86 -44l-104 92q44 54 103.5 84.5t119.5 30.5q163 0 213 -124q14 -37 15.5 -77t-15 -78.5t-50.5 -60.5q50 -25 72.5 -71.5
t22.5 -94.5q0 -99 -77 -160.5t-180 -61.5q-73 0 -135.5 32t-101.5 96z" />
    <glyph glyph-name="four" unicode="4" horiz-adv-x="574" 
d="M543 299v-145h-66v-154h-171v154h-249l-57 105l330 449h147v-409h66zM194 297h125l2 181z" />
    <glyph glyph-name="five" unicode="5" horiz-adv-x="541" 
d="M28 121l127 100q24 -30 57 -42t60.5 -6.5t47.5 26t22 50.5q3 52 -23 78.5t-70 26.5q-71 0 -115 -59h-82v413h420v-157h-277v-80q127 47 224.5 -21t97.5 -197q0 -109 -68.5 -186t-198.5 -77q-64 0 -122.5 32.5t-99.5 98.5z" />
    <glyph glyph-name="six" unicode="6" horiz-adv-x="584" 
d="M528 587l-125 -72q-33 50 -98 50q-38 0 -65.5 -19.5t-27.5 -51.5v-73q50 35 112 38.5t114 -19t87.5 -72t35.5 -113.5v-42q0 -104 -76.5 -163.5t-181.5 -59.5q-107 0 -184.5 59t-77.5 164v282q0 101 79.5 162t184.5 61q73 0 132.5 -33t90.5 -98zM390 207v53q0 27 -28 42
t-61 14.5t-61 -15.5t-28 -41v-53q0 -28 28 -44.5t61 -16.5t61 16.5t28 44.5z" />
    <glyph glyph-name="seven" unicode="7" horiz-adv-x="530" 
d="M23 708h457l48 -96l-273 -612h-192l230 538h-270v170z" />
    <glyph glyph-name="eight" unicode="8" horiz-adv-x="600" 
d="M308 -10h-14q-123 0 -193.5 58t-70.5 165q0 95 95 165q-62 41 -62 127q0 58 23 102t59.5 67t74 33.5t74.5 10.5h14q97 0 164 -54.5t67 -165.5q0 -26 -17 -63t-44 -56q45 -22 68.5 -68t23.5 -88q-2 -111 -67.5 -172t-194.5 -61zM309 572h-15q-26 0 -43.5 -14.5t-21.5 -35
t0.5 -41t23.5 -35t47 -14.5q52 0 72 33.5t1 68.5t-64 38zM293 157h17q56 0 76.5 39.5t-2 78t-71.5 34.5h-23q-48 1 -70 -36t-2 -76t75 -40z" />
    <glyph glyph-name="nine" unicode="9" 
d="M44 125l127 84q37 -59 112 -59q38 0 65.5 19.5t27.5 48.5v73q-50 -36 -112 -40t-114 19.5t-87.5 73t-35.5 113.5v42q0 105 75.5 162t182.5 57t183.5 -57.5t78.5 -161.5v-282q0 -104 -78.5 -165.5t-183.5 -61.5q-78 0 -143.5 34t-97.5 101zM198 505v-53q0 -27 28 -42
t61 -15t61 15.5t28 41.5v53q0 26 -28 41t-61 15.5t-61 -14.5t-28 -42z" />
    <glyph glyph-name="colon" unicode=":" horiz-adv-x="277" 
d="M39 393q0 42 29 70t71 28t70.5 -28t28.5 -70t-28.5 -71.5t-70.5 -29.5q-41 0 -70.5 29.5t-29.5 71.5zM39 106q0 44 28.5 72t71.5 28q42 0 70.5 -28t28.5 -72q0 -42 -28.5 -71t-70.5 -29t-71 29t-29 71z" />
    <glyph glyph-name="semicolon" unicode=";" horiz-adv-x="292" 
d="M45 382q0 42 27.5 70t72.5 28q43 0 70.5 -28t27.5 -70q0 -43 -28 -72t-70 -29q-44 0 -72 29t-28 72zM255 127l-92 -255h-156l61 255h187z" />
    <glyph glyph-name="less" unicode="&#x3c;" horiz-adv-x="445" 
d="M391 383l-161 -91q75 -40 161 -87v-199l-366 232v109l366 235v-199z" />
    <glyph glyph-name="equal" unicode="=" horiz-adv-x="529" 
d="M481 474v-155h-434v155h434zM481 271v-156h-434v156h434z" />
    <glyph glyph-name="greater" unicode="&#x3e;" horiz-adv-x="445" 
d="M420 347v-109l-367 -232v199l169 87l-169 91v199z" />
    <glyph glyph-name="question" unicode="?" horiz-adv-x="491" 
d="M123 497l-102 87q29 56 74.5 89.5t94 41.5t98.5 -4t89 -40.5t63.5 -75t24.5 -101.5q0 -72 -44 -129t-128 -68l-10 -117h-150l-10 228q64 -27 115 -3.5t51 78.5q0 34 -33 52t-73.5 8t-59.5 -46zM117 65q0 39 26 64.5t65 25.5t64.5 -25.5t25.5 -64.5q0 -38 -26 -64.5
t-64 -26.5t-64.5 26.5t-26.5 64.5z" />
    <glyph glyph-name="at" unicode="@" horiz-adv-x="760" 
d="M500 538l72 -18q-25 34 -73 52t-95 18q-113 0 -181 -84t-68 -191q0 -121 84 -182.5t209 -24.5l27 -96q-67 -21 -125 -21q-137 0 -230.5 98t-85.5 252q7 92 51 174.5t126 137.5t184 55q56 0 105 -13q65 -18 120.5 -60.5t83.5 -94.5q45 -88 26 -197t-93 -173
q-56 -51 -133 -51q-43 0 -73 21q-31 -19 -71 -19q-79 0 -128 55t-49 138q0 96 57 169.5t137 73.5q57 0 105 -40zM589 495l-47 -256q37 16 57.5 61.5t19 95t-20.5 81.5zM375 244q29 0 45 16l32 147q-53 56 -100 17q-37 -31 -40 -90q-1 -45 23 -74q15 -16 40 -16z" />
    <glyph glyph-name="A" unicode="A" horiz-adv-x="648" 
d="M404 708l253 -708h-192l-46 142h-189l-44 -142h-192l247 708h163zM270 301h106l-49 207h-5z" />
    <glyph glyph-name="B" unicode="B" horiz-adv-x="624" 
d="M570 492q0 -29 -19 -63t-54 -52q65 -32 86.5 -87t13.5 -107q-30 -183 -252 -183h-289v708h284q104 0 168 -58t62 -158zM236 431h104q31 0 49 19.5t18.5 43.5t-17.5 43.5t-50 19.5h-104v-126zM236 157h104q38 0 59.5 22.5t21.5 50t-21.5 50t-59.5 22.5h-104v-145z" />
    <glyph glyph-name="C" unicode="C" horiz-adv-x="582" 
d="M417 221l156 -72q-28 -55 -72.5 -92t-90 -52t-92.5 -15q-113 0 -196 64t-83 178v244q0 77 41.5 133t104.5 82.5t136 26.5q75 0 142.5 -38t106.5 -125l-146 -59q-23 42 -73.5 53.5t-91.5 -10t-41 -63.5v-244q0 -41 41.5 -62.5t90.5 -8t67 59.5z" />
    <glyph glyph-name="D" unicode="D" horiz-adv-x="636" 
d="M56 708h265q115 0 195 -60.5t80 -176.5v-238q0 -116 -79.5 -174.5t-195.5 -58.5h-265v708zM236 168h91q89 0 89 77v221q0 75 -89 75h-91v-373z" />
    <glyph glyph-name="E" unicode="E" 
d="M237 540v-110h287v-155h-287v-106h312v-169h-493v708h493v-168h-312z" />
    <glyph glyph-name="F" unicode="F" horiz-adv-x="576" 
d="M237 538v-127h273v-167h-273v-244h-181v708h493v-170h-312z" />
    <glyph glyph-name="G" unicode="G" horiz-adv-x="623" 
d="M565 567l-150 -69q-19 45 -67.5 57.5t-89 -10t-40.5 -67.5v-243q0 -40 32.5 -62t71 -22t71 22.5t32.5 61.5v26h-113v150h285v-176q0 -116 -82 -180.5t-196 -64.5t-197 65t-83 180v243q0 113 83 176.5t197 63.5q49 0 94 -13.5t87 -48.5t65 -89z" />
    <glyph glyph-name="H" unicode="H" horiz-adv-x="676" 
d="M236 267v-267h-180v708h180v-268h204v268h180v-708h-180v267h-204z" />
    <glyph glyph-name="I" unicode="I" horiz-adv-x="291" 
d="M235 708v-708h-179v708h179z" />
    <glyph glyph-name="J" unicode="J" horiz-adv-x="587" 
d="M3 208l169 35q8 -40 36.5 -60t64.5 -20q34 0 60 19t26 49v315h-161v162h338v-477q0 -111 -80.5 -176t-189.5 -65q-63 0 -118 22.5t-95.5 73.5t-49.5 122z" />
    <glyph glyph-name="K" unicode="K" horiz-adv-x="640" 
d="M236 446l192 262h223l-280 -342l279 -366h-227l-181 253l-6 -8v-245h-180v708h180v-262z" />
    <glyph glyph-name="L" unicode="L" horiz-adv-x="538" 
d="M56 0v708h180v-531h288v-177h-468z" />
    <glyph glyph-name="M" unicode="M" horiz-adv-x="769" 
d="M56 0v708h179l149 -346l150 346h179v-708h-180l1 204l11 143l-6 1l-93 -243h-123l-95 243l-5 -1l12 -143v-204h-179z" />
    <glyph glyph-name="N" unicode="N" horiz-adv-x="676" 
d="M56 0v708h170l171 -302l60 -142l5 1l-20 122v321h178v-708h-181l-160 279l-62 142l-5 -1l23 -137v-283h-179z" />
    <glyph glyph-name="O" unicode="O" horiz-adv-x="665" 
d="M39 233v242q0 115 86.5 179t206.5 64t207 -64t87 -179v-242q0 -115 -86.5 -179t-206.5 -64t-207 64t-87 179zM218 475v-242q0 -37 34 -57t81 -20q46 0 80 20.5t34 56.5v242q0 39 -34.5 59.5t-82.5 20.5q-45 0 -78.5 -21.5t-33.5 -58.5z" />
    <glyph glyph-name="P" unicode="P" horiz-adv-x="618" 
d="M56 0v708h283q122 0 190.5 -74t68.5 -176t-68.5 -176.5t-189.5 -74.5h-105v-207h-179zM235 366h104q38 0 60 27.5t22 60t-22 60t-60 27.5h-104v-175z" />
    <glyph glyph-name="Q" unicode="Q" horiz-adv-x="665" 
d="M39 233v242q0 115 86.5 179t206.5 64t207 -64t87 -179v-242q0 -70 -36 -125l55 -56l-99 -89l-58 60q-67 -33 -155 -33q-120 0 -207 64t-87 179zM218 475v-242q0 -47 46.5 -71t92.5 -5l-58 60l99 86l49 -50v222q0 39 -36 60t-78.5 21t-78.5 -22t-36 -59z" />
    <glyph glyph-name="R" unicode="R" horiz-adv-x="646" 
d="M433 0l-164 225h-32v-225h-181v708h283q117 0 188 -57t75 -176q0 -189 -139 -232l193 -243h-223zM237 379h105q53 0 75 40.5t0 81t-75 40.5h-105v-162z" />
    <glyph glyph-name="S" unicode="S" horiz-adv-x="564" 
d="M22 118l113 106q21 -25 51 -41.5t60 -22t57 -3t45 16.5t19 36q2 28 -34.5 46t-86.5 25q-94 16 -156 72.5t-62 152.5q0 99 75.5 155.5t180.5 56.5q149 0 242 -113l-117 -90q-27 29 -62.5 44t-66 14t-52.5 -17.5t-23 -46.5q4 -47 94 -66q43 -8 75 -17.5t67 -27.5
t56.5 -42.5t34.5 -64t11 -89.5q-4 -96 -89 -154t-191 -58q-65 0 -128.5 33t-112.5 95z" />
    <glyph glyph-name="T" unicode="T" horiz-adv-x="585" 
d="M571 539h-188v-539h-181v539h-188v170h557v-170z" />
    <glyph glyph-name="U" unicode="U" horiz-adv-x="667" 
d="M233 708v-471q0 -41 31.5 -64t70 -23t70 23.5t31.5 63.5v471h181v-471q0 -79 -42 -137.5t-104.5 -84.5t-136 -26t-136 26t-104.5 84.5t-42 137.5v471h181z" />
    <glyph glyph-name="V" unicode="V" horiz-adv-x="656" 
d="M361 362l112 347h192l-255 -708h-164l-255 708h192l111 -346l32 -168h3z" />
    <glyph glyph-name="W" unicode="W" horiz-adv-x="915" 
d="M644 367l86 341h185l-204 -708h-166l-63 196l-25 162h-3l-27 -161l-56 -197h-166l-205 708h186l84 -339l18 -150h5l17 149l79 248h136l73 -249l23 -148h3z" />
    <glyph glyph-name="X" unicode="X" horiz-adv-x="656" 
d="M327 466l124 242h208l-198 -355l198 -353h-208l-124 241l-121 -241h-209l199 353l-199 355h209z" />
    <glyph glyph-name="Y" unicode="Y" horiz-adv-x="655" 
d="M417 0h-179v279l-247 429h208l128 -260l128 260h210l-248 -429v-279z" />
    <glyph glyph-name="Z" unicode="Z" horiz-adv-x="605" 
d="M36 708h515l38 -60l-305 -485l288 2v-165h-525l-33 66l306 476h-284v166z" />
    <glyph glyph-name="bracketleft" unicode="[" horiz-adv-x="328" 
d="M221 544v-479h69v-165h-240v810h240v-166h-69z" />
    <glyph glyph-name="backslash" unicode="\" horiz-adv-x="503" 
d="M325 -58l-306 769l161 56l304 -771z" />
    <glyph glyph-name="bracketright" unicode="]" horiz-adv-x="328" 
d="M105 63v484h-67v163h240v-810h-240v163h67z" />
    <glyph glyph-name="asciicircum" unicode="^" horiz-adv-x="652" 
d="M371 707l254 -303h-207l-97 115l-95 -115h-200l247 303h98z" />
    <glyph glyph-name="underscore" unicode="_" horiz-adv-x="593" 
d="M549 34v-169h-504v169h504z" />
    <glyph glyph-name="grave" unicode="`" horiz-adv-x="406" 
d="M306 756h-155l-131 166h186z" />
    <glyph glyph-name="a" unicode="a" horiz-adv-x="483" 
d="M218 323q37 0 60 -4q4 74 -70 74q-47 0 -90 -37l-78 79q69 93 196 93q87 0 146 -47.5t59 -137.5v-318q-98 -35 -200 -35q-109 0 -163.5 44.5t-54.5 127.5q0 70 50.5 115.5t144.5 45.5zM276 120v89q-35 10 -65 -2.5t-30 -43.5q0 -36 33 -45t62 2z" />
    <glyph glyph-name="b" unicode="b" horiz-adv-x="507" 
d="M217 708v-192q33 12 61 12q80 0 137 -47.5t57 -136.5v-165q0 -99 -59 -144t-153 -45q-100 0 -213 43v675h170zM217 379v-252q15 -6 33 -6q24 0 39.5 11.5t15.5 34.5v174q0 48 -53 48q-12 0 -35 -10z" />
    <glyph glyph-name="c" unicode="c" horiz-adv-x="462" 
d="M303 175l146 -33q-25 -79 -82.5 -115.5t-119.5 -36.5q-88 0 -150 46t-62 139v163q0 90 63.5 140t148.5 50q62 0 116 -33t76 -109l-142 -44q-10 44 -52 44q-18 0 -31.5 -12t-13.5 -32v-166q0 -20 13.5 -32t33.5 -12q44 0 56 43z" />
    <glyph glyph-name="d" unicode="d" horiz-adv-x="508" 
d="M461 708v-676q-111 -42 -213 -42q-94 0 -153 42.5t-59 139.5v173q0 82 57 132.5t138 50.5q31 0 60 -9v189h170zM291 127v256q-19 7 -38 7q-21 0 -35.5 -12.5t-14.5 -34.5v-173q0 -24 16 -36t40 -12q15 0 32 5z" />
    <glyph glyph-name="e" unicode="e" horiz-adv-x="479" 
d="M189 199v-19q0 -28 21 -43.5t52 -15.5q50 0 79 35l94 -76q-64 -90 -185 -90q-87 0 -151 50t-64 140v162q0 91 63 138.5t150 47.5q84 0 143 -49t59 -140v-140h-261zM304 310v37q0 22 -16.5 33.5t-39.5 11.5t-40 -12.5t-17 -35.5v-34h113z" />
    <glyph glyph-name="f" unicode="f" horiz-adv-x="324" 
d="M311 712v-145q-41 9 -67.5 -4.5t-26.5 -39.5v-32h90v-140h-90v-351h-169v524q0 90 55 142t148 52q31 0 60 -6z" />
    <glyph glyph-name="g" unicode="g" horiz-adv-x="504" 
d="M37 164v181q0 50 18.5 87t51.5 57t71.5 29.5t84.5 9.5q102 0 194 -44v-470q0 -119 -56 -176t-156 -57q-105 0 -182 61l63 110q46 -28 94 -28q79 0 79 78q-31 -12 -78 -12q-76 0 -130 44t-54 130zM294 132v259q-14 10 -36 10q-25 0 -41 -12.5t-16 -37.5v-183
q0 -23 15.5 -35t37.5 -12q23 0 40 11z" />
    <glyph glyph-name="h" unicode="h" horiz-adv-x="514" 
d="M216 708v-190q31 10 68 10q82 0 134.5 -50.5t52.5 -140.5v-337h-168v338q0 42 -50 42q-22 0 -37 -9v-371h-168v708h168z" />
    <glyph glyph-name="i" unicode="i" horiz-adv-x="264" 
d="M34 639q0 45 30.5 70t66.5 24.5t66.5 -25.5t30.5 -69t-30.5 -69t-66.5 -25.5t-66.5 24.5t-30.5 70zM48 518h168v-518h-168v518z" />
    <glyph glyph-name="j" unicode="j" horiz-adv-x="265" 
d="M35 641q0 45 30.5 70t66.5 24.5t66.5 -25.5t30.5 -69t-30.5 -69t-66.5 -25.5t-66.5 24.5t-30.5 70zM-28 -191v147q35 -9 55.5 8t20.5 43v511h169v-513q0 -102 -71.5 -163t-173.5 -33z" />
    <glyph glyph-name="k" unicode="k" horiz-adv-x="509" 
d="M209 357l111 161h190l-188 -251l187 -267h-198l-102 166v-166h-161v708h161v-351z" />
    <glyph glyph-name="l" unicode="l" horiz-adv-x="295" 
d="M288 145v-147q-32 -8 -57 -8q-84 0 -136 52.5t-52 144.5v521h169v-519q0 -47 51 -47q11 0 25 3z" />
    <glyph glyph-name="m" unicode="m" horiz-adv-x="735" 
d="M47 0v476q65 52 173 52q99 0 152 -53q48 53 125 53q86 0 140.5 -47.5t54.5 -139.5v-341h-168v343q0 15 -10.5 23t-24.5 8q-15 0 -26.5 -8t-11.5 -22v-344h-163v346q0 29 -38 29q-24 0 -37 -13v-362h-166z" />
    <glyph glyph-name="n" unicode="n" horiz-adv-x="512" 
d="M47 0v486q86 42 189 42q100 0 166.5 -47t66.5 -148v-333h-168v332q0 48 -50 48q-20 0 -35 -6v-374h-169z" />
    <glyph glyph-name="o" unicode="o" horiz-adv-x="493" 
d="M35 173v164q0 90 62.5 140.5t148.5 50.5q85 0 148.5 -50.5t63.5 -140.5v-164q0 -87 -62.5 -135t-149.5 -48q-86 0 -148.5 49t-62.5 134zM246 378q-17 0 -31.5 -10.5t-14.5 -27.5v-169q0 -17 14 -28t32 -11t32 11t14 28v169q0 17 -14.5 27.5t-31.5 10.5z" />
    <glyph glyph-name="p" unicode="p" horiz-adv-x="508" 
d="M47 -186v670q116 44 214 44q211 0 211 -178v-171q0 -86 -57 -137.5t-135 -51.5q-34 0 -63 10v-186h-170zM217 389v-252q16 -9 39 -7q20 1 34.5 12.5t14.5 35.5v177q0 20 -15 30.5t-37 10.5q-18 0 -36 -7z" />
    <glyph glyph-name="q" unicode="q" horiz-adv-x="508" 
d="M291 -186v185q-31 -9 -64 -9q-81 0 -136 48.5t-55 134.5v171q0 52 18 89t50 57t68.5 29t81.5 9q105 0 207 -46v-668h-170zM291 135v250q-16 9 -38 9q-20 0 -35 -10.5t-15 -30.5v-174q0 -27 14.5 -39t36.5 -12q18 0 37 7z" />
    <glyph glyph-name="r" unicode="r" horiz-adv-x="353" 
d="M251 528q35 0 87 -13v-147q-40 20 -83 5.5t-43 -55.5v-318h-169v326q0 101 57.5 151.5t150.5 50.5z" />
    <glyph glyph-name="s" unicode="s" horiz-adv-x="426" 
d="M24 74l75 100q57 -43 109 -38q17 1 24 13t-1 24t-29 15q-170 23 -170 174q0 63 48.5 114.5t132.5 51.5q99 0 179 -67l-82 -102q-59 29 -91 23q-12 -2 -17.5 -14.5t3.5 -23.5q14 -14 39 -20q71 -18 114 -52.5t43 -103.5q0 -84 -56 -131t-136 -47q-113 0 -185 84z" />
    <glyph glyph-name="t" unicode="t" horiz-adv-x="336" 
d="M313 143v-134q-45 -19 -96 -19q-76 0 -124.5 50t-48.5 146v449h158l9 -117h89v-143h-89v-179q0 -60 61 -60q15 0 41 7z" />
    <glyph glyph-name="u" unicode="u" horiz-adv-x="513" 
d="M466 518v-486q-82 -42 -187 -42q-103 0 -169 46t-66 149v333h168v-332q0 -24 15 -36t38 -12q17 0 32 6v374h169z" />
    <glyph glyph-name="v" unicode="v" horiz-adv-x="511" 
d="M270 269l64 249h181l-185 -518h-150l-183 518h179l65 -250l15 -102h2z" />
    <glyph glyph-name="w" unicode="w" horiz-adv-x="754" 
d="M507 185h3l16 108l54 225h171l-151 -518h-173l-34 127l-14 87h-3l-16 -87l-34 -127h-173l-150 518h170l54 -225l16 -108h3l58 323h145z" />
    <glyph glyph-name="x" unicode="x" horiz-adv-x="525" 
d="M238 94l-54 -94h-180l158 259l-159 259h183l53 -91l21 -65h1l19 67l52 89h188l-162 -257q67 -95 166 -261h-192l-57 95l-17 58h-2z" />
    <glyph glyph-name="y" unicode="y" horiz-adv-x="514" 
d="M466 518v-506q0 -113 -58 -173t-157 -60q-105 0 -187 70l67 104q51 -31 95 -31q40 0 59.5 21.5t19.5 58.5q-31 -12 -78 -12q-76 0 -129.5 44t-53.5 130v354h163v-343q0 -23 15.5 -35t37.5 -12q23 0 40 11v379h166z" />
    <glyph glyph-name="z" unicode="z" horiz-adv-x="457" 
d="M36 518h364l33 -47l-183 -321h176v-150h-369l-38 52l182 316h-165v150z" />
    <glyph glyph-name="braceleft" unicode="{" horiz-adv-x="351" 
d="M254 547v-129q0 -34 -20.5 -70.5t-51.5 -47.5q34 -12 53 -46t19 -73v-118h59v-163h-90q-79 0 -109.5 38.5t-30.5 115.5v111q0 53 -54 53v163q54 0 54 52v122q0 75 34 115t114 40h82v-163h-59z" />
    <glyph glyph-name="bar" unicode="|" horiz-adv-x="269" 
d="M219 -135h-169v859h169v-859z" />
    <glyph glyph-name="braceright" unicode="}" horiz-adv-x="344" 
d="M39 708h69q50 0 81.5 -10.5t46.5 -33t19.5 -47t4.5 -64.5v-120q0 -52 55 -52v-163q-55 0 -55 -53v-119q0 -79 -32 -116.5t-122 -37.5h-67v163h51v126q-2 38 21.5 72.5t55.5 47.5q-31 16 -55.5 49.5t-21.5 67.5v127h-51v163z" />
    <glyph glyph-name="asciitilde" unicode="~" horiz-adv-x="488" 
d="M362 391l102 -85q-73 -123 -161 -123q-24 0 -50.5 14t-42.5 26t-35.5 7.5t-38.5 -35.5l-111 93q78 114 156 114q23 0 46 -11.5t38.5 -23t31.5 -18.5t32 2.5t33 39.5z" />
    <glyph glyph-name="uni00A0" unicode="&#xa0;" horiz-adv-x="182" 
 />
    <glyph glyph-name="exclamdown" unicode="&#xa1;" horiz-adv-x="267" 
d="M233 416q0 -44 -28.5 -72t-71.5 -28q-44 0 -71 28t-27 72q0 43 27 70.5t71 27.5q43 0 71.5 -28t28.5 -70zM219 291v-475h-171v475h171z" />
    <glyph glyph-name="cent" unicode="&#xa2;" horiz-adv-x="478" 
d="M318 587v-73q96 -29 126 -132l-142 -44q-4 18 -15 29.5t-24.5 13.5t-27 -1t-22 -14.5t-8.5 -27.5v-158q0 -26 21.5 -38t47 -2t34.5 39l146 -33q-35 -108 -136 -142v-73h-128v70q-65 14 -107.5 62t-42.5 120v151q0 72 42 118.5t108 63.5v71h128z" />
    <glyph glyph-name="sterling" unicode="&#xa3;" horiz-adv-x="530" 
d="M501 627l-99 -95q-30 34 -73 21t-43 -60v-70h168v-153h-168v-112h206v-158h-455v158h78v112h-78v153h78v75q0 38 11 73.5t34.5 67.5t67 51.5t102.5 19.5q42 0 88.5 -20.5t82.5 -62.5z" />
    <glyph glyph-name="currency" unicode="&#xa4;" horiz-adv-x="616" 
d="M34 171l46 49q-24 50 -24 111q0 58 24 111l-48 47l114 122l53 -53q51 23 108 23q54 0 109 -25l54 54l113 -121l-49 -48q25 -51 25 -110t-24 -112l48 -46l-113 -121l-53 53q-44 -24 -110 -24q-58 0 -108 23q-4 -4 -15.5 -15t-17.5 -17q-7 -7 -21 -19zM208 330
q0 -41 29.5 -70t69.5 -29t69 29t29 70q0 42 -29.5 71.5t-68.5 29.5q-40 0 -69.5 -29.5t-29.5 -71.5z" />
    <glyph glyph-name="yen" unicode="&#xa5;" horiz-adv-x="712" 
d="M563 361l-23 -108h-95v-31h118l-23 -108h-95v-114h-179v114h-109l22 108h87v31h-109l22 108h40l-200 347h208l128 -270l128 270h210l-201 -347h71z" />
    <glyph glyph-name="brokenbar" unicode="&#xa6;" horiz-adv-x="274" 
d="M222 313h-170v347h170v-347zM222 -110h-170v377h170v-377z" />
    <glyph glyph-name="section" unicode="&#xa7;" horiz-adv-x="475" 
d="M36 37l117 78q11 -16 26 -26t30 -13t28.5 -0.5t21.5 10.5t8 19q0 16 -24 32t-58.5 32t-69.5 36t-59 52.5t-24 73.5q0 72 50 106q-32 38 -32 87q0 84 59 134.5t139 50.5q99 0 169 -106l-118 -71q-14 22 -33 26t-32 -6.5t-13 -27.5q0 -18 23 -32.5t55.5 -28t65.5 -31
t56 -50t23 -77.5q0 -61 -48 -100q38 -47 38 -106q0 -73 -59.5 -127t-141.5 -54q-56 0 -108.5 30.5t-88.5 88.5zM209 305l80 -38q24 26 0.5 50t-94.5 53q-25 -14 -19.5 -34t33.5 -31z" />
    <glyph glyph-name="dieresis" unicode="&#xa8;" horiz-adv-x="510" 
d="M50 834q0 36 24.5 60.5t59.5 24.5t59.5 -24.5t24.5 -60.5q0 -35 -24.5 -59t-59.5 -24t-59.5 24t-24.5 59zM291 834q0 36 24 60.5t60 24.5t60.5 -24.5t24.5 -60.5q0 -35 -24.5 -59t-60.5 -24q-37 0 -60.5 23.5t-23.5 59.5z" />
    <glyph glyph-name="copyright" unicode="&#xa9;" horiz-adv-x="778" 
d="M30 351q0 148 106 253.5t254 105.5t253 -105.5t105 -253.5t-105 -253.5t-253 -105.5t-254 105.5t-106 253.5zM133 351q0 -107 75 -182t182 -75q106 0 180.5 75t74.5 182t-74.5 181.5t-180.5 74.5q-107 0 -182 -74.5t-75 -181.5zM198 293v111q0 80 56.5 123t135.5 43
q63 0 117 -31.5t72 -95.5l-94 -36q-10 32 -39 48.5t-59.5 15t-56 -19t-28.5 -46.5v-113q3 -29 28.5 -46.5t56 -19t59.5 15t39 48.5l96 -36q-18 -64 -72.5 -95.5t-118.5 -31.5q-79 0 -135.5 43t-56.5 123z" />
    <glyph glyph-name="ordfeminine" unicode="&#xaa;" horiz-adv-x="372" 
d="M93 574l-56 52q39 58 109.5 73t126.5 -21.5t56 -110.5v-233q-54 -15 -102 -19t-95 3.5t-74.5 39.5t-27.5 88q0 42 20 70.5t49.5 38t62.5 12t59 -7.5q-2 38 -50 41t-78 -26zM214 405v66q-22 9 -48 2.5t-28 -30.5q0 -29 27.5 -38t48.5 0z" />
    <glyph glyph-name="guillemotleft" unicode="&#xab;" horiz-adv-x="612" 
d="M179 524l145 -86l-103 -151l104 -153l-147 -86l-159 239zM437 524l145 -86l-104 -153l106 -150l-147 -87l-160 239z" />
    <glyph glyph-name="logicalnot" unicode="&#xac;" horiz-adv-x="577" 
d="M40 260v169h487v-301h-168v132h-319z" />
    <glyph glyph-name="uni00AD" unicode="&#xad;" horiz-adv-x="408" 
d="M361 332v-171h-313v171h313z" />
    <glyph glyph-name="registered" unicode="&#xae;" horiz-adv-x="778" 
d="M30 351q0 148 106 253.5t254 105.5t253 -105.5t105 -253.5t-105 -253.5t-253 -105.5t-254 105.5t-106 253.5zM137 351q0 -105 74.5 -180t180.5 -75q104 0 178.5 75t74.5 180t-74.5 179.5t-178.5 74.5q-106 0 -180.5 -74.5t-74.5 -179.5zM244 169v358h162q75 0 112 -49
t22.5 -106t-69.5 -79l86 -124h-116l-78 117h-21v-117h-98zM342 366h61q25 0 35 19t-0.5 38t-35.5 19h-60v-76z" />
    <glyph glyph-name="overscore" unicode="&#xaf;" horiz-adv-x="397" 
d="M50 758v134h297v-134h-297z" />
    <glyph glyph-name="degree" unicode="&#xb0;" horiz-adv-x="377" 
d="M189 392q-68 0 -116.5 48.5t-48.5 116.5q0 69 48 116.5t117 47.5q68 0 116 -47.5t48 -116.5q0 -68 -48.5 -116.5t-115.5 -48.5zM189 507q22 0 36 14t14 34q0 21 -14.5 36.5t-35.5 15.5t-35.5 -15.5t-14.5 -36.5q0 -20 14 -34t36 -14z" />
    <glyph glyph-name="plusminus" unicode="&#xb1;" horiz-adv-x="539" 
d="M183 520v132h170v-132h141v-170h-141v-131h-170v131h-138v170h138zM495 181v-168h-451v168h451z" />
    <glyph glyph-name="twosuperior" unicode="&#xb2;" horiz-adv-x="398" 
d="M126 532l-92 79q54 87 154 87q72 0 117 -45t45 -107q0 -67 -52 -113l-59 -56h119v-131h-301l-28 76l155 176q35 40 16 62q-15 18 -44 3q-17 -10 -30 -31z" />
    <glyph glyph-name="threesuperior" unicode="&#xb3;" horiz-adv-x="374" 
d="M132 532h50q19 0 22 21q3 25 -18 33l-16 2q-31 -1 -51 -25l-76 64q33 35 60 51.5t64 18.5q56 2 100.5 -31t50 -80t-39.5 -95q40 -18 55 -51.5t6.5 -68.5t-33.5 -64q-37 -42 -95 -53t-112 13.5t-79 76.5l91 57q11 -20 35 -26.5t43.5 2.5t19.5 30q0 10 -7.5 18.5t-18.5 6.5
h-51v100z" />
    <glyph glyph-name="acute" unicode="&#xb4;" horiz-adv-x="386" 
d="M386 922l-131 -166h-155l100 166h186z" />
    <glyph glyph-name="mu" unicode="&#xb5;" horiz-adv-x="528" 
d="M336 -1l-6 38q-25 -38 -58 -38t-54 35v-206h-171v688h171v-310q0 -31 22.5 -44.5t45 -1t22.5 44.5v311h172l2 -518z" />
    <glyph glyph-name="paragraph" unicode="&#xb6;" horiz-adv-x="661" 
d="M228 -83v301q-97 14 -151 81.5t-54 154.5q0 98 64.5 168.5t180.5 70.5h336v-776h-168v614h-40v-614h-168z" />
    <glyph glyph-name="middot" unicode="&#xb7;" horiz-adv-x="264" 
d="M33 303q0 43 28 72t72 29q42 0 70 -29.5t28 -71.5t-27.5 -70t-70.5 -28q-45 0 -72.5 27.5t-27.5 70.5z" />
    <glyph glyph-name="cedilla" unicode="&#xb8;" horiz-adv-x="385" 
d="M293 40l-32 -71q38 -10 58.5 -36.5t18 -57.5t-17.5 -60.5t-48.5 -49t-75.5 -19.5q-83 0 -146 51l32 86q22 -16 45 -24.5t42 -5.5t24 21t-16.5 33.5t-59.5 18.5l51 114h125z" />
    <glyph glyph-name="onesuperior" unicode="&#xb9;" horiz-adv-x="291" 
d="M58 500l-50 70l126 137h107v-441h-134v262z" />
    <glyph glyph-name="ordmasculine" unicode="&#xba;" horiz-adv-x="410" 
d="M205 298q-69 0 -120.5 39.5t-51.5 109.5v120q0 70 51.5 109.5t120.5 39.5t120.5 -39.5t51.5 -109.5v-120q0 -70 -51.5 -109.5t-120.5 -39.5zM168 567v-120q0 -21 18.5 -30t37 -0.5t18.5 30.5v119q0 22 -18.5 31t-37 0t-18.5 -30z" />
    <glyph glyph-name="guillemotright" unicode="&#xbb;" horiz-adv-x="602" 
d="M176 49l-148 85l105 153l-103 151l144 87l161 -238zM424 48l-145 87l103 152l-104 152l147 85l159 -237z" />
    <glyph glyph-name="onequarter" unicode="&#xbc;" horiz-adv-x="830" 
d="M659 649l-422 -694l-117 70l422 694zM254 713v-441h-134v262l-49 -28l-50 70l126 137h107zM648 468h113v-264h36v-117h-36v-87h-134v87h-161l-58 90zM555 200h84l2 93l-4 1z" />
    <glyph glyph-name="onehalf" unicode="&#xbd;" horiz-adv-x="857" 
d="M666 649l-423 -694l-115 71l422 693zM254 713v-441h-134v262l-49 -28l-50 70l126 137h107zM598 280l-91 76q54 84 152 84q72 0 116 -43.5t44 -103.5q0 -66 -51 -109l-59 -54h112v-127h-291l-28 74l153 170q34 37 16 58q-15 19 -43 5q-18 -11 -30 -30z" />
    <glyph glyph-name="threequarters" unicode="&#xbe;" horiz-adv-x="860" 
d="M717 649l-422 -694l-113 71l422 693zM194 438h-54v103h53q18 0 22 21q4 24 -17 34q-8 4 -18 3q-32 -1 -53 -26l-80 66q33 36 62 53t68 19q44 2 82.5 -18t59 -50.5t15.5 -70t-41 -73.5q41 -19 57 -54t7.5 -70.5t-34.5 -64.5q-40 -44 -101 -55.5t-117 14t-82 79.5l95 58
q11 -21 36.5 -27.5t46 3.5t20.5 30q0 10 -7.5 19t-19.5 7zM458 171l232 281h105v-255h35v-113h-35v-84h-118v84h-163zM679 284l-79 -91h81l2 90z" />
    <glyph glyph-name="questiondown" unicode="&#xbf;" horiz-adv-x="487" 
d="M372 435q0 -39 -26 -64.5t-65 -25.5t-64.5 25.5t-25.5 64.5q0 38 26 64.5t64 26.5t64.5 -26.5t26.5 -64.5zM366 3l102 -87q-30 -55 -75.5 -88.5t-94 -41.5t-98.5 3.5t-88.5 40t-63 75t-24.5 101.5q0 72 44 129t128 68l10 113h150l10 -224q-64 26 -115 3t-51 -78
q0 -35 33 -53t73.5 -8t59.5 47z" />
    <glyph glyph-name="Agrave" unicode="&#xc0;" horiz-adv-x="648" 
d="M426 756h-155l-131 166h186zM404 708l253 -708h-192l-46 142h-189l-44 -142h-192l247 708h163zM270 301h106l-49 207h-5z" />
    <glyph glyph-name="Aacute" unicode="&#xc1;" horiz-adv-x="648" 
d="M507 922l-131 -166h-155l100 166h186zM404 708l253 -708h-192l-46 142h-189l-44 -142h-192l247 708h163zM270 301h106l-49 207h-5z" />
    <glyph glyph-name="Acircumflex" unicode="&#xc2;" horiz-adv-x="648" 
d="M382 924l150 -168h-162l-46 52l-44 -52h-169l154 168h117zM404 708l253 -708h-192l-46 142h-189l-44 -142h-192l247 708h163zM270 301h106l-49 207h-5z" />
    <glyph glyph-name="Atilde" unicode="&#xc3;" horiz-adv-x="648" 
d="M219 749l-87 49q22 121 127 118q16 0 35 -7.5t34 -15.5t29.5 -12t27 3t21.5 28l91 -52q-14 -56 -40.5 -85t-63.5 -28q-25 0 -55 11t-48 19.5t-37.5 3.5t-33.5 -32zM404 708l253 -708h-192l-46 142h-189l-44 -142h-192l247 708h163zM270 301h106l-49 207h-5z" />
    <glyph glyph-name="Adieresis" unicode="&#xc4;" horiz-adv-x="648" 
d="M119 834q0 36 24.5 60.5t59.5 24.5t59.5 -24.5t24.5 -60.5q0 -35 -24.5 -59t-59.5 -24t-59.5 24t-24.5 59zM360 834q0 36 24 60.5t60 24.5t60.5 -24.5t24.5 -60.5q0 -35 -24.5 -59t-60.5 -24t-60 23.5t-24 59.5zM404 708l253 -708h-192l-46 142h-189l-44 -142h-192
l247 708h163zM270 301h106l-49 207h-5z" />
    <glyph glyph-name="Aring" unicode="&#xc5;" horiz-adv-x="648" 
d="M465 0l-46 142h-189l-44 -142h-192l240 688q-40 37 -40 93q0 53 38 91.5t93 38.5q53 0 90.5 -39.5t37.5 -91.5q0 -55 -41 -93l245 -687h-192zM325 819q-17 0 -27.5 -11.5t-10.5 -28.5q0 -13 10.5 -24t27.5 -11q16 0 26 9t10 26q0 16 -10.5 28t-25.5 12zM327 508h-5
l-52 -207h106z" />
    <glyph glyph-name="AE" unicode="&#xc6;" horiz-adv-x="834" 
d="M794 532h-245v-93h220v-173h-220v-95h245v-171h-415v192h-108l-69 -192h-215l302 708h505v-176zM316 345h72l4 180h-8z" />
    <glyph glyph-name="Ccedilla" unicode="&#xc7;" horiz-adv-x="582" 
d="M417 221l156 -72q-59 -117 -187 -151l-13 -29q38 -10 58.5 -36.5t18 -57.5t-17.5 -60.5t-48.5 -49t-75.5 -19.5q-83 0 -146 51l32 86q22 -16 45 -24.5t42 -5.5t24 21t-16.5 33.5t-59.5 18.5l31 69q-94 15 -157.5 77t-63.5 160v244q0 77 41.5 133t104.5 82.5t136 26.5
q75 0 142.5 -38t106.5 -125l-146 -59q-23 42 -73.5 53.5t-91.5 -10t-41 -63.5v-244q0 -41 41.5 -62.5t90.5 -8t67 59.5z" />
    <glyph glyph-name="Egrave" unicode="&#xc8;" 
d="M411 756h-155l-131 166h186zM237 540v-110h287v-155h-287v-106h312v-169h-493v708h493v-168h-312z" />
    <glyph glyph-name="Eacute" unicode="&#xc9;" 
d="M492 922l-131 -166h-155l100 166h186zM237 540v-110h287v-155h-287v-106h312v-169h-493v708h493v-168h-312z" />
    <glyph glyph-name="Ecircumflex" unicode="&#xca;" 
d="M367 924l150 -168h-162l-46 52l-44 -52h-169l154 168h117zM237 540v-110h287v-155h-287v-106h312v-169h-493v708h493v-168h-312z" />
    <glyph glyph-name="Edieresis" unicode="&#xcb;" 
d="M104 834q0 36 24.5 60.5t59.5 24.5t59.5 -24.5t24.5 -60.5q0 -35 -24.5 -59t-59.5 -24t-59.5 24t-24.5 59zM345 834q0 36 24 60.5t60 24.5t60.5 -24.5t24.5 -60.5q0 -35 -24.5 -59t-60.5 -24q-37 0 -60.5 23.5t-23.5 59.5zM237 540v-110h287v-155h-287v-106h312v-169
h-493v708h493v-168h-312z" />
    <glyph glyph-name="Igrave" unicode="&#xcc;" horiz-adv-x="291" 
d="M248 756h-155l-131 166h186zM235 708v-708h-179v708h179z" />
    <glyph glyph-name="Iacute" unicode="&#xcd;" horiz-adv-x="291" 
d="M329 922l-131 -166h-155l100 166h186zM235 708v-708h-179v708h179z" />
    <glyph glyph-name="Icircumflex" unicode="&#xce;" horiz-adv-x="291" 
d="M204 924l140 -168h-162l-36 50l-34 -50h-169l144 168h117zM235 708v-708h-179v708h179z" />
    <glyph glyph-name="Idieresis" unicode="&#xcf;" horiz-adv-x="291" 
d="M-43 834q0 36 24.5 60.5t59.5 24.5t59.5 -24.5t24.5 -60.5q0 -35 -24.5 -59t-59.5 -24t-59.5 24t-24.5 59zM168 834q0 36 24 60.5t60 24.5t60.5 -24.5t24.5 -60.5q0 -35 -24.5 -59t-60.5 -24t-60 23.5t-24 59.5zM235 708v-708h-179v708h179z" />
    <glyph glyph-name="Eth" unicode="&#xd0;" horiz-adv-x="642" 
d="M62 428v280h286q114 0 184 -58.5t70 -175.5v-241q0 -117 -70 -175t-184 -58h-286v285h-48v143h48zM243 176h105q74 0 74 57v241q0 58 -74 58h-105v-104h83v-143h-83v-109z" />
    <glyph glyph-name="Ntilde" unicode="&#xd1;" horiz-adv-x="676" 
d="M238 745l-87 49q22 121 127 118q16 0 35 -7.5t34 -15.5t29.5 -12t27 3t21.5 28l91 -52q-14 -56 -40.5 -85t-63.5 -28q-25 0 -55 11t-48 19.5t-37.5 3.5t-33.5 -32zM56 0v708h170l171 -302l60 -142l5 1l-20 122v321h178v-708h-181l-160 279l-62 142l-5 -1l23 -137v-283
h-179z" />
    <glyph glyph-name="Ograve" unicode="&#xd2;" horiz-adv-x="665" 
d="M434 758h-155l-131 166h186zM39 233v242q0 115 86.5 179t206.5 64t207 -64t87 -179v-242q0 -115 -86.5 -179t-206.5 -64t-207 64t-87 179zM218 475v-242q0 -37 34 -57t81 -20q46 0 80 20.5t34 56.5v242q0 39 -34.5 59.5t-82.5 20.5q-45 0 -78.5 -21.5t-33.5 -58.5z" />
    <glyph glyph-name="Oacute" unicode="&#xd3;" horiz-adv-x="665" 
d="M515 924l-131 -166h-155l100 166h186zM39 233v242q0 115 86.5 179t206.5 64t207 -64t87 -179v-242q0 -115 -86.5 -179t-206.5 -64t-207 64t-87 179zM218 475v-242q0 -37 34 -57t81 -20q46 0 80 20.5t34 56.5v242q0 39 -34.5 59.5t-82.5 20.5q-45 0 -78.5 -21.5
t-33.5 -58.5z" />
    <glyph glyph-name="Ocircumflex" unicode="&#xd4;" horiz-adv-x="665" 
d="M390 926l150 -168h-162l-46 52l-44 -52h-169l154 168h117zM39 233v242q0 115 86.5 179t206.5 64t207 -64t87 -179v-242q0 -115 -86.5 -179t-206.5 -64t-207 64t-87 179zM218 475v-242q0 -37 34 -57t81 -20q46 0 80 20.5t34 56.5v242q0 39 -34.5 59.5t-82.5 20.5
q-45 0 -78.5 -21.5t-33.5 -58.5z" />
    <glyph glyph-name="Otilde" unicode="&#xd5;" horiz-adv-x="665" 
d="M230 747l-87 49q22 121 127 118q16 0 35 -7.5t34 -15.5t29.5 -12t27 3t21.5 28l91 -52q-14 -56 -40.5 -85t-63.5 -28q-25 0 -55 11t-48 19.5t-37.5 3.5t-33.5 -32zM39 233v242q0 115 86.5 179t206.5 64t207 -64t87 -179v-242q0 -115 -86.5 -179t-206.5 -64t-207 64
t-87 179zM218 475v-242q0 -37 34 -57t81 -20q46 0 80 20.5t34 56.5v242q0 39 -34.5 59.5t-82.5 20.5q-45 0 -78.5 -21.5t-33.5 -58.5z" />
    <glyph glyph-name="Odieresis" unicode="&#xd6;" horiz-adv-x="665" 
d="M127 836q0 36 24.5 60.5t59.5 24.5t59.5 -24.5t24.5 -60.5q0 -35 -24.5 -59t-59.5 -24t-59.5 24t-24.5 59zM368 836q0 36 24 60.5t60 24.5t60.5 -24.5t24.5 -60.5q0 -35 -24.5 -59t-60.5 -24t-60 23.5t-24 59.5zM39 233v242q0 115 86.5 179t206.5 64t207 -64t87 -179
v-242q0 -115 -86.5 -179t-206.5 -64t-207 64t-87 179zM218 475v-242q0 -37 34 -57t81 -20q46 0 80 20.5t34 56.5v242q0 39 -34.5 59.5t-82.5 20.5q-45 0 -78.5 -21.5t-33.5 -58.5z" />
    <glyph glyph-name="multiply" unicode="&#xd7;" horiz-adv-x="536" 
d="M268 412l122 122l119 -122l-119 -119l119 -120l-120 -120l-120 120q-17 -17 -60 -59.5t-63 -63.5l-117 121l120 120l-124 125l120 119z" />
    <glyph glyph-name="Oslash" unicode="&#xd8;" horiz-adv-x="665" 
d="M574 756l-39 -99q91 -67 91 -182v-242q0 -115 -86.5 -179t-206.5 -64q-25 0 -47 3l-39 -96l-158 56l42 98q-92 66 -92 182v242q0 115 86.5 179t206.5 64q25 0 49 -3l36 93zM447 233v242q0 39 -34.5 59.5t-82.5 20.5q-45 0 -78.5 -21.5t-33.5 -58.5v-242q0 -37 34 -57
t81 -20q46 0 80 20.5t34 56.5z" />
    <glyph glyph-name="Ugrave" unicode="&#xd9;" horiz-adv-x="667" 
d="M437 756h-155l-131 166h186zM233 708v-471q0 -41 31.5 -64t70 -23t70 23.5t31.5 63.5v471h181v-471q0 -79 -42 -137.5t-104.5 -84.5t-136 -26t-136 26t-104.5 84.5t-42 137.5v471h181z" />
    <glyph glyph-name="Uacute" unicode="&#xda;" horiz-adv-x="667" 
d="M518 922l-131 -166h-155l100 166h186zM233 708v-471q0 -41 31.5 -64t70 -23t70 23.5t31.5 63.5v471h181v-471q0 -79 -42 -137.5t-104.5 -84.5t-136 -26t-136 26t-104.5 84.5t-42 137.5v471h181z" />
    <glyph glyph-name="Ucircumflex" unicode="&#xdb;" horiz-adv-x="667" 
d="M393 924l150 -168h-162l-46 52l-44 -52h-169l154 168h117zM233 708v-471q0 -41 31.5 -64t70 -23t70 23.5t31.5 63.5v471h181v-471q0 -79 -42 -137.5t-104.5 -84.5t-136 -26t-136 26t-104.5 84.5t-42 137.5v471h181z" />
    <glyph glyph-name="Udieresis" unicode="&#xdc;" horiz-adv-x="667" 
d="M130 834q0 36 24.5 60.5t59.5 24.5t59.5 -24.5t24.5 -60.5q0 -35 -24.5 -59t-59.5 -24t-59.5 24t-24.5 59zM371 834q0 36 24 60.5t60 24.5t60.5 -24.5t24.5 -60.5q0 -35 -24.5 -59t-60.5 -24q-37 0 -60.5 23.5t-23.5 59.5zM233 708v-471q0 -41 31.5 -64t70 -23t70 23.5
t31.5 63.5v471h181v-471q0 -79 -42 -137.5t-104.5 -84.5t-136 -26t-136 26t-104.5 84.5t-42 137.5v471h181z" />
    <glyph glyph-name="Yacute" unicode="&#xdd;" horiz-adv-x="655" 
d="M507 922l-131 -166h-155l100 166h186zM417 0h-179v279l-247 429h208l128 -260l128 260h210l-248 -429v-279z" />
    <glyph glyph-name="Thorn" unicode="&#xde;" horiz-adv-x="556" 
d="M237 602h10q292 0 292 -240q0 -66 -25.5 -114t-70 -73t-95.5 -36.5t-111 -11.5v-126h-181v714h181v-113zM237 439v-154q84 -10 116 39q25 39 -1 77q-33 48 -115 38z" />
    <glyph glyph-name="germandbls" unicode="&#xdf;" horiz-adv-x="576" 
d="M48 0v507q-2 99 69 155t167 56q94 0 161.5 -53.5t67.5 -152.5q0 -101 -74 -149q57 -21 85.5 -71t25.5 -105.5t-32 -100.5q-29 -46 -82.5 -71t-114.5 -25q-35 0 -72 9v158q43 -22 80 1.5t37 63.5q0 28 -20.5 44t-51.5 16h-45v152q62 -13 86 32q19 36 -3 68q-17 25 -50 26
q-27 0 -46 -16t-19 -44v-500h-169z" />
    <glyph glyph-name="agrave" unicode="&#xe0;" horiz-adv-x="483" 
d="M342 565h-149l-126 159h179zM218 323q37 0 60 -4q4 74 -70 74q-47 0 -90 -37l-78 79q69 93 196 93q87 0 146 -47.5t59 -137.5v-318q-98 -35 -200 -35q-109 0 -163.5 44.5t-54.5 127.5q0 70 50.5 115.5t144.5 45.5zM276 120v89q-35 10 -65 -2.5t-30 -43.5q0 -36 33 -45
t62 2z" />
    <glyph glyph-name="aacute" unicode="&#xe1;" horiz-adv-x="483" 
d="M410 724l-126 -159h-149l96 159h179zM218 323q37 0 60 -4q4 74 -70 74q-47 0 -90 -37l-78 79q69 93 196 93q87 0 146 -47.5t59 -137.5v-318q-98 -35 -200 -35q-109 0 -163.5 44.5t-54.5 127.5q0 70 50.5 115.5t144.5 45.5zM276 120v89q-35 10 -65 -2.5t-30 -43.5
q0 -36 33 -45t62 2z" />
    <glyph glyph-name="acircumflex" unicode="&#xe2;" horiz-adv-x="483" 
d="M300 726l144 -161h-156l-44 49l-42 -49h-163l148 161h113zM218 323q37 0 60 -4q4 74 -70 74q-47 0 -90 -37l-78 79q69 93 196 93q87 0 146 -47.5t59 -137.5v-318q-98 -35 -200 -35q-109 0 -163.5 44.5t-54.5 127.5q0 70 50.5 115.5t144.5 45.5zM276 120v89
q-35 10 -65 -2.5t-30 -43.5q0 -36 33 -45t62 2z" />
    <glyph glyph-name="atilde" unicode="&#xe3;" horiz-adv-x="483" 
d="M151 558l-84 47q23 118 122 113q17 0 41 -10.5t40 -19t33 -3.5t27 30l88 -50q-14 -54 -39.5 -82t-60.5 -27q-20 0 -43 7.5t-39 15t-32 11.5t-29 -3t-24 -29zM218 323q37 0 60 -4q4 74 -70 74q-47 0 -90 -37l-78 79q69 93 196 93q87 0 146 -47.5t59 -137.5v-318
q-98 -35 -200 -35q-109 0 -163.5 44.5t-54.5 127.5q0 70 50.5 115.5t144.5 45.5zM276 120v89q-35 10 -65 -2.5t-30 -43.5q0 -36 33 -45t62 2z" />
    <glyph glyph-name="adieresis" unicode="&#xe4;" horiz-adv-x="483" 
d="M50 644q0 35 23.5 59t58.5 24t59 -24t24 -59q0 -34 -24 -57.5t-59 -23.5t-58.5 23.5t-23.5 57.5zM266 644q0 35 23.5 59t59.5 24q35 0 59 -24t24 -59q0 -34 -24 -57.5t-59 -23.5q-36 0 -59.5 23.5t-23.5 57.5zM218 323q37 0 60 -4q4 74 -70 74q-47 0 -90 -37l-78 79
q69 93 196 93q87 0 146 -47.5t59 -137.5v-318q-98 -35 -200 -35q-109 0 -163.5 44.5t-54.5 127.5q0 70 50.5 115.5t144.5 45.5zM276 120v89q-35 10 -65 -2.5t-30 -43.5q0 -36 33 -45t62 2z" />
    <glyph glyph-name="aring" unicode="&#xe5;" horiz-adv-x="483" 
d="M114 681q0 54 39 90t94 36q54 0 92 -38t38 -89t-38.5 -87.5t-91.5 -36.5q-55 0 -94 36t-39 89zM283 679q0 16 -10.5 28t-25.5 12q-17 0 -27.5 -11.5t-10.5 -28.5q0 -13 10.5 -24t27.5 -11q16 0 26 9t10 26zM218 323q37 0 60 -4q4 74 -70 74q-47 0 -90 -37l-78 79
q69 93 196 93q87 0 146 -47.5t59 -137.5v-318q-98 -35 -200 -35q-109 0 -163.5 44.5t-54.5 127.5q0 70 50.5 115.5t144.5 45.5zM276 120v89q-35 10 -65 -2.5t-30 -43.5q0 -36 33 -45t62 2z" />
    <glyph glyph-name="ae" unicode="&#xe6;" horiz-adv-x="707" 
d="M429 189v-8q0 -24 19 -41t48 -14t54 34l99 -79q-73 -91 -167 -91q-76 0 -130 51q-41 -51 -135 -51q-82 0 -138 44t-56 134q0 71 49 115.5t143 44.5q33 0 56 -4q0 35 -25.5 53t-61.5 13t-64 -33l-79 75q65 96 183 96q36 0 74 -14.5t57 -40.5q55 55 131 55
q79 0 135.5 -51.5t56.5 -140.5v-147h-249zM531 297v45q0 26 -26.5 37.5t-52.5 0t-26 -38.5v-44h105zM285 182v35q-36 12 -71.5 -3t-35.5 -47q0 -34 26.5 -46.5t91.5 2.5q-11 30 -11 59z" />
    <glyph glyph-name="ccedilla" unicode="&#xe7;" horiz-adv-x="462" 
d="M303 175l146 -33q-36 -112 -139 -143l-18 -39q37 -9 57.5 -34.5t20 -55.5t-14 -58t-44.5 -47t-71 -19q-81 0 -140 49l30 82q35 -24 66 -28t41 20q6 19 -14.5 35t-65.5 16l32 75q-68 13 -111 58t-43 122v163q0 90 63.5 140t148.5 50q62 0 116 -33t76 -109l-142 -44
q-10 44 -52 44q-18 0 -31.5 -12t-13.5 -32v-166q0 -20 13.5 -32t33.5 -12q44 0 56 43z" />
    <glyph glyph-name="egrave" unicode="&#xe8;" horiz-adv-x="479" 
d="M346 565h-149l-126 159h179zM189 199v-19q0 -28 21 -43.5t52 -15.5q50 0 79 35l94 -76q-64 -90 -185 -90q-87 0 -151 50t-64 140v162q0 91 63 138.5t150 47.5q84 0 143 -49t59 -140v-140h-261zM304 310v37q0 22 -16.5 33.5t-39.5 11.5t-40 -12.5t-17 -35.5v-34h113z" />
    <glyph glyph-name="eacute" unicode="&#xe9;" horiz-adv-x="479" 
d="M424 724l-126 -159h-149l96 159h179zM189 199v-19q0 -28 21 -43.5t52 -15.5q50 0 79 35l94 -76q-64 -90 -185 -90q-87 0 -151 50t-64 140v162q0 91 63 138.5t150 47.5q84 0 143 -49t59 -140v-140h-261zM304 310v37q0 22 -16.5 33.5t-39.5 11.5t-40 -12.5t-17 -35.5v-34
h113z" />
    <glyph glyph-name="ecircumflex" unicode="&#xea;" horiz-adv-x="479" 
d="M304 726l144 -161h-156l-44 49l-42 -49h-163l148 161h113zM189 199v-19q0 -28 21 -43.5t52 -15.5q50 0 79 35l94 -76q-64 -90 -185 -90q-87 0 -151 50t-64 140v162q0 91 63 138.5t150 47.5q84 0 143 -49t59 -140v-140h-261zM304 310v37q0 22 -16.5 33.5t-39.5 11.5
t-40 -12.5t-17 -35.5v-34h113z" />
    <glyph glyph-name="edieresis" unicode="&#xeb;" horiz-adv-x="479" 
d="M49 644q0 36 24.5 60.5t59.5 24.5t59.5 -24.5t24.5 -60.5q0 -35 -24.5 -59t-59.5 -24t-59.5 24t-24.5 59zM271 644q0 36 24 60.5t60 24.5t60.5 -24.5t24.5 -60.5q0 -35 -24.5 -59t-60.5 -24q-37 0 -60.5 23.5t-23.5 59.5zM189 199v-19q0 -28 21 -43.5t52 -15.5
q50 0 79 35l94 -76q-64 -90 -185 -90q-87 0 -151 50t-64 140v162q0 91 63 138.5t150 47.5q84 0 143 -49t59 -140v-140h-261zM304 310v37q0 22 -16.5 33.5t-39.5 11.5t-40 -12.5t-17 -35.5v-34h113z" />
    <glyph glyph-name="igrave" unicode="&#xec;" horiz-adv-x="268" 
d="M238 566h-145l-121 166h166zM220 518v-518h-172v518h172z" />
    <glyph glyph-name="iacute" unicode="&#xed;" horiz-adv-x="268" 
d="M299 732l-121 -166h-145l100 166h166zM220 518v-518h-172v518h172z" />
    <glyph glyph-name="icircumflex" unicode="&#xee;" horiz-adv-x="268" 
d="M194 734l124 -168h-152l-30 39l-28 -39h-159l128 168h117zM220 518v-518h-172v518h172z" />
    <glyph glyph-name="idieresis" unicode="&#xef;" horiz-adv-x="268" 
d="M-48 629q0 32 23.5 54.5t57.5 22.5q35 0 58.5 -22.5t23.5 -54.5t-23.5 -53.5t-58.5 -21.5q-34 0 -57.5 21.5t-23.5 53.5zM146 629q0 33 23 55t59 22q35 0 58.5 -22.5t23.5 -54.5t-23.5 -53.5t-58.5 -21.5q-36 0 -59 21.5t-23 53.5zM220 518v-518h-172v518h172z" />
    <glyph glyph-name="eth" unicode="&#xf0;" horiz-adv-x="504" 
d="M333 734l-15 -38q62 -22 100.5 -77t38.5 -139v-446q-93 -44 -198 -44q-96 0 -159 44t-63 139v176q0 116 108 162q30 12 71 12t73 -12q4 37 -24 60l-12 -30l-68 22l11 26q-37 -3 -64 -21l-59 80q72 61 165 61l20 53zM288 130v251q-24 17 -55.5 9.5t-31.5 -42.5v-179
q0 -24 16.5 -37t35.5 -11.5t35 9.5z" />
    <glyph glyph-name="ntilde" unicode="&#xf1;" horiz-adv-x="512" 
d="M163 554l-84 47q23 118 122 113q17 0 41 -10.5t40 -19t33 -3.5t27 30l88 -50q-14 -54 -39.5 -82t-60.5 -27q-20 0 -43 7.5t-39 15t-32 11.5t-29 -3t-24 -29zM47 0v486q86 42 189 42q100 0 166.5 -47t66.5 -148v-333h-168v332q0 48 -50 48q-20 0 -35 -6v-374h-169z" />
    <glyph glyph-name="ograve" unicode="&#xf2;" horiz-adv-x="493" 
d="M344 565h-149l-126 159h179zM35 173v164q0 90 62.5 140.5t148.5 50.5q85 0 148.5 -50.5t63.5 -140.5v-164q0 -87 -62.5 -135t-149.5 -48q-86 0 -148.5 49t-62.5 134zM246 378q-17 0 -31.5 -10.5t-14.5 -27.5v-169q0 -17 14 -28t32 -11t32 11t14 28v169q0 17 -14.5 27.5
t-31.5 10.5z" />
    <glyph glyph-name="oacute" unicode="&#xf3;" horiz-adv-x="493" 
d="M422 724l-126 -159h-149l96 159h179zM35 173v164q0 90 62.5 140.5t148.5 50.5q85 0 148.5 -50.5t63.5 -140.5v-164q0 -87 -62.5 -135t-149.5 -48q-86 0 -148.5 49t-62.5 134zM246 378q-17 0 -31.5 -10.5t-14.5 -27.5v-169q0 -17 14 -28t32 -11t32 11t14 28v169
q0 17 -14.5 27.5t-31.5 10.5z" />
    <glyph glyph-name="ocircumflex" unicode="&#xf4;" horiz-adv-x="493" 
d="M302 726l144 -161h-156l-44 49l-42 -49h-163l148 161h113zM35 173v164q0 90 62.5 140.5t148.5 50.5q85 0 148.5 -50.5t63.5 -140.5v-164q0 -87 -62.5 -135t-149.5 -48q-86 0 -148.5 49t-62.5 134zM246 378q-17 0 -31.5 -10.5t-14.5 -27.5v-169q0 -17 14 -28t32 -11t32 11
t14 28v169q0 17 -14.5 27.5t-31.5 10.5z" />
    <glyph glyph-name="otilde" unicode="&#xf5;" horiz-adv-x="493" 
d="M146 554l-85 48q23 119 124 116q15 0 34 -7.5t33.5 -15.5t29 -12t27 3t21.5 28l89 -51q-14 -55 -40 -83.5t-62 -27.5q-25 0 -54.5 10.5t-47 19t-36.5 3.5t-33 -31zM35 173v164q0 90 62.5 140.5t148.5 50.5q85 0 148.5 -50.5t63.5 -140.5v-164q0 -87 -62.5 -135
t-149.5 -48q-86 0 -148.5 49t-62.5 134zM246 378q-17 0 -31.5 -10.5t-14.5 -27.5v-169q0 -17 14 -28t32 -11t32 11t14 28v169q0 17 -14.5 27.5t-31.5 10.5z" />
    <glyph glyph-name="odieresis" unicode="&#xf6;" horiz-adv-x="493" 
d="M51 644q0 36 24.5 60.5t59.5 24.5t59.5 -24.5t24.5 -60.5q0 -35 -24.5 -59t-59.5 -24t-59.5 24t-24.5 59zM272 644q0 36 24 60.5t60 24.5t60.5 -24.5t24.5 -60.5q0 -35 -24.5 -59t-60.5 -24t-60 23.5t-24 59.5zM35 173v164q0 90 62.5 140.5t148.5 50.5q85 0 148.5 -50.5
t63.5 -140.5v-164q0 -87 -62.5 -135t-149.5 -48q-86 0 -148.5 49t-62.5 134zM246 378q-17 0 -31.5 -10.5t-14.5 -27.5v-169q0 -17 14 -28t32 -11t32 11t14 28v169q0 17 -14.5 27.5t-31.5 10.5z" />
    <glyph glyph-name="divide" unicode="&#xf7;" horiz-adv-x="509" 
d="M27 374h454v-152h-454v152zM162 98q0 39 27 64.5t67 25.5t67.5 -25.5t27.5 -64.5t-27.5 -65t-67.5 -26t-67 26t-27 65zM162 499q0 39 27 64.5t67 25.5t67.5 -25.5t27.5 -64.5t-27.5 -65t-67.5 -26t-67 26t-27 65z" />
    <glyph glyph-name="oslash" unicode="&#xf8;" horiz-adv-x="493" 
d="M415 551l-25 -70q68 -53 68 -144v-164q0 -87 -62.5 -135t-149.5 -48q-9 0 -31 2l-24 -59l-105 32l25 64q-76 52 -76 144v164q0 90 62.5 140.5t148.5 50.5q20 0 39 -3l21 59zM292 171v169q0 17 -14.5 27.5t-31.5 10.5t-31.5 -10.5t-14.5 -27.5v-169q0 -17 14 -28t32 -11
t32 11t14 28z" />
    <glyph glyph-name="ugrave" unicode="&#xf9;" horiz-adv-x="513" 
d="M358 566h-155l-131 166h186zM466 518v-486q-82 -42 -187 -42q-103 0 -169 46t-66 149v333h168v-332q0 -24 15 -36t38 -12q17 0 32 6v374h169z" />
    <glyph glyph-name="uacute" unicode="&#xfa;" horiz-adv-x="513" 
d="M439 732l-131 -166h-155l100 166h186zM466 518v-486q-82 -42 -187 -42q-103 0 -169 46t-66 149v333h168v-332q0 -24 15 -36t38 -12q17 0 32 6v374h169z" />
    <glyph glyph-name="ucircumflex" unicode="&#xfb;" horiz-adv-x="513" 
d="M314 734l150 -168h-162l-46 52l-44 -52h-169l154 168h117zM466 518v-486q-82 -42 -187 -42q-103 0 -169 46t-66 149v333h168v-332q0 -24 15 -36t38 -12q17 0 32 6v374h169z" />
    <glyph glyph-name="udieresis" unicode="&#xfc;" horiz-adv-x="513" 
d="M51 644q0 36 24.5 60.5t59.5 24.5t59.5 -24.5t24.5 -60.5q0 -35 -24.5 -59t-59.5 -24t-59.5 24t-24.5 59zM292 644q0 36 24 60.5t60 24.5t60.5 -24.5t24.5 -60.5q0 -35 -24.5 -59t-60.5 -24t-60 23.5t-24 59.5zM466 518v-486q-82 -42 -187 -42q-103 0 -169 46t-66 149
v333h168v-332q0 -24 15 -36t38 -12q17 0 32 6v374h169z" />
    <glyph glyph-name="yacute" unicode="&#xfd;" horiz-adv-x="514" 
d="M437 732l-131 -166h-155l100 166h186zM466 518v-506q0 -113 -58 -173t-157 -60q-105 0 -187 70l67 104q51 -31 95 -31q40 0 59.5 21.5t19.5 58.5q-31 -12 -78 -12q-76 0 -129.5 44t-53.5 130v354h163v-343q0 -23 15.5 -35t37.5 -12q23 0 40 11v379h166z" />
    <glyph glyph-name="thorn" unicode="&#xfe;" horiz-adv-x="507" 
d="M216 708v-188q32 8 50 8q89 0 147.5 -42t58.5 -136v-169q0 -88 -63 -139.5t-147 -51.5q-18 0 -46 7v-155h-168v866h168zM216 384v-248q18 -9 37 -10t34.5 10.5t15.5 37.5v169q0 26 -15.5 38t-34.5 11t-37 -8z" />
    <glyph glyph-name="ydieresis" unicode="&#xff;" horiz-adv-x="514" 
d="M49 644q0 36 24.5 60.5t59.5 24.5t59.5 -24.5t24.5 -60.5q0 -35 -24.5 -59t-59.5 -24t-59.5 24t-24.5 59zM290 644q0 36 24 60.5t60 24.5t60.5 -24.5t24.5 -60.5q0 -35 -24.5 -59t-60.5 -24t-60 23.5t-24 59.5zM466 518v-506q0 -113 -58 -173t-157 -60q-105 0 -187 70
l67 104q51 -31 95 -31q40 0 59.5 21.5t19.5 58.5q-31 -12 -78 -12q-76 0 -129.5 44t-53.5 130v354h163v-343q0 -23 15.5 -35t37.5 -12q23 0 40 11v379h166z" />
    <glyph glyph-name="Amacron" unicode="&#x100;" horiz-adv-x="648" 
d="M174 758v134h297v-134h-297zM404 708l253 -708h-192l-46 142h-189l-44 -142h-192l247 708h163zM270 301h106l-49 207h-5z" />
    <glyph glyph-name="amacron" unicode="&#x101;" horiz-adv-x="483" 
d="M102 577v126h285v-126h-285zM218 323q37 0 60 -4q4 74 -70 74q-47 0 -90 -37l-78 79q69 93 196 93q87 0 146 -47.5t59 -137.5v-318q-98 -35 -200 -35q-109 0 -163.5 44.5t-54.5 127.5q0 70 50.5 115.5t144.5 45.5zM276 120v89q-35 10 -65 -2.5t-30 -43.5q0 -36 33 -45
t62 2z" />
    <glyph glyph-name="Abreve" unicode="&#x102;" horiz-adv-x="648" 
d="M362 922h135q0 -55 -26 -96t-65 -59t-84 -18t-84 18t-65 59t-26 96h137q0 -24 19.5 -34t39 0t19.5 34zM404 708l253 -708h-192l-46 142h-189l-44 -142h-192l247 708h163zM270 301h106l-49 207h-5z" />
    <glyph glyph-name="abreve" unicode="&#x103;" horiz-adv-x="483" 
d="M281 723h129q0 -46 -18.5 -82t-48 -54.5t-65.5 -27.5t-72 0t-65.5 27.5t-48 54.5t-18.5 82h132q0 -23 19 -32.5t37.5 0t18.5 32.5zM218 323q37 0 60 -4q4 74 -70 74q-47 0 -90 -37l-78 79q69 93 196 93q87 0 146 -47.5t59 -137.5v-318q-98 -35 -200 -35
q-109 0 -163.5 44.5t-54.5 127.5q0 70 50.5 115.5t144.5 45.5zM276 120v89q-35 10 -65 -2.5t-30 -43.5q0 -36 33 -45t62 2z" />
    <glyph glyph-name="Aogonek" unicode="&#x104;" horiz-adv-x="648" 
d="M675 -97l28 -107q-50 -40 -115 -40q-102 0 -124.5 74t55.5 170h-54l-46 142h-189l-44 -142h-192l247 708h163l253 -708q-58 -53 -50 -90q5 -20 28 -21q17 0 40 14zM270 301h106l-49 207h-5z" />
    <glyph glyph-name="aogonek" unicode="&#x105;" horiz-adv-x="484" 
d="M444 -97l28 -107q-50 -40 -115 -40q-66 0 -99.5 35.5t-22 92t67.5 110.5q-28 -4 -62 -4q-108 0 -163 47t-55 130q0 48 23 83t59.5 50.5t81 22t87.5 -1.5q1 39 -17.5 55t-53.5 16q-48 0 -85 -35l-79 75q33 47 84.5 71.5t110.5 24.5q87 0 147 -47.5t60 -137.5v-318
q-54 -49 -61 -99q-5 -37 24 -37q17 0 40 14zM276 120v96q-35 10 -65 -3t-30 -44q0 -36 30 -47t65 -2z" />
    <glyph glyph-name="Cacute" unicode="&#x106;" horiz-adv-x="582" 
d="M504 922l-131 -166h-155l100 166h186zM417 221l156 -72q-28 -55 -72.5 -92t-90 -52t-92.5 -15q-113 0 -196 64t-83 178v244q0 77 41.5 133t104.5 82.5t136 26.5q75 0 142.5 -38t106.5 -125l-146 -59q-23 42 -73.5 53.5t-91.5 -10t-41 -63.5v-244q0 -41 41.5 -62.5
t90.5 -8t67 59.5z" />
    <glyph glyph-name="cacute" unicode="&#x107;" horiz-adv-x="462" 
d="M430 732l-131 -166h-155l100 166h186zM303 175l146 -33q-25 -79 -82.5 -115.5t-119.5 -36.5q-88 0 -150 46t-62 139v163q0 90 63.5 140t148.5 50q62 0 116 -33t76 -109l-142 -44q-10 44 -52 44q-18 0 -31.5 -12t-13.5 -32v-166q0 -20 13.5 -32t33.5 -12q44 0 56 43z" />
    <glyph glyph-name="Cdotaccent" unicode="&#x10a;" horiz-adv-x="582" 
d="M222 851q0 41 28.5 69t70.5 28t69.5 -28t27.5 -69q0 -42 -27.5 -70t-69.5 -28t-70.5 28.5t-28.5 69.5zM417 221l156 -72q-28 -55 -72.5 -92t-90 -52t-92.5 -15q-113 0 -196 64t-83 178v244q0 77 41.5 133t104.5 82.5t136 26.5q75 0 142.5 -38t106.5 -125l-146 -59
q-23 42 -73.5 53.5t-91.5 -10t-41 -63.5v-244q0 -41 41.5 -62.5t90.5 -8t67 59.5z" />
    <glyph glyph-name="cdotaccent" unicode="&#x10b;" horiz-adv-x="462" 
d="M148 661q0 41 28.5 69t70.5 28t69.5 -28t27.5 -69q0 -42 -27.5 -70t-69.5 -28t-70.5 28.5t-28.5 69.5zM303 175l146 -33q-25 -79 -82.5 -115.5t-119.5 -36.5q-88 0 -150 46t-62 139v163q0 90 63.5 140t148.5 50q62 0 116 -33t76 -109l-142 -44q-10 44 -52 44
q-18 0 -31.5 -12t-13.5 -32v-166q0 -20 13.5 -32t33.5 -12q44 0 56 43z" />
    <glyph glyph-name="Ccaron" unicode="&#x10c;" horiz-adv-x="582" 
d="M112 924h168l41 -52l46 52h167l-150 -168h-122zM417 221l156 -72q-28 -55 -72.5 -92t-90 -52t-92.5 -15q-113 0 -196 64t-83 178v244q0 77 41.5 133t104.5 82.5t136 26.5q75 0 142.5 -38t106.5 -125l-146 -59q-23 42 -73.5 53.5t-91.5 -10t-41 -63.5v-244
q0 -41 41.5 -62.5t90.5 -8t67 59.5z" />
    <glyph glyph-name="ccaron" unicode="&#x10d;" horiz-adv-x="462" 
d="M38 734h168l41 -52l46 52h167l-150 -168h-122zM303 175l146 -33q-25 -79 -82.5 -115.5t-119.5 -36.5q-88 0 -150 46t-62 139v163q0 90 63.5 140t148.5 50q62 0 116 -33t76 -109l-142 -44q-10 44 -52 44q-18 0 -31.5 -12t-13.5 -32v-166q0 -20 13.5 -32t33.5 -12
q44 0 56 43z" />
    <glyph glyph-name="Dcaron" unicode="&#x10e;" horiz-adv-x="636" 
d="M80 924h168l41 -52l46 52h167l-150 -168h-122zM56 708h265q115 0 195 -60.5t80 -176.5v-238q0 -116 -79.5 -174.5t-195.5 -58.5h-265v708zM236 168h91q89 0 89 77v221q0 75 -89 75h-91v-373z" />
    <glyph glyph-name="dcaron" unicode="&#x10f;" horiz-adv-x="613" 
d="M461 708v-676q-111 -42 -213 -42q-94 0 -153 42.5t-59 139.5v173q0 82 57 132.5t138 50.5q31 0 60 -9v189h170zM675 706l-53 -204h-137l39 204h151zM291 127v256q-19 7 -38 7q-21 0 -35.5 -12.5t-14.5 -34.5v-173q0 -24 16 -36t40 -12q15 0 32 5z" />
    <glyph glyph-name="Dcroat" unicode="&#x110;" horiz-adv-x="642" 
d="M62 428v280h286q114 0 184 -58.5t70 -175.5v-241q0 -117 -70 -175t-184 -58h-286v285h-48v143h48zM243 176h105q74 0 74 57v241q0 58 -74 58h-105v-104h83v-143h-83v-109z" />
    <glyph glyph-name="dslash" unicode="&#x111;" horiz-adv-x="508" 
d="M461 573v-541q-111 -42 -213 -42q-94 0 -153 42.5t-59 139.5v173q0 82 57 132.5t138 50.5q31 0 60 -9v54h-80v86h80v49h170v-49h47v-86h-47zM291 127v256q-19 7 -38 7q-21 0 -35.5 -12.5t-14.5 -34.5v-173q0 -24 16 -36t40 -12q15 0 32 5z" />
    <glyph glyph-name="Emacron" unicode="&#x112;" 
d="M159 758v134h297v-134h-297zM237 540v-110h287v-155h-287v-106h312v-169h-493v708h493v-168h-312z" />
    <glyph glyph-name="emacron" unicode="&#x113;" horiz-adv-x="479" 
d="M104 572v123h285v-123h-285zM189 199v-19q0 -28 21 -43.5t52 -15.5q50 0 79 35l94 -76q-64 -90 -185 -90q-87 0 -151 50t-64 140v162q0 91 63 138.5t150 47.5q84 0 143 -49t59 -140v-140h-261zM304 310v37q0 22 -16.5 33.5t-39.5 11.5t-40 -12.5t-17 -35.5v-34h113z" />
    <glyph glyph-name="Edotaccent" unicode="&#x116;" 
d="M210 851q0 41 28.5 69t70.5 28t69.5 -28t27.5 -69q0 -42 -27.5 -70t-69.5 -28t-70.5 28.5t-28.5 69.5zM237 540v-110h287v-155h-287v-106h312v-169h-493v708h493v-168h-312z" />
    <glyph glyph-name="edotaccent" unicode="&#x117;" horiz-adv-x="479" 
d="M153 656q0 39 27 66t68 27t67 -26.5t26 -66.5t-26 -67t-67 -27t-68 27t-27 67zM189 199v-19q0 -28 21 -43.5t52 -15.5q50 0 79 35l94 -76q-64 -90 -185 -90q-87 0 -151 50t-64 140v162q0 91 63 138.5t150 47.5q84 0 143 -49t59 -140v-140h-261zM304 310v37
q0 22 -16.5 33.5t-39.5 11.5t-40 -12.5t-17 -35.5v-34h113z" />
    <glyph glyph-name="Eogonek" unicode="&#x118;" 
d="M568 -97l28 -107q-50 -40 -115 -40q-102 0 -124.5 74t55.5 170h-356v708h493v-168h-312v-110h287v-155h-287v-106h312v-169q-59 -56 -50 -92q5 -19 29 -19q17 0 40 14z" />
    <glyph glyph-name="eogonek" unicode="&#x119;" horiz-adv-x="480" 
d="M189 199v-19q0 -28 20 -43.5t51 -15.5q49 0 78 35l94 -76q-23 -33 -56 -55q-51 -41 -58 -94q-2 -38 24 -42q17 0 40 14l28 -107q-50 -40 -115 -40t-97.5 35.5t-24 90t55.5 109.5q-81 7 -137.5 55.5t-56.5 133.5v162q0 91 63 138.5t150 47.5q84 0 144 -49t60 -140v-140
h-263zM304 310v37q0 22 -16.5 33.5t-39.5 11.5t-40 -12.5t-17 -35.5v-34h113z" />
    <glyph glyph-name="Ecaron" unicode="&#x11a;" 
d="M100 924h168l41 -52l46 52h167l-150 -168h-122zM237 540v-110h287v-155h-287v-106h312v-169h-493v708h493v-168h-312z" />
    <glyph glyph-name="ecaron" unicode="&#x11b;" horiz-adv-x="479" 
d="M47 726h162l39 -50l45 50h160l-144 -161h-117zM189 199v-19q0 -28 21 -43.5t52 -15.5q50 0 79 35l94 -76q-64 -90 -185 -90q-87 0 -151 50t-64 140v162q0 91 63 138.5t150 47.5q84 0 143 -49t59 -140v-140h-261zM304 310v37q0 22 -16.5 33.5t-39.5 11.5t-40 -12.5
t-17 -35.5v-34h113z" />
    <glyph glyph-name="Gbreve" unicode="&#x11e;" horiz-adv-x="623" 
d="M357 922h135q0 -55 -26 -96t-65 -59t-84 -18t-84 18t-65 59t-26 96h137q0 -24 19.5 -34t39 0t19.5 34zM565 567l-150 -69q-19 45 -67.5 57.5t-89 -10t-40.5 -67.5v-243q0 -40 32.5 -62t71 -22t71 22.5t32.5 61.5v26h-113v150h285v-176q0 -116 -82 -180.5t-196 -64.5
t-197 65t-83 180v243q0 113 83 176.5t197 63.5q49 0 94 -13.5t87 -48.5t65 -89z" />
    <glyph glyph-name="gbreve" unicode="&#x11f;" horiz-adv-x="504" 
d="M300 732h135q0 -55 -26 -96t-65 -59t-84 -18t-84 18t-65 59t-26 96h137q0 -24 19.5 -34t39 0t19.5 34zM37 164v181q0 50 18.5 87t51.5 57t71.5 29.5t84.5 9.5q102 0 194 -44v-470q0 -119 -56 -176t-156 -57q-105 0 -182 61l63 110q46 -28 94 -28q79 0 79 78
q-31 -12 -78 -12q-76 0 -130 44t-54 130zM294 132v259q-14 10 -36 10q-25 0 -41 -12.5t-16 -37.5v-183q0 -23 15.5 -35t37.5 -12q23 0 40 11z" />
    <glyph glyph-name="Gdotaccent" unicode="&#x120;" horiz-adv-x="623" 
d="M220 851q0 41 28.5 69t70.5 28t69.5 -28t27.5 -69q0 -42 -27.5 -70t-69.5 -28t-70.5 28.5t-28.5 69.5zM565 567l-150 -69q-19 45 -67.5 57.5t-89 -10t-40.5 -67.5v-243q0 -40 32.5 -62t71 -22t71 22.5t32.5 61.5v26h-113v150h285v-176q0 -116 -82 -180.5t-196 -64.5
t-197 65t-83 180v243q0 113 83 176.5t197 63.5q49 0 94 -13.5t87 -48.5t65 -89z" />
    <glyph glyph-name="gdotaccent" unicode="&#x121;" horiz-adv-x="504" 
d="M169 664q0 39 27 64.5t69 25.5t68 -25.5t26 -64.5t-26.5 -65t-67.5 -26t-68.5 26.5t-27.5 64.5zM37 164v181q0 50 18.5 87t51.5 57t71.5 29.5t84.5 9.5q102 0 194 -44v-470q0 -119 -56 -176t-156 -57q-105 0 -182 61l63 110q46 -28 94 -28q79 0 79 78q-31 -12 -78 -12
q-76 0 -130 44t-54 130zM294 132v259q-14 10 -36 10q-25 0 -41 -12.5t-16 -37.5v-183q0 -23 15.5 -35t37.5 -12q23 0 40 11z" />
    <glyph glyph-name="Gcommaaccent" unicode="&#x122;" horiz-adv-x="623" 
d="M565 567l-150 -69q-19 45 -67.5 57.5t-89 -10t-40.5 -67.5v-243q0 -40 32.5 -62t71 -22t71 22.5t32.5 61.5v26h-113v150h285v-176q0 -116 -82 -180.5t-196 -64.5t-197 65t-83 180v243q0 113 83 176.5t197 63.5q49 0 94 -13.5t87 -48.5t65 -89zM428 -46l-75 -204h-163
l61 204h177z" />
    <glyph glyph-name="gcommaaccent" unicode="&#x123;" horiz-adv-x="504" 
d="M172 572l71 190h153l-57 -190h-167zM37 164v181q0 50 18.5 87t51.5 57t71.5 29.5t84.5 9.5q102 0 194 -44v-470q0 -119 -56 -176t-156 -57q-105 0 -182 61l63 110q46 -28 94 -28q79 0 79 78q-31 -12 -78 -12q-76 0 -130 44t-54 130zM294 132v259q-14 10 -36 10
q-25 0 -41 -12.5t-16 -37.5v-183q0 -23 15.5 -35t37.5 -12q23 0 40 11z" />
    <glyph glyph-name="Hbar" unicode="&#x126;" horiz-adv-x="697" 
d="M631 518v-518h-180v267h-204v-267h-180v518h-59v104h59v86h180v-86h204v86h180v-86h58v-104h-58zM247 518v-78h204v78h-204z" />
    <glyph glyph-name="hbar" unicode="&#x127;" horiz-adv-x="514" 
d="M284 528q82 0 134.5 -50.5t52.5 -140.5v-337h-168v338q0 42 -50 42q-22 0 -37 -9v-371h-168v565h-46v89h46v54h168v-54h94v-89h-94v-47q31 10 68 10z" />
    <glyph glyph-name="Imacron" unicode="&#x12a;" horiz-adv-x="291" 
d="M-4 758v134h297v-134h-297zM235 708v-708h-179v708h179z" />
    <glyph glyph-name="imacron" unicode="&#x12b;" horiz-adv-x="268" 
d="M-14 568v134h297v-134h-297zM220 518v-518h-172v518h172z" />
    <glyph glyph-name="Iogonek" unicode="&#x12e;" horiz-adv-x="291" 
d="M252 -97l28 -107q-50 -40 -115 -40q-102 0 -124.5 74t55.5 170h-40v708h179v-708q-51 -44 -51 -84q1 -27 28 -27q17 0 40 14z" />
    <glyph glyph-name="iogonek" unicode="&#x12f;" horiz-adv-x="268" 
d="M41 644q0 39 27 66t68 27t67 -26.5t26 -66.5t-26 -67t-67 -27t-68 27t-27 67zM234 -97l28 -107q-50 -40 -115 -40q-68 0 -103.5 32t-27.5 89t62 123h-30v518h172v-518q-54 -41 -56 -82q1 -28 30 -29q17 0 40 14z" />
    <glyph glyph-name="Idot" unicode="&#x130;" horiz-adv-x="291" 
d="M47 851q0 41 28.5 69t70.5 28t69.5 -28t27.5 -69q0 -42 -27.5 -70t-69.5 -28t-70.5 28.5t-28.5 69.5zM235 708v-708h-179v708h179z" />
    <glyph glyph-name="dotlessi" unicode="&#x131;" horiz-adv-x="268" 
d="M220 518v-518h-172v518h172z" />
    <glyph glyph-name="IJ" unicode="&#x132;" horiz-adv-x="878" 
d="M235 708v-708h-179v708h179zM294 208l169 35q8 -40 36.5 -60t64.5 -20q34 0 60 19t26 49v315h-161v162h338v-477q0 -111 -80.5 -176t-189.5 -65q-63 0 -118 22.5t-95.5 73.5t-49.5 122z" />
    <glyph glyph-name="ij" unicode="&#x133;" horiz-adv-x="529" 
d="M34 639q0 45 30.5 70t66.5 24.5t66.5 -25.5t30.5 -69t-30.5 -69t-66.5 -25.5t-66.5 24.5t-30.5 70zM48 518h168v-518h-168v518zM299 641q0 45 30.5 70t66.5 24.5t66.5 -25.5t30.5 -69t-30.5 -69t-66.5 -25.5t-66.5 24.5t-30.5 70zM236 -191v147q35 -9 55.5 8t20.5 43v511
h169v-513q0 -102 -71.5 -163t-173.5 -33z" />
    <glyph glyph-name="Kcommaaccent" unicode="&#x136;" horiz-adv-x="640" 
d="M236 446l192 262h223l-280 -342l279 -366h-227l-181 253l-6 -8v-245h-180v708h180v-262zM437 -50l-75 -204h-163l61 204h177z" />
    <glyph glyph-name="kcommaaccent" unicode="&#x137;" horiz-adv-x="509" 
d="M209 357l111 161h190l-188 -251l187 -267h-198l-102 166v-166h-161v708h161v-351zM372 -52l-74 -200h-159l60 200h173z" />
    <glyph glyph-name="Lacute" unicode="&#x139;" horiz-adv-x="538" 
d="M331 922l-131 -166h-155l100 166h186zM56 0v708h180v-531h288v-177h-468z" />
    <glyph glyph-name="lacute" unicode="&#x13a;" horiz-adv-x="295" 
d="M315 922l-131 -166h-155l100 166h186zM288 145v-147q-32 -8 -57 -8q-84 0 -136 52.5t-52 144.5v521h169v-519q0 -47 51 -47q11 0 25 3z" />
    <glyph glyph-name="Lcommaaccent" unicode="&#x13b;" horiz-adv-x="538" 
d="M56 0v708h180v-531h288v-177h-468zM406 -50l-75 -204h-163l61 204h177z" />
    <glyph glyph-name="lcommaaccent" unicode="&#x13c;" horiz-adv-x="295" 
d="M288 145v-147q-32 -8 -57 -8q-84 0 -136 52.5t-52 144.5v521h169v-519q0 -47 51 -47q11 0 25 3zM289 -52l-74 -200h-159l60 200h173z" />
    <glyph glyph-name="Lcaron" unicode="&#x13d;" horiz-adv-x="550" 
d="M56 0v708h180v-531h288v-177h-468zM544 704l-75 -204h-153l61 204h167z" />
    <glyph glyph-name="lcaron" unicode="&#x13e;" horiz-adv-x="365" 
d="M288 145v-147q-32 -8 -57 -8q-84 0 -136 52.5t-52 144.5v521h169v-519q0 -47 51 -47q11 0 25 3zM434 708l-65 -204h-133l41 204h157z" />
    <glyph glyph-name="Ldot" unicode="&#x13f;" horiz-adv-x="548" 
d="M56 0v708h180v-531h288v-177h-468zM293 380q0 42 27.5 69.5t69.5 27.5q41 0 67.5 -27.5t26.5 -69.5q0 -40 -26.5 -67t-67.5 -27q-42 0 -69.5 27t-27.5 67z" />
    <glyph glyph-name="ldot" unicode="&#x140;" horiz-adv-x="404" 
d="M288 145v-147q-32 -8 -57 -8q-84 0 -136 52.5t-52 144.5v521h169v-519q0 -47 51 -47q11 0 25 3zM238 354q0 40 25.5 66.5t66.5 26.5q39 0 65 -27t26 -66t-26 -65t-65 -26q-41 0 -66.5 26t-25.5 65z" />
    <glyph glyph-name="Lslash" unicode="&#x141;" horiz-adv-x="570" 
d="M542 182v-182h-455v257l-41 -17l-45 113l86 36v319h181v-242l129 53l47 -112l-176 -73v-152h274z" />
    <glyph glyph-name="lslash" unicode="&#x142;" horiz-adv-x="348" 
d="M251 350v-161q0 -47 51 -47q12 0 25 3v-147q-32 -8 -57 -8q-84 0 -136 52.5t-52 144.5v90l-47 -20l-34 98l81 35v318h169v-246l67 28l34 -98z" />
    <glyph glyph-name="Nacute" unicode="&#x143;" horiz-adv-x="676" 
d="M523 922l-131 -166h-155l100 166h186zM56 0v708h170l171 -302l60 -142l5 1l-20 122v321h178v-708h-181l-160 279l-62 142l-5 -1l23 -137v-283h-179z" />
    <glyph glyph-name="nacute" unicode="&#x144;" horiz-adv-x="512" 
d="M444 732l-131 -166h-155l100 166h186zM47 0v486q86 42 189 42q100 0 166.5 -47t66.5 -148v-333h-168v332q0 48 -50 48q-20 0 -35 -6v-374h-169z" />
    <glyph glyph-name="Ncommaaccent" unicode="&#x145;" horiz-adv-x="676" 
d="M56 0v708h170l171 -302l60 -142l5 1l-20 122v321h178v-708h-181l-160 279l-62 142l-5 -1l23 -137v-283h-179zM455 -50l-75 -204h-163l61 204h177z" />
    <glyph glyph-name="ncommaaccent" unicode="&#x146;" horiz-adv-x="512" 
d="M47 0v486q86 42 189 42q100 0 166.5 -47t66.5 -148v-333h-168v332q0 48 -50 48q-20 0 -35 -6v-374h-169zM368 -52l-74 -200h-159l60 200h173z" />
    <glyph glyph-name="Ncaron" unicode="&#x147;" horiz-adv-x="676" 
d="M131 924h168l41 -52l46 52h167l-150 -168h-122zM56 0v708h170l171 -302l60 -142l5 1l-20 122v321h178v-708h-181l-160 279l-62 142l-5 -1l23 -137v-283h-179z" />
    <glyph glyph-name="ncaron" unicode="&#x148;" horiz-adv-x="512" 
d="M52 734h168l41 -52l46 52h167l-150 -168h-122zM47 0v486q86 42 189 42q100 0 166.5 -47t66.5 -148v-333h-168v332q0 48 -50 48q-20 0 -35 -6v-374h-169z" />
    <glyph glyph-name="Eng" unicode="&#x14a;" horiz-adv-x="676" 
d="M620 708v-713q0 -113 -70 -169t-175 -27v147q35 -9 55.5 8t20.5 43v10l-172 272l-62 142l-4 -1l22 -137v-283h-179v708h170l171 -294l60 -142l3 1l-9 61l-9 61v313h178z" />
    <glyph glyph-name="eng" unicode="&#x14b;" horiz-adv-x="511" 
d="M235 528q100 0 166.5 -47t66.5 -148v-338q0 -102 -71.5 -163t-173.5 -33v142q35 -9 57.5 10.5t22.5 45.5v335q0 24 -15 36t-38 12q-20 0 -35 -6v-374h-169v486q86 42 189 42z" />
    <glyph glyph-name="Omacron" unicode="&#x14c;" horiz-adv-x="665" 
d="M182 760v134h297v-134h-297zM39 233v242q0 115 86.5 179t206.5 64t207 -64t87 -179v-242q0 -115 -86.5 -179t-206.5 -64t-207 64t-87 179zM218 475v-242q0 -37 34 -57t81 -20q46 0 80 20.5t34 56.5v242q0 39 -34.5 59.5t-82.5 20.5q-45 0 -78.5 -21.5t-33.5 -58.5z" />
    <glyph glyph-name="omacron" unicode="&#x14d;" horiz-adv-x="493" 
d="M105 565v126h280v-126h-280zM35 173v164q0 90 62.5 140.5t148.5 50.5q85 0 148.5 -50.5t63.5 -140.5v-164q0 -87 -62.5 -135t-149.5 -48q-86 0 -148.5 49t-62.5 134zM246 378q-17 0 -31.5 -10.5t-14.5 -27.5v-169q0 -17 14 -28t32 -11t32 11t14 28v169q0 17 -14.5 27.5
t-31.5 10.5z" />
    <glyph glyph-name="Ohungarumlaut" unicode="&#x150;" horiz-adv-x="665" 
d="M390 916l-111 -158h-141l75 158h177zM622 916l-117 -158h-140l74 158h183zM39 233v242q0 115 86.5 179t206.5 64t207 -64t87 -179v-242q0 -115 -86.5 -179t-206.5 -64t-207 64t-87 179zM218 475v-242q0 -37 34 -57t81 -20q46 0 80 20.5t34 56.5v242q0 39 -34.5 59.5
t-82.5 20.5q-45 0 -78.5 -21.5t-33.5 -58.5z" />
    <glyph glyph-name="ohungarumlaut" unicode="&#x151;" horiz-adv-x="493" 
d="M304 714l-103 -148h-129l70 148h162zM507 714l-109 -148h-130l77 148h162zM35 173v164q0 90 62.5 140.5t148.5 50.5q85 0 148.5 -50.5t63.5 -140.5v-164q0 -87 -62.5 -135t-149.5 -48q-86 0 -148.5 49t-62.5 134zM246 378q-17 0 -31.5 -10.5t-14.5 -27.5v-169
q0 -17 14 -28t32 -11t32 11t14 28v169q0 17 -14.5 27.5t-31.5 10.5z" />
    <glyph glyph-name="OE" unicode="&#x152;" horiz-adv-x="812" 
d="M535 539v-105h212v-163h-212v-103h238v-168h-391v32q-53 -42 -122 -42q-105 0 -161.5 61t-56.5 161v278q0 101 62 164.5t150 63.5q68 0 128 -35v25h391v-169h-238zM382 171v368q-44 38 -102 21t-58 -71v-261q0 -43 25 -63.5t61 -20.5q52 0 74 27z" />
    <glyph glyph-name="oe" unicode="&#x153;" horiz-adv-x="742" 
d="M462 189v-8q0 -23 18.5 -40t47.5 -13.5t54 32.5l99 -79q-64 -90 -176 -90q-91 0 -132 65q-45 -62 -121 -64q-87 -2 -152 46.5t-65 135.5v163q0 90 62.5 140.5t149.5 50.5q81 0 129 -59q49 54 129 56q87 2 147.5 -47.5t60.5 -141.5v-147h-251zM560 300v42q0 24 -24.5 34.5
t-50 1.5t-27.5 -33v-45h102zM247 378q-17 0 -31.5 -10.5t-14.5 -27.5v-168q1 -17 14 -28t31 -11t31.5 11t14.5 28v171q-2 16 -15.5 25.5t-29.5 9.5z" />
    <glyph glyph-name="Racute" unicode="&#x154;" horiz-adv-x="646" 
d="M490 922l-131 -166h-155l100 166h186zM433 0l-164 225h-32v-225h-181v708h283q117 0 188 -57t75 -176q0 -189 -139 -232l193 -243h-223zM237 379h105q53 0 75 40.5t0 81t-75 40.5h-105v-162z" />
    <glyph glyph-name="racute" unicode="&#x155;" horiz-adv-x="353" 
d="M385 732l-131 -166h-149l100 166h180zM251 528q35 0 87 -13v-147q-40 20 -83 5.5t-43 -55.5v-318h-169v326q0 101 57.5 151.5t150.5 50.5z" />
    <glyph glyph-name="Rcommaaccent" unicode="&#x156;" horiz-adv-x="646" 
d="M433 0l-164 225h-32v-225h-181v708h283q117 0 188 -57t75 -176q0 -189 -139 -232l193 -243h-223zM237 379h105q53 0 75 40.5t0 81t-75 40.5h-105v-162zM443 -50l-75 -204h-163l61 204h177z" />
    <glyph glyph-name="rcommaaccent" unicode="&#x157;" horiz-adv-x="353" 
d="M251 528q35 0 87 -13v-147q-40 20 -83 5.5t-43 -55.5v-318h-169v326q0 101 57.5 151.5t150.5 50.5zM226 -56l-71 -192h-153l57 192h167z" />
    <glyph glyph-name="Rcaron" unicode="&#x158;" horiz-adv-x="646" 
d="M98 924h168l41 -52l46 52h167l-150 -168h-122zM433 0l-164 225h-32v-225h-181v708h283q117 0 188 -57t75 -176q0 -189 -139 -232l193 -243h-223zM237 379h105q53 0 75 40.5t0 81t-75 40.5h-105v-162z" />
    <glyph glyph-name="rcaron" unicode="&#x159;" horiz-adv-x="353" 
d="M-1 734h168l38 -51l39 51h167l-146 -168h-122zM251 528q35 0 87 -13v-147q-40 20 -83 5.5t-43 -55.5v-318h-169v326q0 101 57.5 151.5t150.5 50.5z" />
    <glyph glyph-name="Sacute" unicode="&#x15a;" horiz-adv-x="564" 
d="M467 922l-131 -166h-155l100 166h186zM22 118l113 106q21 -25 51 -41.5t60 -22t57 -3t45 16.5t19 36q2 28 -34.5 46t-86.5 25q-94 16 -156 72.5t-62 152.5q0 99 75.5 155.5t180.5 56.5q149 0 242 -113l-117 -90q-27 29 -62.5 44t-66 14t-52.5 -17.5t-23 -46.5
q4 -47 94 -66q43 -8 75 -17.5t67 -27.5t56.5 -42.5t34.5 -64t11 -89.5q-4 -96 -89 -154t-191 -58q-65 0 -128.5 33t-112.5 95z" />
    <glyph glyph-name="sacute" unicode="&#x15b;" horiz-adv-x="426" 
d="M401 732l-131 -166h-155l100 166h186zM24 74l75 100q57 -43 109 -38q17 1 24 13t-1 24t-29 15q-170 23 -170 174q0 63 48.5 114.5t132.5 51.5q99 0 179 -67l-82 -102q-59 29 -91 23q-12 -2 -17.5 -14.5t3.5 -23.5q14 -14 39 -20q71 -18 114 -52.5t43 -103.5
q0 -84 -56 -131t-136 -47q-113 0 -185 84z" />
    <glyph glyph-name="Scedilla" unicode="&#x15e;" horiz-adv-x="564" 
d="M299 443q43 -8 75 -17.5t67 -27.5t56.5 -42.5t34.5 -64t11 -89.5q-4 -76 -58.5 -129t-135.5 -72l-14 -32q38 -10 58.5 -36.5t18 -57.5t-17.5 -60.5t-48.5 -49t-75.5 -19.5q-83 0 -146 51l32 86q22 -16 45 -24.5t42 -5.5t24 21t-16.5 33.5t-59.5 18.5l30 67
q-117 19 -199 125l113 106q21 -25 51 -41.5t60 -22t57 -3t45 16.5t19 36q2 28 -34.5 46t-86.5 25q-94 16 -156 72.5t-62 152.5q0 99 75.5 155.5t180.5 56.5q149 0 242 -113l-117 -90q-27 29 -62.5 44t-66 14t-52.5 -17.5t-23 -46.5q4 -47 94 -66z" />
    <glyph glyph-name="scedilla" unicode="&#x15f;" horiz-adv-x="426" 
d="M401 168q0 -63 -32.5 -105.5t-86.5 -60.5l-19 -43q36 -9 56.5 -34t19.5 -54.5t-15 -57t-46.5 -46t-75.5 -18.5q-80 0 -138 48l30 81q23 -15 44 -23t38.5 -5.5t22.5 19.5t-15.5 31.5t-56.5 17.5l34 76q-81 14 -137 80l75 100q57 -43 109 -38q17 1 24 13t-1 24t-29 15
q-170 23 -170 174q0 63 48.5 114.5t132.5 51.5q99 0 179 -67l-82 -102q-59 29 -91 23q-12 -2 -17.5 -14.5t3.5 -23.5q14 -14 39 -20q71 -18 114 -52.5t43 -103.5z" />
    <glyph glyph-name="Scaron" unicode="&#x160;" horiz-adv-x="564" 
d="M75 924h168l41 -52l46 52h167l-150 -168h-122zM22 118l113 106q21 -25 51 -41.5t60 -22t57 -3t45 16.5t19 36q2 28 -34.5 46t-86.5 25q-94 16 -156 72.5t-62 152.5q0 99 75.5 155.5t180.5 56.5q149 0 242 -113l-117 -90q-27 29 -62.5 44t-66 14t-52.5 -17.5t-23 -46.5
q4 -47 94 -66q43 -8 75 -17.5t67 -27.5t56.5 -42.5t34.5 -64t11 -89.5q-4 -96 -89 -154t-191 -58q-65 0 -128.5 33t-112.5 95z" />
    <glyph glyph-name="scaron" unicode="&#x161;" horiz-adv-x="426" 
d="M9 734h168l41 -52l46 52h167l-150 -168h-122zM24 74l75 100q57 -43 109 -38q17 1 24 13t-1 24t-29 15q-170 23 -170 174q0 63 48.5 114.5t132.5 51.5q99 0 179 -67l-82 -102q-59 29 -91 23q-12 -2 -17.5 -14.5t3.5 -23.5q14 -14 39 -20q71 -18 114 -52.5t43 -103.5
q0 -84 -56 -131t-136 -47q-113 0 -185 84z" />
    <glyph glyph-name="Tcommaaccent" unicode="&#x162;" horiz-adv-x="585" 
d="M571 539h-188v-539h-181v539h-188v170h557v-170zM406 -50l-75 -204h-163l61 204h177z" />
    <glyph glyph-name="tcommaaccent" unicode="&#x163;" horiz-adv-x="336" 
d="M295 -52l-74 -200h-159l60 200h173zM313 143v-134q-45 -19 -96 -19q-76 0 -124.5 50t-48.5 146v449h158l9 -117h89v-143h-89v-179q0 -60 61 -60q15 0 41 7z" />
    <glyph glyph-name="Tcaron" unicode="&#x164;" horiz-adv-x="585" 
d="M79 924h168l41 -52l46 52h167l-150 -168h-122zM571 539h-188v-539h-181v539h-188v170h557v-170z" />
    <glyph glyph-name="tcaron" unicode="&#x165;" horiz-adv-x="336" 
d="M434 754l-62 -196h-126l38 196h150zM313 143v-134q-45 -19 -96 -19q-76 0 -124.5 50t-48.5 146v449h158l9 -117h89v-143h-89v-179q0 -60 61 -60q15 0 41 7z" />
    <glyph glyph-name="Tbar" unicode="&#x166;" horiz-adv-x="590" 
d="M386 345h76v-134h-76v-211h-181v211h-80v134h80v194h-188v170h557v-170h-188v-194z" />
    <glyph glyph-name="tbar" unicode="&#x167;" horiz-adv-x="346" 
d="M282 136q15 0 41 7v-134q-45 -19 -96 -19q-76 0 -124.5 50t-48.5 146v39h-42v98h42v312h158l10 -117h85v-142h-85v-53h64v-98h-64v-29q0 -60 60 -60z" />
    <glyph glyph-name="Umacron" unicode="&#x16a;" horiz-adv-x="667" 
d="M185 758v134h297v-134h-297zM233 708v-471q0 -41 31.5 -64t70 -23t70 23.5t31.5 63.5v471h181v-471q0 -79 -42 -137.5t-104.5 -84.5t-136 -26t-136 26t-104.5 84.5t-42 137.5v471h181z" />
    <glyph glyph-name="umacron" unicode="&#x16b;" horiz-adv-x="513" 
d="M113 573v131h292v-131h-292zM466 518v-486q-82 -42 -187 -42q-103 0 -169 46t-66 149v333h168v-332q0 -24 15 -36t38 -12q17 0 32 6v374h169z" />
    <glyph glyph-name="Uring" unicode="&#x16e;" horiz-adv-x="667" 
d="M203 851q0 51 39 85t94 34q54 0 92 -36t38 -83q0 -49 -38.5 -83t-91.5 -34q-55 0 -94 33.5t-39 83.5zM372 850q0 15 -10.5 26t-25.5 11q-17 0 -27.5 -11t-10.5 -26q0 -12 10.5 -22.5t27.5 -10.5q16 0 26 9t10 24zM233 708v-471q0 -41 31.5 -64t70 -23t70 23.5t31.5 63.5
v471h181v-471q0 -79 -42 -137.5t-104.5 -84.5t-136 -26t-136 26t-104.5 84.5t-42 137.5v471h181z" />
    <glyph glyph-name="uring" unicode="&#x16f;" horiz-adv-x="513" 
d="M124 670q0 54 39 90t94 36q54 0 92 -38t38 -89t-38.5 -87.5t-91.5 -36.5q-55 0 -94 36t-39 89zM293 668q0 16 -10.5 28t-25.5 12q-17 0 -27.5 -11.5t-10.5 -28.5q0 -13 10.5 -24t27.5 -11q16 0 26 9t10 26zM466 518v-486q-82 -42 -187 -42q-103 0 -169 46t-66 149v333
h168v-332q0 -24 15 -36t38 -12q17 0 32 6v374h169z" />
    <glyph glyph-name="Uhungarumlaut" unicode="&#x170;" horiz-adv-x="667" 
d="M393 914l-111 -158h-141l75 158h177zM625 914l-117 -158h-140l74 158h183zM233 708v-471q0 -41 31.5 -64t70 -23t70 23.5t31.5 63.5v471h181v-471q0 -79 -42 -137.5t-104.5 -84.5t-136 -26t-136 26t-104.5 84.5t-42 137.5v471h181z" />
    <glyph glyph-name="uhungarumlaut" unicode="&#x171;" horiz-adv-x="513" 
d="M314 724l-111 -158h-141l75 158h177zM546 724l-117 -158h-140l74 158h183zM466 518v-486q-82 -42 -187 -42q-103 0 -169 46t-66 149v333h168v-332q0 -24 15 -36t38 -12q17 0 32 6v374h169z" />
    <glyph glyph-name="Uogonek" unicode="&#x172;" horiz-adv-x="667" 
d="M616 708v-471q0 -145 -128 -212q-53 -39 -57 -91q-3 -38 23 -44q3 -1 6 -1q17 0 40 14l28 -107q-50 -40 -115 -40t-100 32t-30.5 86t49.5 114q-114 0 -197.5 65.5t-83.5 183.5v471h181v-471q0 -41 31.5 -64t70 -23t70 23.5t31.5 63.5v471h181z" />
    <glyph glyph-name="uogonek" unicode="&#x173;" horiz-adv-x="513" 
d="M466 -97l28 -107q-50 -40 -115 -40q-100 0 -123 73t52 162q-11 -1 -29 -1q-103 0 -169 46t-66 149v333h168v-332q0 -24 15 -36t38 -12q17 0 32 6v374h169v-486q-55 -47 -63 -101q-4 -40 23 -42q17 0 40 14z" />
    <glyph glyph-name="Wcircumflex" unicode="&#x174;" horiz-adv-x="915" 
d="M519 924l150 -168h-162l-46 52l-44 -52h-169l154 168h117zM644 367l86 341h185l-204 -708h-166l-63 196l-25 162h-3l-27 -161l-56 -197h-166l-205 708h186l84 -339l18 -150h5l17 149l79 248h136l73 -249l23 -148h3z" />
    <glyph glyph-name="wcircumflex" unicode="&#x175;" horiz-adv-x="754" 
d="M435 734l150 -168h-162l-46 52l-44 -52h-169l154 168h117zM507 185h3l16 108l54 225h171l-151 -518h-173l-34 127l-14 87h-3l-16 -87l-34 -127h-173l-150 518h170l54 -225l16 -108h3l58 323h145z" />
    <glyph glyph-name="Ycircumflex" unicode="&#x176;" horiz-adv-x="655" 
d="M382 924l150 -168h-162l-46 52l-44 -52h-169l154 168h117zM417 0h-179v279l-247 429h208l128 -260l128 260h210l-248 -429v-279z" />
    <glyph glyph-name="ycircumflex" unicode="&#x177;" horiz-adv-x="514" 
d="M312 734l150 -168h-162l-46 52l-44 -52h-169l154 168h117zM466 518v-506q0 -113 -58 -173t-157 -60q-105 0 -187 70l67 104q51 -31 95 -31q40 0 59.5 21.5t19.5 58.5q-31 -12 -78 -12q-76 0 -129.5 44t-53.5 130v354h163v-343q0 -23 15.5 -35t37.5 -12q23 0 40 11v379
h166z" />
    <glyph glyph-name="Ydieresis" unicode="&#x178;" horiz-adv-x="655" 
d="M119 834q0 36 24.5 60.5t59.5 24.5t59.5 -24.5t24.5 -60.5q0 -35 -24.5 -59t-59.5 -24t-59.5 24t-24.5 59zM360 834q0 36 24 60.5t60 24.5t60.5 -24.5t24.5 -60.5q0 -35 -24.5 -59t-60.5 -24t-60 23.5t-24 59.5zM417 0h-179v279l-247 429h208l128 -260l128 260h210
l-248 -429v-279z" />
    <glyph glyph-name="Zacute" unicode="&#x179;" horiz-adv-x="605" 
d="M494 922l-131 -166h-155l100 166h186zM36 708h515l38 -60l-305 -485l288 2v-165h-525l-33 66l306 476h-284v166z" />
    <glyph glyph-name="zacute" unicode="&#x17a;" horiz-adv-x="457" 
d="M419 732l-131 -166h-155l100 166h186zM36 518h364l33 -47l-183 -321h176v-150h-369l-38 52l182 316h-165v150z" />
    <glyph glyph-name="Zdotaccent" unicode="&#x17b;" horiz-adv-x="605" 
d="M212 851q0 41 28.5 69t70.5 28t69.5 -28t27.5 -69q0 -42 -27.5 -70t-69.5 -28t-70.5 28.5t-28.5 69.5zM36 708h515l38 -60l-305 -485l288 2v-165h-525l-33 66l306 476h-284v166z" />
    <glyph glyph-name="zdotaccent" unicode="&#x17c;" horiz-adv-x="457" 
d="M137 661q0 41 28.5 69t70.5 28t69.5 -28t27.5 -69q0 -42 -27.5 -70t-69.5 -28t-70.5 28.5t-28.5 69.5zM36 518h364l33 -47l-183 -321h176v-150h-369l-38 52l182 316h-165v150z" />
    <glyph glyph-name="Zcaron" unicode="&#x17d;" horiz-adv-x="605" 
d="M102 924h168l41 -52l46 52h167l-150 -168h-122zM36 708h515l38 -60l-305 -485l288 2v-165h-525l-33 66l306 476h-284v166z" />
    <glyph glyph-name="zcaron" unicode="&#x17e;" horiz-adv-x="457" 
d="M27 734h168l41 -52l46 52h167l-150 -168h-122zM36 518h364l33 -47l-183 -321h176v-150h-369l-38 52l182 316h-165v150z" />
    <glyph glyph-name="florin" unicode="&#x192;" horiz-adv-x="510" 
d="M11 -83l41 123q55 -27 65 29l45 235h-71v146h98l21 96q12 70 58 117t106.5 51.5t126.5 -44.5l-56 -108q-53 23 -64 -34l-18 -78h70v-146h-96l-49 -269q-19 -100 -102.5 -134.5t-174.5 16.5z" />
    <glyph glyph-name="Scommaaccent" unicode="&#x218;" horiz-adv-x="564" 
d="M22 118l113 106q21 -25 51 -41.5t60 -22t57 -3t45 16.5t19 36q2 28 -34.5 46t-86.5 25q-94 16 -156 72.5t-62 152.5q0 99 75.5 155.5t180.5 56.5q149 0 242 -113l-117 -90q-27 29 -62.5 44t-66 14t-52.5 -17.5t-23 -46.5q4 -47 94 -66q43 -8 75 -17.5t67 -27.5
t56.5 -42.5t34.5 -64t11 -89.5q-4 -96 -89 -154t-191 -58q-65 0 -128.5 33t-112.5 95zM380 -50l-75 -204h-163l61 204h177z" />
    <glyph glyph-name="scommaaccent" unicode="&#x219;" horiz-adv-x="426" 
d="M24 74l75 100q57 -43 109 -38q17 1 24 13t-1 24t-29 15q-170 23 -170 174q0 63 48.5 114.5t132.5 51.5q99 0 179 -67l-82 -102q-59 29 -91 23q-12 -2 -17.5 -14.5t3.5 -23.5q14 -14 39 -20q71 -18 114 -52.5t43 -103.5q0 -84 -56 -131t-136 -47q-113 0 -185 84zM310 -52
l-69 -187h-149l55 187h163z" />
    <glyph glyph-name="uni021A" unicode="&#x21a;" horiz-adv-x="585" 
d="M571 539h-188v-539h-181v539h-188v170h557v-170zM406 -50l-75 -204h-163l61 204h177z" />
    <glyph glyph-name="uni021B" unicode="&#x21b;" horiz-adv-x="336" 
d="M295 -52l-74 -200h-159l60 200h173zM313 143v-134q-45 -19 -96 -19q-76 0 -124.5 50t-48.5 146v449h158l9 -117h89v-143h-89v-179q0 -60 61 -60q15 0 41 7z" />
    <glyph glyph-name="circumflex" unicode="&#x2c6;" horiz-adv-x="501" 
d="M311 924l150 -168h-162l-46 52l-44 -52h-169l154 168h117z" />
    <glyph glyph-name="caron" unicode="&#x2c7;" horiz-adv-x="441" 
d="M14 924h168l41 -52l46 52h167l-150 -168h-122z" />
    <glyph glyph-name="uni02C9" unicode="&#x2c9;" horiz-adv-x="330" 
d="M50 758v134h297v-134h-297z" />
    <glyph glyph-name="breve" unicode="&#x2d8;" horiz-adv-x="450" 
d="M265 922h135q0 -55 -26 -96t-65 -59t-84 -18t-84 18t-65 59t-26 96h137q0 -24 19.5 -34t39 0t19.5 34z" />
    <glyph glyph-name="dotaccent" unicode="&#x2d9;" horiz-adv-x="296" 
d="M50 851q0 41 28.5 69t70.5 28t69.5 -28t27.5 -69q0 -42 -27.5 -70t-69.5 -28t-70.5 28.5t-28.5 69.5z" />
    <glyph glyph-name="ring" unicode="&#x2da;" horiz-adv-x="359" 
d="M48 871q0 54 39 90t94 36q54 0 92 -38t38 -89t-38.5 -87.5t-91.5 -36.5q-55 0 -94 36t-39 89zM217 869q0 16 -10.5 28t-25.5 12q-17 0 -27.5 -11.5t-10.5 -28.5q0 -13 10.5 -24t27.5 -11q16 0 26 9t10 26z" />
    <glyph glyph-name="ogonek" unicode="&#x2db;" horiz-adv-x="380" 
d="M276 11l5 -11q-55 -55 -48 -91q4 -20 29 -20q17 0 40 14l28 -107q-50 -40 -115 -40q-69 0 -103.5 36t-24 95.5t67.5 123.5h121z" />
    <glyph glyph-name="tilde" unicode="&#x2dc;" horiz-adv-x="465" 
d="M137 745l-87 49q22 121 127 118q16 0 35 -7.5t34 -15.5t29.5 -12t27 3t21.5 28l91 -52q-14 -56 -40.5 -85t-63.5 -28q-25 0 -55 11t-48 19.5t-37.5 3.5t-33.5 -32z" />
    <glyph glyph-name="hungarumlaut" unicode="&#x2dd;" horiz-adv-x="534" 
d="M302 914l-111 -158h-141l75 158h177zM534 914l-117 -158h-140l74 158h183z" />
    <glyph glyph-name="uni0326" unicode="&#x326;" horiz-adv-x="0" 
d="M401 -50l-75 -204h-163l61 204h177z" />
    <glyph glyph-name="uni03A9" unicode="&#x3a9;" horiz-adv-x="776" 
d="M40 176h65q-60 78 -60 198q0 81 29 146.5t77.5 106t108.5 62t126 21.5t127.5 -22t111 -62.5t79 -105t29.5 -142.5q0 -122 -63 -202h64v-176h-333v141q161 50 161 221q0 74 -45.5 125t-130.5 51q-80 0 -125.5 -54t-45.5 -130q0 -72 40 -131t117 -82v-141h-332v176z" />
    <glyph glyph-name="uni03BC" unicode="&#x3bc;" horiz-adv-x="530" 
d="M337 -1l-6 38q-25 -38 -58 -38t-54 35v-206h-171v688h171v-310q0 -31 22.5 -44.5t45 -1t22.5 44.5v311h172l2 -518z" />
    <glyph glyph-name="pi" unicode="&#x3c0;" horiz-adv-x="575" 
d="M531 130l1 -135q-212 -20 -212 174v199h-51v-368h-168v353l-63 -14l-33 126l19 17q64 42 133 42h389l-16 -156h-40v-196q0 -42 41 -42z" />
    <glyph glyph-name="uni0401" unicode="&#x401;" 
d="M104 834q0 36 24.5 60.5t59.5 24.5t59.5 -24.5t24.5 -60.5q0 -35 -24.5 -59t-59.5 -24t-59.5 24t-24.5 59zM345 834q0 36 24 60.5t60 24.5t60.5 -24.5t24.5 -60.5q0 -35 -24.5 -59t-60.5 -24q-37 0 -60.5 23.5t-23.5 59.5zM237 540v-110h287v-155h-287v-106h312v-169
h-493v708h493v-168h-312z" />
    <glyph glyph-name="uni0410" unicode="&#x410;" horiz-adv-x="648" 
d="M404 708l253 -708h-192l-46 142h-189l-44 -142h-192l247 708h163zM270 301h106l-49 207h-5z" />
    <glyph glyph-name="uni0411" unicode="&#x411;" horiz-adv-x="616" 
d="M598 231q0 -106 -68 -168.5t-185 -62.5h-289v708h484v-150h-304v-110h104q142 0 200 -53t58 -164zM236 157h104q81 0 81 83q0 78 -82 78h-103v-161z" />
    <glyph glyph-name="uni0412" unicode="&#x412;" horiz-adv-x="626" 
d="M570 492q0 -29 -19 -63t-54 -52q65 -32 86.5 -87t13.5 -107q-30 -183 -252 -183h-289v708h284q104 0 168 -58t62 -158zM236 431h104q31 0 49 19.5t18.5 43.5t-17.5 43.5t-50 19.5h-104v-126zM236 157h104q38 0 59.5 22.5t21.5 50t-21.5 50t-59.5 22.5h-104v-145z" />
    <glyph glyph-name="uni0413" unicode="&#x413;" horiz-adv-x="510" 
d="M56 708h441v-170h-261v-538h-180v708z" />
    <glyph glyph-name="uni0414" unicode="&#x414;" horiz-adv-x="746" 
d="M201 -142h-183v303q23 0 41.5 4.5t32 16.5t23.5 23t17 33.5t11.5 37t7.5 45t4.5 46.5t3.5 52t3 52l17 237h462v-547h86v-303h-180v142h-346v-142zM461 161v377h-120l-15 -215q-6 -102 -30 -162h165z" />
    <glyph glyph-name="uni0415" unicode="&#x415;" 
d="M237 540v-110h287v-155h-287v-106h312v-169h-493v708h493v-168h-312z" />
    <glyph glyph-name="uni0416" unicode="&#x416;" horiz-adv-x="948" 
d="M384 0v260l-6 8l-163 -268h-223l252 360l-253 348h216l177 -265v265h180v-265l177 265h216l-253 -348l252 -360h-223l-163 268l-6 -8v-260h-180z" />
    <glyph glyph-name="uni0417" unicode="&#x417;" horiz-adv-x="570" 
d="M441 377q101 -50 101 -165q0 -106 -74.5 -164t-209.5 -58q-83 0 -151 36.5t-108 102.5l114 89q63 -71 135 -71q114 0 114 76q0 38 -24 59.5t-68 21.5h-105v123h101q40 0 62.5 19.5t22.5 54.5q0 31 -23 49t-67 18q-54 0 -129 -50l-94 92q88 108 236 108q117 0 180.5 -54
t63.5 -151q0 -38 -20.5 -77.5t-56.5 -58.5z" />
    <glyph glyph-name="uni0418" unicode="&#x418;" horiz-adv-x="685" 
d="M449 0v283l3 21q2 6 3.5 21.5t2.5 23.5q4 25 9 67l-5 1l-67 -138l-170 -279h-169v708h180v-321l-8 -53q-3 -17 -7 -53l4 -1l59 127l181 301h164v-708h-180z" />
    <glyph glyph-name="uni0419" unicode="&#x419;" horiz-adv-x="685" 
d="M338 766q-75 0 -128 46t-53 128h139q0 -18 12 -29.5t30 -11.5t30 11.5t12 29.5h139q0 -82 -53 -128t-128 -46zM449 0v283l3 21q2 6 3.5 21.5t2.5 23.5q4 25 9 67l-5 1l-67 -138l-170 -279h-169v708h180v-321l-8 -53q-3 -17 -7 -53l4 -1l59 127l181 301h164v-708h-180z
" />
    <glyph glyph-name="uni041A" unicode="&#x41a;" horiz-adv-x="640" 
d="M236 446l192 262h223l-280 -348l279 -360h-225l-183 253l-6 -8v-245h-180v708h180v-262z" />
    <glyph glyph-name="uni041B" unicode="&#x41b;" horiz-adv-x="709" 
d="M342 538l-12 -215q-3 -66 -20.5 -123.5t-52 -107.5t-96 -75.5t-144.5 -16.5v167q24 -1 43 3t33 14.5t24.5 22t17 32.5t11 37.5t7.5 45t4 46.5t3 51.5t3 51.5l17 237h473v-708h-180v538h-131z" />
    <glyph glyph-name="uni041C" unicode="&#x41c;" horiz-adv-x="769" 
d="M56 0v708h179l149 -346l150 346h179v-708h-180l1 204l11 143l-6 1l-93 -243h-123l-95 243l-5 -1l12 -143v-204h-179z" />
    <glyph glyph-name="uni041D" unicode="&#x41d;" horiz-adv-x="676" 
d="M236 267v-267h-180v708h180v-268h204v268h180v-708h-180v267h-204z" />
    <glyph glyph-name="uni041E" unicode="&#x41e;" horiz-adv-x="665" 
d="M39 233v242q0 115 86.5 179t206.5 64t207 -64t87 -179v-242q0 -115 -86.5 -179t-206.5 -64t-207 64t-87 179zM218 475v-242q0 -37 34 -57t81 -20q46 0 80 20.5t34 56.5v242q0 39 -34.5 59.5t-82.5 20.5q-45 0 -78.5 -21.5t-33.5 -58.5z" />
    <glyph glyph-name="uni041F" unicode="&#x41f;" horiz-adv-x="671" 
d="M236 538v-538h-180v708h559v-708h-180v538h-199z" />
    <glyph glyph-name="uni0420" unicode="&#x420;" horiz-adv-x="618" 
d="M56 0v708h283q122 0 190.5 -74t68.5 -176t-68.5 -176.5t-189.5 -74.5h-105v-207h-179zM235 366h104q38 0 60 27.5t22 60t-22 60t-60 27.5h-104v-175z" />
    <glyph glyph-name="uni0421" unicode="&#x421;" horiz-adv-x="582" 
d="M417 221l156 -72q-28 -55 -72.5 -92t-90 -52t-92.5 -15q-113 0 -196 64t-83 178v244q0 77 41.5 133t104.5 82.5t136 26.5q75 0 142.5 -38t106.5 -125l-146 -59q-23 42 -73.5 53.5t-91.5 -10t-41 -63.5v-244q0 -41 41.5 -62.5t90.5 -8t67 59.5z" />
    <glyph glyph-name="uni0422" unicode="&#x422;" horiz-adv-x="585" 
d="M571 539h-188v-539h-181v539h-188v170h557v-170z" />
    <glyph glyph-name="uni0423" unicode="&#x423;" horiz-adv-x="600" 
d="M246 554l48 -128h5l53 138l64 144h199l-320 -708h-193l104 229l-233 479h203z" />
    <glyph glyph-name="uni0424" unicode="&#x424;" horiz-adv-x="804" 
d="M317 0v58q-122 0 -206.5 58.5t-84.5 176.5v122q0 118 84.5 176.5t206.5 58.5v58h170v-58q122 0 206.5 -58.5t84.5 -176.5v-122q0 -118 -84.5 -176.5t-206.5 -58.5v-58h-170zM206 416v-124q0 -72 111 -72v268q-111 0 -111 -72zM598 292v124q0 72 -111 72v-268
q111 0 111 72z" />
    <glyph glyph-name="uni0425" unicode="&#x425;" horiz-adv-x="656" 
d="M327 466l124 242h208l-198 -355l198 -353h-208l-124 241l-121 -241h-209l199 353l-199 355h209z" />
    <glyph glyph-name="uni0426" unicode="&#x426;" horiz-adv-x="715" 
d="M56 0v708h180v-538h193v538h180v-538h86v-312h-170v142h-469z" />
    <glyph glyph-name="uni0427" unicode="&#x427;" horiz-adv-x="639" 
d="M403 0v237q-19 -16 -54 -28t-75 -12q-100 0 -171 64.5t-71 178.5v268h180v-268q0 -71 77 -73q76 0 113 34l1 307h180v-708h-180z" />
    <glyph glyph-name="uni0428" unicode="&#x428;" horiz-adv-x="988" 
d="M56 708h180v-538h168v538h180v-538h168v538h180v-708h-876v708z" />
    <glyph glyph-name="uni0429" unicode="&#x429;" horiz-adv-x="1038" 
d="M752 708h180v-538h86v-312h-170v142h-792v708h180v-538h168v538h180v-538h168v538z" />
    <glyph glyph-name="uni042A" unicode="&#x42a;" horiz-adv-x="714" 
d="M152 538h-135v170h315v-241h106q137 0 196 -58t59 -166q0 -107 -67.5 -175t-182.5 -68h-291v538zM332 157h106q42 0 60.5 25t18.5 63q0 39 -21 59.5t-58 20.5h-106v-168z" />
    <glyph glyph-name="uni042B" unicode="&#x42b;" horiz-adv-x="915" 
d="M597 243q0 -107 -67.5 -175t-182.5 -68h-291v708h180v-241h106q137 0 196 -58t59 -166zM859 708v-708h-179v708h179zM236 157h106q42 0 60.5 25t18.5 63q0 39 -21 59.5t-58 20.5h-106v-168z" />
    <glyph glyph-name="uni042C" unicode="&#x42c;" horiz-adv-x="618" 
d="M597 243q0 -107 -67.5 -175t-182.5 -68h-291v708h180v-241h106q137 0 196 -58t59 -166zM236 157h106q42 0 60.5 25t18.5 63q0 39 -21 59.5t-58 20.5h-106v-168z" />
    <glyph glyph-name="uni042D" unicode="&#x42d;" 
d="M369 233v50h-157v149h157v42q0 35 -29.5 56t-70.5 21q-75 0 -106 -57l-146 59q39 87 106.5 126t142.5 39q73 0 136 -27t105 -83.5t42 -133.5v-241q0 -114 -83.5 -178.5t-196.5 -64.5q-47 0 -92.5 15.5t-90 52.5t-72.5 92l156 72q26 -62 104 -62q38 0 66.5 20t28.5 53z
" />
    <glyph glyph-name="uni042E" unicode="&#x42e;" horiz-adv-x="974" 
d="M346 439v36q0 115 87 179t207 64t207.5 -64t87.5 -179v-242q0 -115 -87 -179t-207 -64t-207.5 64t-87.5 179v42h-112v-275h-180v708h180v-269h112zM526 468v-231q0 -36 34 -56.5t80 -20.5q47 0 81 20t34 57v231q0 38 -34.5 59t-80.5 21q-45 0 -79.5 -22t-34.5 -58z" />
    <glyph glyph-name="uni042F" unicode="&#x42f;" horiz-adv-x="646" 
d="M590 0h-180v238h-29l-190 -238h-223l216 256q-144 48 -144 219q3 111 73.5 172t194.5 61h282v-708zM410 538h-105q-41 0 -63 -20t-22 -57t21.5 -59.5t63.5 -22.5h105v159z" />
    <glyph glyph-name="uni0430" unicode="&#x430;" horiz-adv-x="483" 
d="M218 323q37 0 60 -4q4 74 -70 74q-47 0 -90 -37l-78 79q69 93 196 93q87 0 146 -47.5t59 -137.5v-318q-98 -35 -200 -35q-109 0 -163.5 44.5t-54.5 127.5q0 70 50.5 115.5t144.5 45.5zM276 120v89q-35 10 -65 -2.5t-30 -43.5q0 -36 33 -45t62 2z" />
    <glyph glyph-name="uni0431" unicode="&#x431;" horiz-adv-x="511" 
d="M298 485q79 0 128.5 -49t49.5 -134v-129q0 -86 -64 -134.5t-152 -48.5t-152 48.5t-64 134.5v358q0 40 13 70.5t30.5 47.5t46 29t47.5 16.5t48 8.5q126 18 175 48l49 -126q-48 -35 -142 -49q-4 0 -18.5 -1.5t-20 -2.5t-17.5 -4t-17 -7t-12 -10.5t-9.5 -17t-2.5 -23.5v-48
q31 23 84 23zM306 179v126q0 17 -14 27.5t-32 10.5q-31 0 -46 -15v-149q0 -17 13.5 -28t32.5 -11t32.5 11t13.5 28z" />
    <glyph glyph-name="uni0432" unicode="&#x432;" horiz-adv-x="517" 
d="M471 385q0 -77 -63 -109q47 -22 63.5 -55.5t16.5 -80.5q0 -69 -55 -104.5t-160 -35.5h-225v518h225q105 0 151.5 -33t46.5 -100zM218 315h51q23 0 36 12.5t13 31.5q-1 44 -52 44h-48v-88zM218 115h51q57 0 59 51q1 27 -14 38.5t-45 11.5h-51v-101z" />
    <glyph glyph-name="uni0433" unicode="&#x433;" horiz-adv-x="399" 
d="M218 0h-170v518h338v-150h-168v-368z" />
    <glyph glyph-name="uni0434" unicode="&#x434;" horiz-adv-x="598" 
d="M576 -118h-159v118h-240v-118h-159v256h5q50 0 69 34.5t25 118.5l20 227h375v-380h64v-256zM247 138h102v237h-70l-11 -154q-5 -55 -21 -83z" />
    <glyph glyph-name="uni0435" unicode="&#x435;" horiz-adv-x="479" 
d="M189 199v-19q0 -28 21 -43.5t52 -15.5q50 0 79 35l94 -76q-64 -90 -185 -90q-87 0 -151 50t-64 140v162q0 91 63 138.5t150 47.5q84 0 143 -49t59 -140v-140h-261zM304 310v37q0 22 -16.5 33.5t-39.5 11.5t-40 -12.5t-17 -35.5v-34h113z" />
    <glyph glyph-name="uni0436" unicode="&#x436;" horiz-adv-x="747" 
d="M291 0v167l-100 -167h-188l181 267l-182 251h190l99 -171v171h165v-171l99 171h190l-182 -251l181 -267h-188l-100 167v-167h-165z" />
    <glyph glyph-name="uni0437" unicode="&#x437;" horiz-adv-x="443" 
d="M11 86l90 74q39 -40 92 -40q60 0 62 44q1 24 -12.5 36.5t-42.5 12.5h-65v102h61q49 0 49 47q0 38 -53 38q-38 0 -77 -34l-83 75q57 87 185 87q76 0 128.5 -34t52.5 -102q0 -40 -17 -70.5t-46 -45.5q80 -38 80 -129q0 -76 -58 -116.5t-139 -40.5q-70 0 -127 24t-80 72z
" />
    <glyph glyph-name="uni0438" unicode="&#x438;" horiz-adv-x="557" 
d="M339 179l13 113l-4 1l-28 -90l-104 -203h-168v518h170v-199l-10 -111l3 -1l32 89l99 222h167v-518h-170v179z" />
    <glyph glyph-name="uni0439" unicode="&#x439;" horiz-adv-x="557" 
d="M336 756h132q0 -67 -37 -113.5t-89 -56.5t-104 0.5t-87 56.5t-33 113h132q0 -29 21.5 -41t43 0t21.5 41zM339 179l13 113l-4 1l-28 -90l-104 -203h-168v518h170v-199l-10 -111l3 -1l32 89l99 222h167v-518h-170v179z" />
    <glyph glyph-name="uni043A" unicode="&#x43a;" horiz-adv-x="522" 
d="M218 357l111 161h193l-188 -251l187 -267h-191l-112 166v-166h-170v518h170v-161z" />
    <glyph glyph-name="uni043B" unicode="&#x43b;" horiz-adv-x="551" 
d="M503 0h-170v368h-51l-14 -180q-10 -109 -65.5 -148.5t-184.5 -39.5v137q51 0 71.5 34.5t26.5 119.5l19 227h368v-518z" />
    <glyph glyph-name="uni043C" unicode="&#x43c;" horiz-adv-x="656" 
d="M277 76l-68 185h-5l14 -112v-149h-170v518h181l99 -261l99 261h181v-518h-170v149l14 112h-5l-67 -185h-103z" />
    <glyph glyph-name="uni043D" unicode="&#x43d;" horiz-adv-x="525" 
d="M477 0h-170v195h-89v-195h-170v518h170v-173h89v173h170v-518z" />
    <glyph glyph-name="uni043E" unicode="&#x43e;" horiz-adv-x="493" 
d="M35 173v164q0 90 62.5 140.5t148.5 50.5q85 0 148.5 -50.5t63.5 -140.5v-164q0 -87 -62.5 -135t-149.5 -48q-86 0 -148.5 49t-62.5 134zM246 378q-17 0 -31.5 -10.5t-14.5 -27.5v-169q0 -17 14 -28t32 -11t32 11t14 28v169q0 17 -14.5 27.5t-31.5 10.5z" />
    <glyph glyph-name="uni043F" unicode="&#x43f;" horiz-adv-x="527" 
d="M479 0h-170v368h-91v-368h-170v518h431v-518z" />
    <glyph glyph-name="uni0440" unicode="&#x440;" horiz-adv-x="521" 
d="M51 -186v670q117 44 218 44q203 0 214 -178v-177q2 -80 -61 -131.5t-142 -51.5q-30 0 -59 9v-185h-170zM221 387v-259q15 -7 34 -7q23 0 40.5 10.5t17.5 32.5v186q0 21 -18 31.5t-42 10.5q-15 0 -32 -5z" />
    <glyph glyph-name="uni0441" unicode="&#x441;" horiz-adv-x="462" 
d="M303 175l146 -33q-25 -79 -82.5 -115.5t-119.5 -36.5q-88 0 -150 46t-62 139v163q0 90 63.5 140t148.5 50q62 0 116 -33t76 -109l-142 -44q-10 44 -52 44q-18 0 -31.5 -12t-13.5 -32v-166q0 -20 13.5 -32t33.5 -12q44 0 56 43z" />
    <glyph glyph-name="uni0442" unicode="&#x442;" horiz-adv-x="460" 
d="M444 378h-129v-378h-170v378h-129v140h428v-140z" />
    <glyph glyph-name="uni0443" unicode="&#x443;" horiz-adv-x="514" 
d="M466 518v-506q0 -113 -58 -173t-157 -60q-105 0 -187 70l67 104q51 -31 95 -31q40 0 59.5 21.5t19.5 58.5q-31 -12 -78 -12q-76 0 -129.5 44t-53.5 130v354h163v-343q0 -23 15.5 -35t37.5 -12q23 0 40 11v379h166z" />
    <glyph glyph-name="uni0444" unicode="&#x444;" horiz-adv-x="724" 
d="M279 -186l1 188q-22 -12 -62 -12q-92 0 -135.5 45.5t-43.5 127.5v192q0 82 43.5 127.5t135.5 45.5q39 0 61 -12v192h165v-192q22 12 62 12q92 0 135.5 -45.5t43.5 -127.5v-192q0 -82 -43.5 -127.5t-135.5 -45.5q-40 0 -62 12v-188h-165zM209 346v-174q0 -44 43 -44
q16 0 28 9v244q-12 9 -28 9q-43 0 -43 -44zM515 172v174q0 44 -43 44q-16 0 -28 -9v-244q12 -9 28 -9q43 0 43 44z" />
    <glyph glyph-name="uni0445" unicode="&#x445;" horiz-adv-x="527" 
d="M239 94l-54 -94h-180l158 259l-159 259h183l53 -91l21 -65h1l19 67l52 89h188l-162 -257q67 -95 166 -261h-192l-57 95l-17 58h-2z" />
    <glyph glyph-name="uni0446" unicode="&#x446;" horiz-adv-x="564" 
d="M543 138v-266h-148l-10 128h-337v518h170v-380h89v380h170v-380h66z" />
    <glyph glyph-name="uni0447" unicode="&#x447;" horiz-adv-x="501" 
d="M453 0h-170v163q-32 -22 -86 -22q-28 0 -55 8t-54 26t-44 53t-17 82v208h170v-180q0 -47 43 -47q24 0 43 12v215h170v-518z" />
    <glyph glyph-name="uni0448" unicode="&#x448;" horiz-adv-x="766" 
d="M48 518h170v-373h80v373h170v-373h80v373h170v-518h-670v518z" />
    <glyph glyph-name="uni0449" unicode="&#x449;" horiz-adv-x="805" 
d="M48 0v518h170v-380h80v380h170v-380h80v380h170v-380h65v-266h-147l-10 128h-578z" />
    <glyph glyph-name="uni044A" unicode="&#x44a;" horiz-adv-x="565" 
d="M12 396v122h267v-169h85q91 0 138 -46.5t47 -132.5q0 -93 -53 -131.5t-162 -38.5h-225v396h-97zM279 115h51q28 0 43 16.5t16 43.5q1 63 -59 63h-51v-123z" />
    <glyph glyph-name="uni044B" unicode="&#x44b;" horiz-adv-x="759" 
d="M218 349h85q91 0 138 -46.5t47 -132.5q0 -93 -53 -131.5t-162 -38.5h-225v518h170v-169zM542 0v518h169v-518h-169zM218 115h51q28 0 43 16.5t16 43.5q2 63 -59 63h-51v-123z" />
    <glyph glyph-name="uni044C" unicode="&#x44c;" horiz-adv-x="504" 
d="M218 349h85q91 0 138 -46.5t47 -132.5q0 -93 -53 -131.5t-162 -38.5h-225v518h170v-169zM218 115h51q28 0 43 16.5t16 43.5q2 63 -59 63h-51v-123z" />
    <glyph glyph-name="uni044D" unicode="&#x44d;" horiz-adv-x="470" 
d="M218 528q86 0 151.5 -50.5t65.5 -139.5v-159q0 -90 -65 -139.5t-152 -49.5q-39 0 -75.5 11.5t-73 46.5t-53.5 90l141 33q21 -55 60 -55q20 0 34 11.5t14 32.5v41h-86v101h86v33q0 20 -13.5 32t-31.5 12q-18 1 -32.5 -10.5t-19.5 -33.5l-142 51q22 76 76 109t116 33z" />
    <glyph glyph-name="uni044E" unicode="&#x44e;" horiz-adv-x="739" 
d="M216 518v-182h56q0 90 65 141t151 51t151 -50.5t65 -140.5v-164q0 -86 -64 -134.5t-152 -48.5t-152 48.5t-64 134.5v27h-56v-200h-169v518h169zM488 140q19 0 32 10.5t14 28.5v161q0 17 -14 27.5t-32 10.5t-32 -10.5t-14 -27.5v-161q1 -18 14 -28.5t32 -10.5z" />
    <glyph glyph-name="uni044F" unicode="&#x44f;" horiz-adv-x="523" 
d="M475 0h-170l1 181h-4l-112 -181h-190l146 201q-108 39 -108 150q0 167 223 167h214v-518zM305 402h-46q-29 0 -45.5 -14.5t-16.5 -41.5q0 -60 62 -60h46v116z" />
    <glyph glyph-name="uni0451" unicode="&#x451;" horiz-adv-x="479" 
d="M43 644q0 36 24.5 60.5t59.5 24.5t59.5 -24.5t24.5 -60.5q0 -35 -24.5 -59t-59.5 -24t-59.5 24t-24.5 59zM274 644q0 36 24 60.5t60 24.5t60.5 -24.5t24.5 -60.5q0 -35 -24.5 -59t-60.5 -24t-60 23.5t-24 59.5zM189 199v-19q0 -28 21 -43.5t52 -15.5q50 0 79 35l94 -76
q-64 -90 -185 -90q-87 0 -151 50t-64 140v162q0 91 63 138.5t150 47.5q84 0 143 -49t59 -140v-140h-261zM304 310v37q0 22 -16.5 33.5t-39.5 11.5t-40 -12.5t-17 -35.5v-34h113z" />
    <glyph glyph-name="Wgrave" unicode="&#x1e80;" horiz-adv-x="915" 
d="M563 756h-155l-131 166h186zM644 367l86 341h185l-204 -708h-166l-63 196l-25 162h-3l-27 -161l-56 -197h-166l-205 708h186l84 -339l18 -150h5l17 149l79 248h136l73 -249l23 -148h3z" />
    <glyph glyph-name="wgrave" unicode="&#x1e81;" horiz-adv-x="754" 
d="M479 566h-155l-131 166h186zM507 185h3l16 108l54 225h171l-151 -518h-173l-34 127l-14 87h-3l-16 -87l-34 -127h-173l-150 518h170l54 -225l16 -108h3l58 323h145z" />
    <glyph glyph-name="Wacute" unicode="&#x1e82;" horiz-adv-x="915" 
d="M644 922l-131 -166h-155l100 166h186zM644 367l86 341h185l-204 -708h-166l-63 196l-25 162h-3l-27 -161l-56 -197h-166l-205 708h186l84 -339l18 -150h5l17 149l79 248h136l73 -249l23 -148h3z" />
    <glyph glyph-name="wacute" unicode="&#x1e83;" horiz-adv-x="754" 
d="M560 732l-131 -166h-155l100 166h186zM507 185h3l16 108l54 225h171l-151 -518h-173l-34 127l-14 87h-3l-16 -87l-34 -127h-173l-150 518h170l54 -225l16 -108h3l58 323h145z" />
    <glyph glyph-name="Wdieresis" unicode="&#x1e84;" horiz-adv-x="915" 
d="M256 834q0 36 24.5 60.5t59.5 24.5t59.5 -24.5t24.5 -60.5q0 -35 -24.5 -59t-59.5 -24t-59.5 24t-24.5 59zM497 834q0 36 24 60.5t60 24.5t60.5 -24.5t24.5 -60.5q0 -35 -24.5 -59t-60.5 -24q-37 0 -60.5 23.5t-23.5 59.5zM644 367l86 341h185l-204 -708h-166l-63 196
l-25 162h-3l-27 -161l-56 -197h-166l-205 708h186l84 -339l18 -150h5l17 149l79 248h136l73 -249l23 -148h3z" />
    <glyph glyph-name="wdieresis" unicode="&#x1e85;" horiz-adv-x="754" 
d="M172 644q0 36 24.5 60.5t59.5 24.5t59.5 -24.5t24.5 -60.5q0 -35 -24.5 -59t-59.5 -24t-59.5 24t-24.5 59zM413 644q0 36 24 60.5t60 24.5t60.5 -24.5t24.5 -60.5q0 -35 -24.5 -59t-60.5 -24q-37 0 -60.5 23.5t-23.5 59.5zM507 185h3l16 108l54 225h171l-151 -518h-173
l-34 127l-14 87h-3l-16 -87l-34 -127h-173l-150 518h170l54 -225l16 -108h3l58 323h145z" />
    <glyph glyph-name="Ygrave" unicode="&#x1ef2;" horiz-adv-x="655" 
d="M426 756h-155l-131 166h186zM417 0h-179v279l-247 429h208l128 -260l128 260h210l-248 -429v-279z" />
    <glyph glyph-name="ygrave" unicode="&#x1ef3;" horiz-adv-x="514" 
d="M356 566h-155l-131 166h186zM466 518v-506q0 -113 -58 -173t-157 -60q-105 0 -187 70l67 104q51 -31 95 -31q40 0 59.5 21.5t19.5 58.5q-31 -12 -78 -12q-76 0 -129.5 44t-53.5 130v354h163v-343q0 -23 15.5 -35t37.5 -12q23 0 40 11v379h166z" />
    <glyph glyph-name="endash" unicode="&#x2013;" horiz-adv-x="571" 
d="M525 374v-169h-479v169h479z" />
    <glyph glyph-name="emdash" unicode="&#x2014;" horiz-adv-x="868" 
d="M822 374v-169h-776v169h776z" />
    <glyph glyph-name="quoteleft" unicode="&#x2018;" horiz-adv-x="310" 
d="M23 492l113 217h157l-68 -217h-202z" />
    <glyph glyph-name="quoteright" unicode="&#x2019;" horiz-adv-x="299" 
d="M289 706l-103 -206h-157l58 206h202z" />
    <glyph glyph-name="quotesinglbase" unicode="&#x201a;" horiz-adv-x="295" 
d="M260 115l-117 -219h-152l74 219h195z" />
    <glyph glyph-name="quotedblleft" unicode="&#x201c;" horiz-adv-x="544" 
d="M23 492l113 217h157l-68 -217h-202zM257 492l113 217h157l-68 -217h-202z" />
    <glyph glyph-name="quotedblright" unicode="&#x201d;" horiz-adv-x="530" 
d="M289 706l-103 -206h-157l58 206h202zM520 706l-103 -206h-157l58 206h202z" />
    <glyph glyph-name="quotedblbase" unicode="&#x201e;" horiz-adv-x="517" 
d="M259 104l-117 -208h-152l74 208h195zM483 104l-117 -208h-152l73 208h196z" />
    <glyph glyph-name="dagger" unicode="&#x2020;" horiz-adv-x="511" 
d="M25 348v170h145v190h171v-190h145v-170h-145v-444h-171v444h-145z" />
    <glyph glyph-name="daggerdbl" unicode="&#x2021;" horiz-adv-x="547" 
d="M43 69v166h145v141h-145v165h145v167h171v-167h145v-165h-145v-141h145v-166h-145v-165h-171v165h-145z" />
    <glyph glyph-name="bullet" unicode="&#x2022;" horiz-adv-x="420" 
d="M48 331q0 67 47.5 114.5t115.5 47.5q66 0 113.5 -48t47.5 -114q0 -68 -47 -115.5t-114 -47.5q-69 0 -116 47.5t-47 115.5z" />
    <glyph glyph-name="ellipsis" unicode="&#x2026;" horiz-adv-x="785" 
d="M29 95q0 42 29.5 70.5t71.5 28.5t70.5 -28.5t28.5 -70.5t-28.5 -71.5t-70.5 -29.5t-71.5 29.5t-29.5 71.5zM294 95q0 42 28 70.5t70 28.5t71.5 -28.5t29.5 -70.5t-29.5 -71.5t-71.5 -29.5q-41 0 -69.5 29.5t-28.5 71.5zM557 95q0 42 28.5 70.5t70.5 28.5q44 0 72 -28.5
t28 -70.5t-28.5 -71.5t-71.5 -29.5q-42 0 -70.5 29.5t-28.5 71.5z" />
    <glyph glyph-name="perthousand" unicode="&#x2030;" horiz-adv-x="1072" 
d="M55 7l492 760l129 -86l-492 -757zM325 541q0 -81 -42.5 -129t-108.5 -48q-72 0 -110 46t-38 133q0 80 41 127.5t107 47.5q73 0 112 -46t39 -131zM206 541q0 60 -33 60q-35 0 -35 -59t35 -59q33 0 33 58zM715 171q0 -81 -42.5 -129t-108.5 -48q-72 0 -110 46t-38 133
q0 80 41 127.5t107 47.5q73 0 112 -46t39 -131zM1049 171q0 -81 -42.5 -129t-108.5 -48q-72 0 -110 46t-38 133q0 80 41 127.5t107 47.5q73 0 112 -46t39 -131zM596 171q0 60 -33 60q-35 0 -35 -59t35 -59q33 0 33 58zM930 171q0 60 -33 60q-35 0 -35 -59t35 -59q33 0 33 58
z" />
    <glyph glyph-name="guilsinglleft" unicode="&#x2039;" horiz-adv-x="353" 
d="M179 525l144 -87l-103 -150q93 -140 103 -155l-145 -85l-159 239z" />
    <glyph glyph-name="guilsinglright" unicode="&#x203a;" horiz-adv-x="353" 
d="M177 49l-148 84l103 154l-102 151l145 86l159 -237z" />
    <glyph glyph-name="fraction" unicode="&#x2044;" horiz-adv-x="583" 
d="M589 685l-454 -762l-141 87l454 761z" />
    <glyph glyph-name="Euro" unicode="&#x20ac;" horiz-adv-x="645" 
d="M87 470v4q0 114 82.5 179t196.5 65q75 0 142.5 -39t106.5 -126l-146 -59q-23 42 -73.5 53.5t-91.5 -10t-41 -63.5v-4h178l-23 -108h-155v-31h178l-23 -108h-154q4 -28 30.5 -45.5t58.5 -19.5t64 14.5t45 49.5l156 -72q-28 -55 -72.5 -92t-90 -52.5t-92.5 -15.5
q-109 0 -190.5 61.5t-85.5 171.5h-62l22 108h40v31h-62l22 108h40z" />
    <glyph glyph-name="uni2113" unicode="&#x2113;" horiz-adv-x="450" 
d="M340 173l87 -100q-46 -56 -113.5 -73.5t-125.5 12.5t-76 99l-37 -28l-59 136l81 69v185q0 130 48 186t119 56q73 0 111.5 -50.5t38.5 -131.5q0 -151 -151 -312v-7q0 -49 23.5 -59.5t53.5 18.5zM235 401v-5q41 86 41 133q0 54 -18 51.5t-27 -51.5q-10 -56 4 -128z" />
    <glyph glyph-name="trademark" unicode="&#x2122;" horiz-adv-x="863" 
d="M117 289v258h-88v162h343v-162h-90v-258h-165zM401 291v418h137l69 -132l71 132h133v-418h-149l3 119l-42 -73h-25l-45 74l2 -120h-154z" />
    <glyph glyph-name="Omega" unicode="&#x2126;" horiz-adv-x="774" 
d="M414 0l-1 143q67 27 106 88.5t39 130.5q0 75 -44.5 125.5t-128.5 50.5q-80 0 -123.5 -53.5t-43.5 -130.5q0 -67 37 -127t103 -84v-143h-319v176h79q-74 77 -74 198q0 81 29 146.5t77.5 106t108.5 62t126 21.5t127.5 -22t111 -62.5t79 -105t29.5 -142.5
q0 -58 -20.5 -113.5t-55.5 -88.5h77v-176h-319z" />
    <glyph glyph-name="estimated" unicode="&#x212e;" horiz-adv-x="799" 
d="M271 260v-31q0 -9 0.5 -22.5t0.5 -23.5q56 -50 130 -50q54 0 109.5 22t87.5 71l167 -1q-69 -119 -167.5 -175.5t-197.5 -56.5q-153 0 -261.5 98.5t-108.5 239.5q0 140 109 240t261 100q154 0 263 -100t109 -240v-71h-502zM533 401v76q-61 51 -131 51q-73 0 -131 -51v-76
h262z" />
    <glyph glyph-name="partialdiff" unicode="&#x2202;" horiz-adv-x="505" 
d="M133 515l-76 114q97 62 171 62q101 0 173.5 -83.5t72.5 -248.5q0 -163 -66.5 -264t-185.5 -101q-93 0 -144 65.5t-53 160.5q-2 73 30 132t81.5 89.5t103.5 30.5q32 0 65 -12q-2 46 -30.5 67.5t-66.5 17t-75 -29.5zM223 153h8q14 -1 29 15t27 42q17 39 19 96
q-63 47 -99 -9q-27 -43 -19 -98q6 -46 35 -46z" />
    <glyph glyph-name="increment" unicode="&#x2206;" horiz-adv-x="585" 
d="M223 675h139l199 -567v-108h-537v107zM290 442l-73 -273h145z" />
    <glyph glyph-name="product" unicode="&#x220f;" horiz-adv-x="632" 
d="M527 -53h-169v594h-85v-594h-170v594h-76v168h579v-168h-79v-594z" />
    <glyph glyph-name="summation" unicode="&#x2211;" horiz-adv-x="547" 
d="M27 52l189 260q-27 40 -87.5 135t-91.5 140v119h468v-147h-242q23 -34 77 -120.5t81 -126.5l-166 -223h262v-154h-490v117z" />
    <glyph glyph-name="minus" unicode="&#x2212;" horiz-adv-x="606" 
d="M558 379v-168h-511v168h511z" />
    <glyph glyph-name="uni2215" unicode="&#x2215;" horiz-adv-x="563" 
d="M575 702l-445 -751l-141 87l445 750z" />
    <glyph glyph-name="uni2219" unicode="&#x2219;" horiz-adv-x="264" 
d="M33 303q0 43 28 72t72 29q42 0 70 -29.5t28 -71.5t-27.5 -70t-70.5 -28q-45 0 -72.5 27.5t-27.5 70.5z" />
    <glyph glyph-name="radical" unicode="&#x221a;" horiz-adv-x="541" 
d="M215 -116l-108 340l-56 -15l-53 145l217 83l56 -283l94 605h174l-184 -875h-140z" />
    <glyph glyph-name="infinity" unicode="&#x221e;" horiz-adv-x="671" 
d="M643 285v-1q0 -78 -53 -128t-123 -50q-83 0 -131 61q-55 -61 -135 -61q-72 0 -122 50.5t-50 124.5q0 78 49.5 129t127.5 51t133 -67q58 71 134 67t123 -51.5t47 -124.5zM205 324q-30 0 -42 -20t0 -40.5t41 -20.5q23 0 62 41q-40 40 -61 40zM469 324q-21 0 -61 -40
q39 -41 62 -41q29 0 41 20.5t0 40.5t-42 20z" />
    <glyph glyph-name="integral" unicode="&#x222b;" horiz-adv-x="383" 
d="M381 742l-34 -98q-24 16 -44 5t-21 -50l5 -546q0 -83 -46 -128.5t-114 -45.5q-60 0 -127 43l43 106q25 -18 46.5 -11t21.5 36q0 125 -9 550q0 85 45.5 132.5t112.5 47.5q64 0 121 -41z" />
    <glyph glyph-name="approxequal" unicode="&#x2248;" horiz-adv-x="498" 
d="M374 496l90 -74q-59 -109 -146 -109q-43 0 -104 27q-60 29 -101 -16l-82 75q64 106 143 113q22 4 52.5 -9t53 -27t49 -11.5t45.5 31.5zM370 298l97 -72q-62 -113 -150 -113q-49 0 -102 32q-25 17 -39 17q-11 0 -50 -39l-91 78q58 93 104.5 109.5t125.5 -19.5v1
q6 -2 16.5 -6.5t14 -5.5l10.5 -3t10.5 -1t9.5 1.5t12 3.5t13.5 7t18.5 10z" />
    <glyph glyph-name="notequal" unicode="&#x2260;" horiz-adv-x="528" 
d="M38 114v142h139l22 42h-161v142h236l50 96l121 -55l-22 -41h66v-142h-141l-22 -42h163v-142h-238l-49 -94l-121 51l22 43h-65z" />
    <glyph glyph-name="lessequal" unicode="&#x2264;" horiz-adv-x="489" 
d="M432 477l-145 -77q2 -2 10 -6t46.5 -22.5t88.5 -43.5v-148h16v-167h-412v167h325l-321 168v105l392 207v-183z" />
    <glyph glyph-name="greaterequal" unicode="&#x2265;" horiz-adv-x="489" 
d="M449 449v-104l-309 -162h313v-165h-412v165h16v142l115 58l29 14l-144 75v185z" />
    <glyph glyph-name="lozenge" unicode="&#x25ca;" horiz-adv-x="556" 
d="M216 -24l-196 355l201 357h117l198 -355l-200 -357h-120zM193 331l87 -156l83 153l-86 160z" />
    <glyph glyph-name="NULL" horiz-adv-x="0" 
 />
    <glyph glyph-name="CR" horiz-adv-x="333" 
 />
    <glyph glyph-name="i.loclTRK" horiz-adv-x="268" 
d="M43 645q0 38 27 64.5t66 26.5q40 0 66 -26t26 -65t-26.5 -66t-65.5 -27t-66 27t-27 66zM220 518v-518h-172v518h172z" />
    <glyph glyph-name="uni0414.loclBGR" horiz-adv-x="722" 
d="M198 -142h-182v303h64l185 547h189l191 -547h62v-303h-182v142h-327v-142zM398 352l-35 156h-4l-31 -158l-53 -189h172z" />
    <glyph glyph-name="uni041B.loclBGR" horiz-adv-x="634" 
d="M320 508h-6l-43 -207l-84 -301h-192l238 708h165l244 -708h-192l-89 301z" />
    <glyph glyph-name="uni0432.loclBGR" horiz-adv-x="515" 
d="M482 260v-87q0 -86 -66.5 -134.5t-154.5 -48.5q-113 0 -214 40v505q0 86 64 134.5t152 48.5q85 0 146 -45t61 -131q0 -60 -23.5 -99.5t-58.5 -55.5q45 -7 69.5 -40t24.5 -87zM217 529v-111q16 5 37 13q46 17 46 90q0 47 -40 47q-18 0 -30.5 -10.5t-12.5 -28.5zM312 190
v82q0 22 -15 35.5t-38 9.5q-11 -2 -42 -12v-158q18 -7 45 -7q22 0 36 12.5t14 37.5z" />
    <glyph glyph-name="uni0433.loclBGR" horiz-adv-x="432" 
d="M327 172l87 -99q-70 -82 -201 -82q-80 0 -134 40.5t-54 117.5q0 133 138 170q4 1 12 3.5t12.5 3.5t11.5 3.5t11 5t8 6t6 7.5t2 9q0 25 -39 25q-27 0 -60 -17l-90 90q66 73 183 73q84 0 130.5 -45.5t46.5 -111.5q0 -135 -151 -170q-24 -6 -35 -9.5t-19.5 -11t-8.5 -19.5
q0 -29 48 -29q45 0 96 40z" />
    <glyph glyph-name="uni0434.loclBGR" horiz-adv-x="503" 
d="M36 164v181q0 50 18.5 87t51.5 57t71.5 29.5t84.5 9.5q102 0 194 -44v-470q0 -119 -56 -176t-156 -57q-105 0 -182 61l63 110q46 -28 94 -28q79 0 79 78q-32 -12 -78 -12q-76 0 -130 44t-54 130zM293 132v259q-14 10 -36 10q-25 0 -41 -12.5t-16 -37.5v-183
q0 -23 15.5 -35t37.5 -12q23 0 40 11z" />
    <glyph glyph-name="uni0436.loclBGR" horiz-adv-x="745" 
d="M290 0v167l-100 -167h-188l181 267l-182 251h190l99 -171v361h165v-361l99 171h190l-182 -251l181 -267h-188l-100 167v-167h-165z" />
    <glyph glyph-name="uni0438.loclBGR" horiz-adv-x="513" 
d="M466 518v-486q-82 -42 -187 -42q-103 0 -169 46t-66 149v333h168v-332q0 -24 15 -36t38 -12q17 0 32 6v374h169z" />
    <glyph glyph-name="uni0439.loclBGR" horiz-adv-x="515" 
d="M307 756h131q0 -56 -26 -97.5t-65 -60t-84 -18.5t-84 18.5t-65 60t-26 97.5h131q0 -26 22 -37t44 0t22 37zM468 518v-486q-87 -42 -193 -42q-64 0 -114 18.5t-84 63.5t-34 113v333h170v-330q0 -23 14.5 -36t33.5 -13q22 0 37 7v372h170z" />
    <glyph glyph-name="uni043A.loclBGR" horiz-adv-x="523" 
d="M218 357l111 161h193l-188 -251l187 -267h-191l-112 166v-166h-170v708h170v-351z" />
    <glyph glyph-name="uni043B.loclBGR" horiz-adv-x="512" 
d="M256 366h-3l-22 -144l-52 -222h-178l157 518h192l162 -518h-185l-48 221z" />
    <glyph glyph-name="uni043F.loclBGR" horiz-adv-x="512" 
d="M47 0v486q86 42 189 42q100 0 166.5 -47t66.5 -148v-333h-168v332q0 48 -50 48q-20 0 -35 -6v-374h-169z" />
    <glyph glyph-name="uni0442.loclBGR" horiz-adv-x="735" 
d="M47 0v476q65 52 173 52q99 0 152 -53q48 53 125 53q86 0 140.5 -47.5t54.5 -139.5v-341h-168v343q0 15 -10.5 23t-24.5 8q-15 0 -26.5 -8t-11.5 -22v-344h-163v346q0 29 -38 29q-24 0 -37 -13v-362h-166z" />
    <glyph glyph-name="uni0446.loclBGR" horiz-adv-x="556" 
d="M271 -10q-99 0 -163 47.5t-64 147.5v333h170v-330q0 -23 12 -36t31 -13q22 0 37 7v372h170v-359h72v-163q-5 -76 -19 -134h-137l4 151q-48 -23 -113 -23z" />
    <glyph glyph-name="uni0448.loclBGR" horiz-adv-x="776" 
d="M729 518v-476q-29 -23 -79 -37.5t-104 -14.5q-106 0 -159 53q-23 -25 -63 -39t-78 -14q-82 0 -142.5 50.5t-60.5 133.5v344h170v-348q0 -31 43 -31q16 0 30.5 8.5t14.5 21.5v349h170v-350q0 -13 14.5 -21t31.5 -8q31 0 42 11v368h170z" />
    <glyph glyph-name="uni0449.loclBGR" horiz-adv-x="822" 
d="M803 -9l-17 -128l-135 -1v147q-49 -19 -105 -19q-106 0 -159 53q-23 -25 -63 -39t-78 -14q-82 0 -142.5 50.5t-60.5 133.5v344h170v-348q0 -31 43 -31q16 0 30.5 8.5t14.5 21.5v349h170v-350q0 -13 14.5 -21t31.5 -8q31 0 42 11v368h170v-359h74v-168z" />
    <glyph glyph-name="uni044E.loclBGR" horiz-adv-x="739" 
d="M216 708v-372h56q0 90 65 141t151 51t151 -50.5t65 -140.5v-164q0 -86 -64 -134.5t-152 -48.5t-152 48.5t-64 134.5v27h-56v-200h-169v708h169zM488 140q19 0 32 10.5t14 28.5v161q0 17 -14 27.5t-32 10.5t-32 -10.5t-14 -27.5v-161q1 -18 14 -28.5t32 -10.5z" />
    <glyph glyph-name="at.001" horiz-adv-x="750" 
d="M469 538l72 -18q-25 34 -73 52t-95 18q-113 0 -181 -84t-68 -191q0 -121 84 -182.5t209 -24.5l27 -96q-68 -21 -125 -21q-137 0 -230.5 98t-85.5 252q7 92 51 174.5t126 137.5t184 55q56 0 105 -13q65 -18 120.5 -60.5t83.5 -94.5q45 -88 26 -197t-93 -173
q-56 -51 -133 -51q-43 0 -73 21q-31 -19 -71 -19q-79 0 -128 55t-49 138q0 96 57 169.5t137 73.5q57 0 105 -40zM558 495l-47 -256q37 16 57.5 61.5t19 95t-20.5 81.5zM344 244q29 0 45 16l32 147q-53 56 -100 17q-37 -31 -40 -90q-1 -45 23 -74q15 -16 40 -16z" />
    <glyph glyph-name=".ttfautohint" horiz-adv-x="330" 
 />
    </font>
</defs>
</svg>
