<svg version="1.1" id="Слой_1" xmlns="http://www.w3.org/2000/svg" x="0" y="0" viewBox="0 0 100 133.3" xml:space="preserve"><style>.st0{fill:#dadbda}</style><path class="st0" d="M51.1 7c-13 0-23.5 10.5-23.5 23.4s10.5 23.5 23.5 23.5c12.9 0 23.5-10.5 23.5-23.5S64 7 51.1 7zm0 44.9c-11.8 0-21.5-9.6-21.5-21.5S39.2 9 51.1 9s21.5 9.6 21.5 21.5-9.7 21.4-21.5 21.4z"/><path class="st0" d="M80.7 35.6C82.4 26 79.4 15.9 72.4 9 60.6-2.8 41.5-2.8 29.8 9 18 20.7 18 39.8 29.8 51.6c5.6 5.6 12.9 8.5 20.3 8.8v51.9H36.3c-.6 0-1 .4-1 1s.4 1 1 1h13.8v12.3c-1.4.4-2.5 1.8-2.5 3.3 0 1.9 1.6 3.5 3.5 3.5s3.5-1.6 3.5-3.5c0-1.6-1.1-2.9-2.5-3.3v-12.3h13.8c.6 0 1-.4 1-1s-.4-1-1-1H52.1V60.4c7.4-.2 14.7-3.2 20.3-8.8.4-.4.4-1 0-1.4s-1-.4-1.4 0c-11 11-28.8 11-39.8 0-11-11-11-28.8 0-39.8 11-11 28.8-11 39.8 0 6.5 6.5 9.3 15.7 7.8 24.6h-.1c-1.9 0-3.5 1.6-3.5 3.5s1.6 3.5 3.5 3.5 3.5-1.6 3.5-3.5c0-1.2-.6-2.2-1.5-2.9z"/></svg>