<svg version="1.1" id="Слой_1" xmlns="http://www.w3.org/2000/svg" x="0" y="0" viewBox="0 0 100 100" xml:space="preserve"><style>.st0{fill:#dadbda}</style><path class="st0" d="M45.6 71.1c-1.4 0-2.5 1.2-2.5 2.7 0 1.5 1.1 2.7 2.5 2.7s2.5-1.2 2.5-2.7c0-1.6-1.1-2.7-2.5-2.7z"/><ellipse class="st0" cx="54.6" cy="73.7" rx="2.5" ry="2.7"/><path class="st0" d="M45.6 79.6c-1.4 0-2.5 1.2-2.5 2.7 0 1.5 1.1 2.7 2.5 2.7s2.5-1.2 2.5-2.7c0-1.5-1.1-2.7-2.5-2.7zm9 0c-1.4 0-2.5 1.2-2.5 2.7 0 1.5 1.1 2.7 2.5 2.7s2.5-1.2 2.5-2.7c.1-1.5-1.1-2.7-2.5-2.7z"/><path class="st0" d="M98.8 87.2c-.1 0-13 2.4-24.6-5.4-11.3-7.6-5-34.7-4.9-35 8-9 13.1-23.4 13.1-39.6 0-.6-.4-1-1-1-.5 0-1 .5-1 1 0 26.1-13.7 47.3-30.5 47.3S19.4 33.3 19.4 7.2c0-.6-.4-1-1-1-.5 0-1 .5-1 1 0 16.5 5.4 31.1 13.6 40.1.4 2 5.4 27.2-5.4 34.5C14.1 89.6 1.2 87.2 1 87.2c-.5-.1-1 .3-1.1.8-.1.6.3 1.1.8 1.2.2 0 2.3.4 5.5.4 5.1 0 13-1 20.5-6.1 10.1-6.9 8.1-26.3 6.8-33.8 4.8 4.3 10.4 6.8 16.4 6.8 6.1 0 11.9-2.6 16.8-7.1-1.4 7.7-3.8 27.3 6.4 34.2 7.5 5.1 15.4 6.1 20.5 6.1 3.2 0 5.3-.4 5.5-.4.5-.1.9-.6.8-1.2 0-.7-.5-1-1.1-.9z"/><path class="st0" d="M55 66.5l-4.9 1.2-4.9-1.2c-1.8-.4-3.7.1-5.1 1.4-1.4 1.3-2.1 3.2-1.8 5.2l1.3 11.2c.3 3 2.8 5.3 5.6 5.3h.2l4.6-.9 4.6.9h.2c2.9 0 5.3-2.3 5.6-5.3l1.3-11.2c.2-2-.4-3.8-1.8-5.2-1.2-1.3-3.1-1.8-4.9-1.4zm4.9 6.3L58.6 84c-.2 1.9-1.8 3.4-3.6 3.4l-4.5-.9h-.8l-4.5.9c-1.8 0-3.4-1.5-3.6-3.4l-1.3-11.2c-.1-1.3.3-2.5 1.2-3.4.9-.9 2.1-1.2 3.3-.9l4.9 1.2h.8l4.9-1.2c1.2-.3 2.4 0 3.3.9.9.9 1.4 2.1 1.2 3.4z"/></svg>