<svg version="1.1" id="Слой_1" xmlns="http://www.w3.org/2000/svg" x="0" y="0" viewBox="0 0 100 100" xml:space="preserve"><style>.st0{fill:#dadbda}</style><path class="st0" d="M99.9.6c-.1-.2-.3-.4-.5-.5-.1-.1-.3-.1-.4-.1H69.9c-.5 0-1 .4-1 1s.4 1 1 1h26.8L51.5 47.1c-.6-.5-1.4-.9-2.3-.9-.6 0-1.1.2-1.6.4-7.5-5.7-17.4-7.5-26.5-4.8-7.6 2.3-13.8 7.4-17.6 14.4-3.7 7-4.6 15-2.3 22.6 2.3 7.6 7.4 13.8 14.4 17.6 4.4 2.4 9.2 3.5 14 3.5 2.9 0 5.8-.4 8.6-1.3 7.6-2.3 13.8-7.4 17.6-14.4 3.7-7 4.6-15 2.3-22.6-.2-.5-.7-.8-1.2-.7-.5.2-.8.7-.7 1.2 2.1 7.1 1.4 14.6-2.1 21.1-3.5 6.5-9.3 11.3-16.4 13.4-7.1 2.1-14.6 1.4-21.1-2.1C10 91.2 5.3 85.3 3.1 78.2c-2.1-7-1.3-14.5 2.2-21s9.3-11.3 16.4-13.4c8.4-2.5 17.5-.9 24.5 4.3-.3.5-.4 1-.4 1.6 0 1.9 1.5 3.4 3.4 3.4s3.4-1.5 3.4-3.4c0-.3 0-.5-.1-.8L98 3.3v26.8c0 .5.4 1 1 1s1-.4 1-1V1c0-.1 0-.3-.1-.4z"/><path class="st0" d="M29.7 49.4c-11.5 0-20.8 9.4-20.8 20.9 0 11.5 9.4 20.8 20.8 20.8 11.5 0 20.9-9.4 20.9-20.8-.1-11.5-9.4-20.9-20.9-20.9zm0 39.8c-10.4 0-18.9-8.5-18.9-18.9s8.5-18.9 18.9-18.9c10.4 0 18.9 8.5 18.9 18.9s-8.5 18.9-18.9 18.9z"/></svg>