<svg version="1.1" id="Слой_1" xmlns="http://www.w3.org/2000/svg" x="0" y="0" viewBox="0 0 100 100" xml:space="preserve"><style>.st0{fill:#dadbda}</style><path class="st0" d="M99 51.2H83.7L81.9 49c-.2-.2-.5-.4-.8-.4-.3 0-.6.1-.8.4l-2.6 3.2-2.4-4c-.2-.3-.6-.5-.9-.5-.4 0-.7.3-.8.6L69.4 60l-4-6.8c-.2-.3-.5-.5-.8-.5-.3 0-.7.2-.8.4l-2.2 3.3H49.2c-.5 0-1 .4-1 1s.4 1 1 1H62c.3 0 .6-.2.8-.4l1.6-2.4 4.3 7.3c.2.3.5.5.8.5h.1c.4 0 .7-.3.8-.6l4.2-11.7 2.1 3.4c.2.3.5.4.8.5.3 0 .6-.1.8-.4l2.7-3.3 1.3 1.6c.2.2.5.4.8.4H99c.5 0 1-.4 1-1s-.4-1.1-1-1.1z"/><path class="st0" d="M75.6 41c4.7-4 6.9-7.5 6.5-10.4-1.3-9.5-25.5-7.2-28.3-6.9-.5.1-.9.5-.9 1.1.1.5.5.9 1.1.9 7-.8 25.2-1.3 26.1 5.2.3 2.2-1.8 5.2-5.8 8.7-8.5 7.2-22.3 13.5-24.5 12.8-2.4-.7-2.6-3.8-2.7-7.2 0-.8 0-1.5-.1-2-.2-1.5 1.1-3.4 2.4-5.2.5-.7 1-1.4 1.4-2.1 1.6-2.8 1.2-7.5-2.5-10.4-2.3-1.9-4.7-1.8-10.3-1.7-2.9.1-6.9.1-12.3 0-15.2-.5-20.8 7-24.6 15.1-3.2 6.8 1.4 20.4 4.8 30.4.3.9.6 1.8.9 2.6 1.4 4.2 2.9 6.4 4.7 7.1.4.2.8.2 1.2.2 1.1 0 1.9-.5 2.5-.9l.4-.2c1-.2 3.5-2.4 10-8.1 2.1-1.8 4.2-3.7 6.2-5.4 6.9-6 11-6.2 11.1-6.2.5 0 1-.4 1-1s-.4-1-1-1c-1.6 0-6.2 1.4-12.4 6.7-2 1.7-4.2 3.6-6.2 5.4-3.7 3.3-8.4 7.4-9.2 7.7-.3.1-.6.3-1 .5-.8.4-1.4.7-2 .5-.8-.3-2.1-1.6-3.5-5.9-.3-.8-.6-1.7-.9-2.6C4.5 59 0 45.8 2.9 39.7c3.3-7 8-14.4 22.8-14 5.5.2 9.5.1 12.4 0 5.3-.1 7.3-.2 9 1.3 2.8 2.3 3.2 5.8 2 7.9-.4.6-.8 1.3-1.3 2-1.5 2.1-3 4.3-2.7 6.6.1.5.1 1.1.1 1.8.1 3.1.1 7.9 4.1 9.1 3.5 1 18.3-6.5 26.3-13.4z"/></svg>