<svg version="1.1" id="Слой_1" xmlns="http://www.w3.org/2000/svg" x="0" y="0" viewBox="0 0 100 100" xml:space="preserve"><style>.st0{fill:#dadbda}</style><path class="st0" d="M99.7 98.3L54.5 53.1c11.6-12.3 11.4-31.8-.7-43.9C41.5-3.1 21.5-3.1 9.2 9.2c-12.3 12.3-12.3 32.3 0 44.6C15.4 60 23.4 63 31.5 63c7.8 0 15.5-2.9 21.6-8.5l45.2 45.2c.2.2.4.3.7.3.3 0 .5-.1.7-.3.4-.4.4-1 0-1.4zM10.6 52.4C-.9 40.9-.9 22.1 10.6 10.6 16.4 4.8 24 2 31.5 2s15.2 2.9 20.9 8.7c11.5 11.4 11.6 30.1.2 41.6l-.1.1-.1.1C40.8 64 22.1 63.9 10.6 52.4z"/><path class="st0" d="M59.2 31.5c0-7.4-2.9-14.3-8.1-19.6-5.2-5.2-12.2-8.1-19.6-8.1S17.2 6.7 12 11.9C1.2 22.7 1.2 40.3 12 51.1c5.2 5.2 12.2 8.1 19.6 8.1s14.3-2.9 19.6-8.1c5.1-5.2 8-12.2 8-19.6zM31.5 57.2c-6.9 0-13.3-2.7-18.2-7.5-10-10-10-26.3 0-36.4 4.9-4.9 11.3-7.5 18.2-7.5s13.3 2.7 18.2 7.5c4.9 4.9 7.5 11.3 7.5 18.2s-2.7 13.3-7.5 18.2-11.3 7.5-18.2 7.5z"/><path class="st0" d="M23.6 37.1c-2-.7-3.9-1.8-5.4-3.3-5.1-5.2-5.1-13.6-.1-18.7 2.5-2.6 5.9-4 9.5-4.1 3.6 0 7 1.4 9.6 3.9l.2.2c4.5 4.7 3.3 10.3 1 13.7-2.6 3.7-7.8 6.3-13.6 3.8l-.3-.1c-2.7-1.3-4.5-3.9-4.7-6.9-.2-3.1 1.2-5.9 3.7-7.6 2.5-1.7 6.9-1.4 9.2.6 1.8 1.6 2 4 .5 7-.2.5-.1 1.1.4 1.3.5.2 1.1.1 1.3-.4 1.9-3.7 1.6-7.1-.9-9.3-2.9-2.6-8.2-3-11.6-.8-3.2 2.1-4.9 5.6-4.6 9.4.3 3.7 2.5 6.9 5.8 8.5l.3.1c6.7 3 12.9-.1 16-4.4 3-4.3 3.8-10.9-1.2-16.2l-.3-.3c-2.9-2.9-6.8-4.5-11-4.5-4.1 0-8 1.7-10.9 4.7-5.8 5.9-5.7 15.6.1 21.5 1.7 1.8 3.8 3.1 6.2 3.8h.3c.4 0 .8-.3.9-.7.4-.5.1-1.1-.4-1.2zm9.6 1h-.1c-4.6.1-8.4 3.9-8.5 8.5 0 1.4.3 2.7.9 3.9.2.5.8.7 1.3.4.5-.2.7-.8.4-1.3-.5-.9-.7-2-.7-3 0-3.6 3-6.5 6.5-6.6 1.8 0 3.5.7 4.7 1.9 1.3 1.3 2 2.9 2 4.7v.2c-.1 3.2-2.4 4.7-4.4 5-2 .4-4.8-.3-6-3.4l-.1-.1c-.5-1.3-.2-2.8.7-3.9 1-1.1 2.4-1.6 3.8-1.3 1.4.3 2.7 1.8 2.8 3.2.1 1.1-.7 1.8-2.1 2.3-.5.2-.8.7-.6 1.2.2.5.7.8 1.2.6 3.3-1 3.5-3.3 3.5-4.3-.1-2.3-2.1-4.6-4.4-5.1-2.1-.4-4.3.3-5.7 1.9-1.4 1.6-1.8 3.8-1.1 5.8l.1.2c1.3 3.3 4.2 4.7 6.8 4.7.4 0 .9 0 1.3-.1 2.9-.5 5.9-2.8 6-6.9v-.2c0-2.3-.9-4.5-2.6-6.1-1.3-1.3-3.4-2.2-5.7-2.2zm10.5-9.2c-.6.2-1.2.5-1.7.9-.2.2-.2.5 0 .7.2.2.5.2.7 0 .4-.3.8-.6 1.3-.7 1.6-.4 3.4.5 3.9 2.2.2.8.1 1.7-.3 2.4s-1.1 1.3-2 1.5c-1.5.4-2.5-.5-2.9-1.4-.4-.9-.5-2.2.8-3.2.6-.4 1.3-.5 1.9-.2.6.3 1 .9 1.1 1.6 0 .7-.5 1.5-1.1 1.7-.5.2-.9-.1-1.3-.7-.2-.2-.5-.3-.7-.1-.2.1-.3.5-.1.7.9 1.4 2 1.2 2.5 1.1 1-.4 1.9-1.6 1.8-2.7-.1-1-.7-1.9-1.7-2.4-.9-.4-2-.3-2.9.3-1.6 1.2-1.7 3.1-1.1 4.4.5 1.1 1.6 2 3.1 2 .3 0 .6 0 .9-.1h.1c1.1-.3 2-1 2.5-2s.7-2.1.3-3.2c-.7-2.1-3-3.4-5.1-2.8z"/></svg>