<svg xmlns="http://www.w3.org/2000/svg" viewBox="0 0 100 100"><path d="M9.2 25.6c.1.5.4.9.9 1.1l8.9 3.5c.2.1.4.1.5.1.3 0 .6-.1.9-.3l7.5-5.9c.4-.3.6-.8.5-1.4L27 13.3c-.1-.5-.4-.9-.9-1.1l-8.9-3.5c-.5-.2-1-.1-1.4.2l-7.5 5.9c-.4.3-.6.8-.5 1.4l1.4 9.4zm7.7-13.9l7.3 2.9 1.2 7.8-6.1 4.9-7.3-2.9-1.2-7.8 6.1-4.9zm-3.4 51.6c-.2-.5-.6-.8-1.1-.9l-6.5-1.1c-.5-.1-1 .1-1.4.5L.3 66.9c-.3.4-.4.9-.2 1.4l2.3 6.2c.2.5.6.8 1.1.9l6.5 1.1h.2c.4 0 .8-.2 1.1-.5l4.2-5.1c.3-.4.4-.9.2-1.4l-2.2-6.2zM9.7 73.5l-4.8-.8-1.7-4.6 3.1-3.8 4.8.8 1.7 4.6-3.1 3.8zm90.1 12.3l-5.7-11c-.2-.5-.7-.8-1.2-.8l-12.4-.5c-.5 0-1 .2-1.3.7l-6.7 10.4c-.3.4-.3 1-.1 1.5l5.7 11c.2.5.7.8 1.2.8l12.4.5h.1c.5 0 1-.3 1.2-.7l6.7-10.4c.3-.4.4-1 .1-1.5zm-8.7 9.7L80.4 95l-4.9-9.5 5.7-9 10.7.5 4.9 9.5-5.7 9zM72.4 80c.3.2.6.3.9.3.4 0 .8-.2 1.1-.5.5-.6.4-1.5-.2-2.1-2.7-2.3-21-15.4-24.3-17.7l1.9-3.3c.3-.5.3-1 0-1.5L50 52.1l11.4-33 3 1.2c.2.1.4.1.5.1.3 0 .6-.1.9-.3l6.6-5.3c.4-.3.6-.8.5-1.4L71.6 5c-.1-.5-.4-.9-.9-1.1L62.8.8c-.5-.2-1-.1-1.4.2L55 6.3c-.4.3-.6.8-.5 1.4l1.3 8.4c.1.5.4.9.9 1.1l2.2.9-10.7 30.7-1-1.8c-.3-.5-.7-.7-1.3-.7h-4l-14-18.6c-.5-.6-1.4-.8-2-.3-.6.5-.8 1.4-.3 2l12.6 16.9h-1.9c-.5 0-1 .3-1.3.7l-4.8 8.3c-.3.5-.3 1 0 1.5l1.2 2.1c-3.8 1.4-14.2 5.3-15.5 5.7-.8.3-1.2 1.1-.9 1.8.2.6.8 1 1.4 1 .2 0 .3 0 .5-.1 1.4-.5 12.6-4.7 16-5.9L35 65c.3.5.7.7 1.3.7h9.5c.5 0 1-.3 1.3-.7l1.4-2.4c3.8 2.6 21.3 15.2 23.9 17.4zM57.5 8.1l5.3-4.2 6.3 2.5 1 6.7-5.3 4.2-6.3-2.5-1-6.7zM45.1 62.8h-7.9L33.3 56l3.9-6.8h7.9L49 56l-3.9 6.8z" fill="#dadbda"/></svg>