<svg version="1.1" id="Слой_1" xmlns="http://www.w3.org/2000/svg" x="0" y="0" viewBox="0 0 100 100" xml:space="preserve"><style>.st0{fill:#dadbda}</style><path class="st0" d="M87.6 31.3c.2.3.5.5.9.5.1 0 .3 0 .4-.1l5.5-2.8c.5-.2.7-.8.4-1.3-.2-.5-.8-.7-1.3-.4L88 30c-.5.3-.7.9-.4 1.3zM50 74.9c.5 0 1-.4 1-1V53c1.1-.3 2-1.2 2.3-2.3h29c.5 0 1-.4 1-1 0-.5-.4-1-1-1h-29c-.4-1.4-1.7-2.5-3.3-2.5-1.9 0-3.4 1.5-3.4 3.4 0 1.6 1 2.8 2.5 3.3v20.9c-.1.6.3 1.1.9 1.1z"/><path class="st0" d="M99 49c-.1 0-.3 0-.4.1h-6.2c-.5 0-1 .4-1 1 0 .5.4 1 1 1H98c-.1 6.6-1.6 12.9-4.2 18.7l-4.9-2.5c-.5-.2-1.1-.1-1.3.4-.2.5-.1 1.1.4 1.3l4.9 2.5c-3.6 7.2-9 13.4-15.6 18l-4.1-4.1c-.4-.4-1-.4-1.4 0s-.4 1 0 1.4l3.8 3.8C68.5 95.1 60 97.8 51 98v-5.5c0-.5-.4-1-1-1-.5 0-1 .4-1 1V98c-9-.2-17.3-2.8-24.4-7.3l3.9-3.9c.4-.4.4-1 0-1.4s-1-.4-1.4 0l-4.2 4.2c-6.7-4.6-12.1-10.8-15.8-18l5.2-2.7c.5-.2.7-.8.4-1.3-.2-.5-.8-.7-1.3-.4l-5.2 2.6C3.6 64.1 2.1 57.7 2 51h5.6c.5 0 1-.4 1-1 0-.5-.4-1-1-1H2c.1-7 1.8-13.7 4.6-19.7l4.8 2.4c.1.1.3.1.4.1.4 0 .7-.2.9-.5.2-.5.1-1.1-.4-1.3l-4.8-2.4c3.7-7 9.1-13 15.6-17.4l4 4c.2.2.4.3.7.3.3 0 .5-.1.7-.3.4-.4.4-1 0-1.4l-3.7-3.7C31.9 4.7 40.2 2.2 49 2v5.6c0 .5.4 1 1 1 .5 0 1-.4 1-1V2c8.7.2 17.1 2.8 24.4 7.2l-3.5 3.5c-.4.4-.4 1 0 1.4.2.2.4.3.7.3.3 0 .5-.1.7-.3l3.8-3.8C83 14.3 88 19.6 91.7 26c.3.5.9.6 1.3.4.5-.3.6-.9.4-1.3C84.4 9.6 67.8 0 50 0 22.4 0 0 22.4 0 50s22.4 50 50 50 50-22.4 50-50c0-.5-.4-1-1-1z"/></svg>