<svg version="1.1" id="Слой_1" xmlns="http://www.w3.org/2000/svg" x="0" y="0" viewBox="0 0 100 100" xml:space="preserve"><style>.st0{fill:#dadbda}</style><path class="st0" d="M99.9 50.8L82.2 20c.5-.6.8-1.4.8-2.2 0-1.9-1.5-3.4-3.4-3.4s-3.4 1.5-3.4 3.4 1.5 3.4 3.4 3.4c.3 0 .6-.1.9-.1l17.4 30.2-24.2 42c-.3.5-.1 1.1.4 1.3.2.1.3.1.5.1.3 0 .7-.2.9-.5L100 51.7c0-.2 0-.6-.1-.9z"/><path class="st0" d="M80.4 50.1L65.3 23.9c-.2-.3-.5-.5-.8-.5H34.3c-.4 0-.7.2-.8.5L18.3 50.1c-.2.3-.2.7 0 1l15.1 26.1c.2.3.5.5.8.5h30.2c.4 0 .7-.2.8-.5l15.1-26.1c.2-.3.2-.7.1-1zM63.9 75.7h-29L20.3 50.6l14.5-25.1h29l14.5 25.1-14.4 25.1z"/><path class="st0" d="M61.3 90.2c-1.6 0-2.9 1.1-3.3 2.6H26.1l-24.2-42c-.3-.5-.9-.6-1.3-.4-.5.3-.6.9-.4 1.3l24.5 42.5c.2.3.5.5.8.5H58c.5 1.4 1.7 2.4 3.2 2.4 1.9 0 3.4-1.5 3.4-3.4.1-2-1.4-3.5-3.3-3.5zM6.7 44.4c1.9 0 3.4-1.5 3.4-3.4 0-.8-.3-1.6-.8-2.2L26 9.8h48.5c.5 0 1-.4 1-1 0-.5-.4-1-1-1h-49c-.4 0-.7.2-.8.5l-17 29.4c-.3-.1-.6-.2-1-.2-1.9 0-3.4 1.5-3.4 3.4s1.5 3.5 3.4 3.5z"/></svg>