<svg xmlns="http://www.w3.org/2000/svg" viewBox="0 0 100 100"><path d="M99 38.8h-5.7c1.3-6.3.8-12.9-3-19.1-4.9-8.1-11.1-13-18.5-14.5-11.1-2.3-21.1 3.5-23.6 5-2.5-1.6-12.6-7.4-23.6-5C17.2 6.8 11 11.7 6.1 19.7c-4.8 8-4.8 17.5.1 28.3.2.4.3.7.5 1.1H1c-.5 0-1 .4-1 1 0 .5.4 1 1 1h6.8c10.1 19.1 31.9 35.3 40.3 36.8h.4c5.3-1 14.7-7.1 23.4-15.3.4-.4.4-1 0-1.4-.4-.4-1-.4-1.4 0-8.2 7.7-17.3 13.8-22.2 14.7C40.4 84.3 19.9 68.8 10 51h16.3c.3 0 .6-.2.8-.4l4.1-6 9.1 15.6c.2.3.5.5.8.5h.1c.4 0 .7-.3.8-.6l9-25 5.1 8.5c.2.3.5.4.8.5.3 0 .6-.1.8-.4l6.1-7.4 3.3 4.2c.2.2.5.4.8.4h23c-1.6 5.9-4.7 11.4-7.9 16-.3.4-.2 1.1.2 1.4.4.3 1.1.2 1.4-.2 3.4-4.9 6.6-10.8 8.3-17.1H99c.5 0 1-.4 1-1s-.4-1.2-1-1.2zm-30.7 0l-3.7-4.7c-.2-.2-.5-.4-.8-.4-.3 0-.6.1-.8.4l-5.9 7.3-5.5-9c-.2-.3-.5-.5-.9-.5s-.7.3-.8.6L41 57.4l-8.9-15.1c-.2-.3-.5-.5-.8-.5-.3 0-.7.2-.8.4L25.7 49H9c-.3-.6-.6-1.3-.9-1.9-4.6-10.1-4.7-19-.2-26.4 4.6-7.6 10.4-12.2 17.2-13.6 11.6-2.5 22.6 5 22.7 5.1.3.2.8.2 1.1 0 .1-.1 11-7.6 22.7-5.1 6.8 1.5 12.6 6 17.2 13.6 3.5 5.9 3.9 12.1 2.6 18.1H68.3z" fill="#dadbda"/></svg>